SplineFontDB: 3.2
FontName: aliconnect-icon
FullName: Aliconnect Icon
FamilyName: Aliconnect Icon
Weight: Book
Copyright: (c) 2018 Alicon Systems BV. All Rights Reserved.
Version: 1.29
ItalicAngle: 0
UnderlinePosition: -177.5
UnderlineWidth: 59.5
Ascent: 1024
Descent: 0
InvalidEm: 0
sfntRevision: 0x00014a3d
woffMajor: 1
woffMinor: 29
LayerCount: 2
Layer: 0 1 "Back" 1
Layer: 1 1 "Fore" 0
XUID: [1021 212 1677120463 18918]
StyleMap: 0x0040
FSType: 8
OS2Version: 3
OS2_WeightWidthSlopeOnly: 0
OS2_UseTypoMetrics: 0
CreationTime: 1138233600
ModificationTime: 1669310362
PfmFamily: 81
TTFWeight: 400
TTFWidth: 5
LineGap: 0
VLineGap: 0
Panose: 5 10 1 2 1 1 1 1 1 1
OS2TypoAscent: 1024
OS2TypoAOffset: 0
OS2TypoDescent: 0
OS2TypoDOffset: 0
OS2TypoLinegap: 0
OS2WinAscent: 1024
OS2WinAOffset: 0
OS2WinDescent: 0
OS2WinDOffset: 0
HheadAscent: 1024
HheadAOffset: 0
HheadDescent: 0
HheadDOffset: 0
OS2SubXSize: 717
OS2SubYSize: 666
OS2SubXOff: 0
OS2SubYOff: 142
OS2SupXSize: 717
OS2SupYSize: 666
OS2SupXOff: 0
OS2SupYOff: 488
OS2StrikeYSize: 51
OS2StrikeYPos: 265
OS2FamilyClass: 2053
OS2Vendor: 'MS  '
OS2CodePages: 00000001.00000000
OS2UnicodeRanges: 00000000.10000000.00000000.00000000
MarkAttachClasses: 1
DEI: 91125
TtTable: prep
PUSHB_1
 0
CALL
SVTCA[y-axis]
PUSHB_3
 1
 6
 2
CALL
SVTCA[x-axis]
PUSHB_3
 7
 6
 2
CALL
SVTCA[x-axis]
PUSHB_8
 7
 133
 109
 85
 61
 37
 0
 8
CALL
PUSHB_8
 8
 101
 83
 64
 46
 28
 0
 8
CALL
PUSHB_8
 9
 88
 72
 56
 40
 24
 0
 8
CALL
PUSHB_8
 10
 67
 55
 43
 31
 19
 0
 8
CALL
PUSHB_8
 11
 44
 36
 28
 20
 12
 0
 8
CALL
PUSHB_8
 12
 30
 24
 19
 14
 8
 0
 8
CALL
SVTCA[y-axis]
PUSHB_8
 1
 133
 109
 85
 61
 37
 0
 8
CALL
PUSHB_8
 2
 101
 83
 64
 46
 28
 0
 8
CALL
PUSHB_8
 3
 88
 72
 56
 40
 24
 0
 8
CALL
PUSHB_8
 4
 67
 55
 43
 31
 19
 0
 8
CALL
PUSHB_8
 5
 44
 36
 28
 20
 12
 0
 8
CALL
PUSHB_8
 6
 30
 24
 19
 14
 8
 0
 8
CALL
SVTCA[y-axis]
PUSHB_3
 13
 1
 7
CALL
PUSHB_1
 0
DUP
RCVT
RDTG
ROUND[Black]
RTG
WCVTP
EndTTInstrs
TtTable: fpgm
NPUSHB
 10
 9
 8
 7
 6
 5
 4
 3
 2

StartChar: uniF000
Encoding: 61440 61440 2
Width: 1024
Flags: W
LayerCount: 2
Fore
SplineSet
306 511.5 m 128,-1,1
 306 597 306 597 366 657 c 128,-1,2
 426 717 426 717 511 717 c 2,3,4
 510 716 510 716 868 716 c 1,5,6
 844 758 844 758 802 802 c 0,7,8
 747 857 747 857 671 889.5 c 128,-1,9
 595 922 595 922 511.5 922 c 128,-1,10
 428 922 428 922 352 889.5 c 128,-1,11
 276 857 276 857 221 802 c 128,-1,12
 166 747 166 747 133.5 671 c 128,-1,13
 101 595 101 595 101 511.5 c 128,-1,14
 101 428 101 428 133.5 352 c 128,-1,15
 166 276 166 276 221 221 c 128,-1,16
 276 166 276 166 352 133.5 c 128,-1,17
 428 101 428 101 511.5 101 c 128,-1,18
 595 101 595 101 671 133.5 c 128,-1,19
 747 166 747 166 802 221 c 0,20,21
 841 260 841 260 869 310 c 1,22,-1
 512 306 l 2,23,24
 427 305 427 305 366 366 c 0,25,0
 306 426 306 426 306 511.5 c 128,-1,1
819 512 m 1029,26,-1
409.5 511 m 128,-1,28
 410 554 410 554 439.5 584 c 0,29,30
 470 614 470 614 512 614 c 0,31,32
 516 614 516 614 519 614 c 2,33,-1
 808 614 l 2,34,35
 813 614 813 614 819 614 c 0,36,37
 861 614 861 614 891.5 584 c 128,-1,38
 922 554 922 554 922 512 c 128,-1,39
 922 470 922 470 892 440 c 128,-1,40
 862 410 862 410 819 410 c 1,41,-1
 819 409 l 1,42,43
 820 409 820 409 512 409 c 2,44,45
 468 409 468 409 439 438 c 0,46,27
 409 468 409 468 409.5 511 c 128,-1,28
EndSplineSet
EndChar

StartChar: uniF001
Encoding: 61441 61441 3
Width: 1024
Flags: W
LayerCount: 2
Fore
SplineSet
1024 640 m 1,0,-1
 708 397 l 1,1,-1
 832 0 l 1,2,-1
 512 246 l 1,3,-1
 192 0 l 1,4,-1
 316 397 l 1,5,-1
 0 640 l 1,6,-1
 392 640 l 1,7,-1
 512 1024 l 1,8,-1
 632 640 l 1,9,-1
 1024 640 l 1,10,-1
 1024 640 l 1,0,-1
EndSplineSet
EndChar

StartChar: uniF002
Encoding: 61442 61442 4
Width: 1024
Flags: W
LayerCount: 2
Fore
SplineSet
708 397 m 1,0,-1
 832 0 l 1,1,-1
 512 246 l 1,2,-1
 192 0 l 1,3,-1
 316 397 l 1,4,-1
 0 640 l 1,5,-1
 392 640 l 1,6,-1
 512 1024 l 1,7,-1
 632 640 l 1,8,-1
 1024 640 l 1,9,-1
 708 397 l 1,0,-1
710 174 m 1,10,11
 691 236 691 236 672.5 297 c 128,-1,12
 654 358 654 358 634 420 c 1,13,14
 686 458 686 458 735.5 497.5 c 128,-1,15
 785 537 785 537 836 576 c 1,16,-1
 585 576 l 1,17,-1
 512 810 l 1,18,-1
 439 576 l 1,19,-1
 188 576 l 1,20,21
 239 537 239 537 289 498 c 0,22,23
 338 458 338 458 390 420 c 1,24,25
 370 358 370 358 351 297 c 128,-1,26
 332 236 332 236 314 174 c 1,27,-1
 512 327 l 1,28,-1
 710 174 l 1,10,11
EndSplineSet
EndChar

StartChar: uniF003
Encoding: 61443 61443 5
Width: 1024
Flags: W
LayerCount: 2
Fore
SplineSet
392 640 m 1,0,-1
 512 1024 l 1,1,-1
 512 246 l 1,2,-1
 192 0 l 1,3,-1
 316 397 l 1,4,-1
 0 640 l 1,5,-1
 392 640 l 1,6,-1
 392 640 l 1,0,-1
EndSplineSet
EndChar

StartChar: uniF004
Encoding: 61444 61444 6
Width: 1024
Flags: W
LayerCount: 2
Fore
SplineSet
1024 640 m 1,0,-1
 708 397 l 1,1,-1
 832 0 l 1,2,-1
 512 246 l 1,3,-1
 512 1024 l 1,4,-1
 632 640 l 1,5,-1
 1024 640 l 1,6,-1
 1024 640 l 1,0,-1
EndSplineSet
EndChar

StartChar: uniF005
Encoding: 61445 61445 7
Width: 1024
Flags: W
LayerCount: 2
Fore
SplineSet
804 528 m 0,0,1
 742 528 742 528 687 506 c 128,-1,2
 632 484 632 484 591 445 c 128,-1,3
 550 406 550 406 525 352 c 128,-1,4
 500 298 500 298 497 234 c 1,5,-1
 192 0 l 1,6,-1
 316 397 l 1,7,-1
 0 640 l 1,8,-1
 392 640 l 1,9,-1
 512 1024 l 1,10,-1
 632 640 l 1,11,-1
 1024 640 l 1,12,-1
 868 520 l 1,13,14
 852 524 852 524 836 526 c 128,-1,15
 820 528 820 528 804 528 c 0,0,1
800 448 m 256,16,17
 846 448 846 448 887 430 c 128,-1,18
 928 412 928 412 958 382 c 128,-1,19
 988 352 988 352 1006 311 c 128,-1,20
 1024 270 1024 270 1024 224 c 256,21,22
 1024 178 1024 178 1006 137 c 128,-1,23
 988 96 988 96 958 66 c 128,-1,24
 928 36 928 36 887 18 c 128,-1,25
 846 0 846 0 800 0 c 256,26,27
 754 0 754 0 713 18 c 128,-1,28
 672 36 672 36 642 66 c 128,-1,29
 612 96 612 96 594 137 c 128,-1,30
 576 178 576 178 576 224 c 256,31,32
 576 270 576 270 594 311 c 128,-1,33
 612 352 612 352 642 382 c 128,-1,34
 672 412 672 412 713 430 c 128,-1,35
 754 448 754 448 800 448 c 256,16,17
640 224 m 0,36,37
 640 191 640 191 653 162 c 128,-1,38
 666 133 666 133 687.5 111.5 c 128,-1,39
 709 90 709 90 738 77 c 128,-1,40
 767 64 767 64 800 64 c 0,41,42
 824 64 824 64 846 71 c 128,-1,43
 868 78 868 78 888 90 c 1,44,-1
 666 312 l 1,45,46
 653 292 653 292 646.5 270 c 128,-1,47
 640 248 640 248 640 224 c 0,36,37
934 136 m 1,48,49
 947 156 947 156 953.5 178 c 128,-1,50
 960 200 960 200 960 224 c 0,51,52
 960 257 960 257 947 286 c 128,-1,53
 934 315 934 315 912.5 336.5 c 128,-1,54
 891 358 891 358 862 371 c 128,-1,55
 833 384 833 384 800 384 c 0,56,57
 776 384 776 384 754 377 c 128,-1,58
 732 370 732 370 712 358 c 1,59,-1
 934 136 l 1,48,49
EndSplineSet
EndChar

StartChar: uniF006
Encoding: 61446 61446 8
Width: 1024
Flags: W
LayerCount: 2
Fore
SplineSet
752 960 m 0,0,1
 808 960 808 960 858 938.5 c 128,-1,2
 908 917 908 917 945 880.5 c 128,-1,3
 982 844 982 844 1003 794 c 128,-1,4
 1024 744 1024 744 1024 688 c 0,5,6
 1024 634 1024 634 1003 584 c 128,-1,7
 982 534 982 534 944 496 c 2,8,-1
 512 64 l 1,9,-1
 80 496 l 2,10,11
 42 534 42 534 21 584 c 128,-1,12
 0 634 0 634 0 688 c 0,13,14
 0 744 0 744 21 794 c 128,-1,15
 42 844 42 844 79 880.5 c 128,-1,16
 116 917 116 917 166 938.5 c 128,-1,17
 216 960 216 960 272 960 c 0,18,19
 314 960 314 960 346 950.5 c 128,-1,20
 378 941 378 941 406 924.5 c 128,-1,21
 434 908 434 908 459 884 c 128,-1,22
 484 860 484 860 512 832 c 1,23,24
 540 860 540 860 565 884 c 128,-1,25
 590 908 590 908 618 924.5 c 128,-1,26
 646 941 646 941 678 950.5 c 128,-1,27
 710 960 710 960 752 960 c 0,0,1
899 541 m 2,28,29
 929 571 929 571 944.5 608.5 c 128,-1,30
 960 646 960 646 960 688 c 0,31,32
 960 732 960 732 944 769.5 c 128,-1,33
 928 807 928 807 899.5 834.5 c 128,-1,34
 871 862 871 862 833.5 878 c 128,-1,35
 796 894 796 894 752 894 c 0,36,37
 710 894 710 894 677.5 881 c 128,-1,38
 645 868 645 868 617.5 846 c 128,-1,39
 590 824 590 824 565 797 c 128,-1,40
 540 770 540 770 512 742 c 1,41,42
 485 769 485 769 459.5 796.5 c 128,-1,43
 434 824 434 824 406 846 c 128,-1,44
 378 868 378 868 345.5 882 c 128,-1,45
 313 896 313 896 272 896 c 0,46,47
 229 896 229 896 191 880 c 128,-1,48
 153 864 153 864 124.5 835.5 c 128,-1,49
 96 807 96 807 80 769 c 128,-1,50
 64 731 64 731 64 688 c 0,51,52
 64 646 64 646 80 608 c 128,-1,53
 96 570 96 570 125 541 c 2,54,-1
 512 154 l 1,55,-1
 899 541 l 2,28,29
EndSplineSet
EndChar

StartChar: uniF007
Encoding: 61447 61447 9
Width: 1024
Flags: W
LayerCount: 2
Fore
SplineSet
752 960 m 128,-1,1
 808 960 808 960 858 939 c 128,-1,2
 908 918 908 918 945 881 c 128,-1,3
 982 844 982 844 1003 794.5 c 0,4,5
 1024 744 1024 744 1024 688 c 0,6,7
 1024 634 1024 634 1003 584 c 128,-1,8
 982 534 982 534 944 496 c 2,9,-1
 512 64 l 1,10,-1
 80 496 l 2,11,12
 42 534 42 534 21 584 c 128,-1,13
 0 634 0 634 0 688 c 0,14,15
 0 744 0 744 21 794 c 128,-1,16
 42 844 42 844 79 881 c 128,-1,17
 116 918 116 918 166 939 c 128,-1,18
 216 960 216 960 272 960 c 128,-1,19
 328 960 328 960 376.5 940 c 0,20,21
 424 920 424 920 464 881 c 0,22,23
 476 869 476 869 488 857.5 c 128,-1,24
 500 846 500 846 512 834 c 1,25,26
 524 846 524 846 536 858 c 128,-1,27
 548 870 548 870 560 881 c 0,28,29
 600 920 600 920 648 940 c 128,-1,0
 696 960 696 960 752 960 c 128,-1,1
899 542 m 2,30,31
 929 572 929 572 944.5 609.5 c 0,32,33
 960 646 960 646 960 688 c 0,34,35
 960 732 960 732 943.5 770 c 128,-1,36
 927 808 927 808 899 836 c 128,-1,37
 871 864 871 864 833.5 880 c 128,-1,38
 796 896 796 896 752 896 c 0,39,40
 710 896 710 896 672.5 881 c 128,-1,41
 635 866 635 866 605 836 c 0,42,43
 572 804 572 804 541 771 c 128,-1,44
 510 738 510 738 478 704 c 1,45,-1
 670 512 l 1,46,-1
 518 362 l 1,47,-1
 474 407 l 1,48,49
 474 406 474 406 579 512 c 1,50,-1
 387 704 l 1,51,52
 386 704 386 704 468 786 c 1,53,54
 455 798 455 798 443.5 811 c 128,-1,55
 432 824 432 824 419 836 c 0,56,57
 389 866 389 866 351.5 881 c 128,-1,58
 314 896 314 896 272 896 c 0,59,60
 228 896 228 896 190.5 880 c 128,-1,61
 153 864 153 864 124.5 836 c 128,-1,62
 96 808 96 808 80 770 c 128,-1,63
 64 732 64 732 64 688 c 0,64,65
 64 647 64 647 80 608.5 c 128,-1,66
 96 570 96 570 125 542 c 2,67,-1
 512 154 l 1,68,-1
 899 542 l 2,30,31
EndSplineSet
EndChar

StartChar: uniF008
Encoding: 61448 61448 10
Width: 1024
Flags: W
LayerCount: 2
Fore
SplineSet
944 880 m 0,0,1
 970 854 970 854 988 822.5 c 128,-1,2
 1006 791 1006 791 1015 757 c 128,-1,3
 1024 723 1024 723 1024 687.5 c 128,-1,4
 1024 652 1024 652 1015 618.5 c 128,-1,5
 1006 585 1006 585 988.5 553.5 c 0,6,7
 970 522 970 522 944 496 c 2,8,-1
 512 64 l 1,9,-1
 80 496 l 2,10,11
 54 522 54 522 36 553.5 c 128,-1,12
 18 585 18 585 9 618.5 c 128,-1,13
 0 652 0 652 0 687.5 c 128,-1,14
 0 723 0 723 9 757 c 128,-1,15
 18 791 18 791 35.5 822.5 c 0,16,17
 54 854 54 854 80 880 c 0,18,19
 119 918 119 918 168.5 939 c 128,-1,20
 218 960 218 960 272 960 c 256,21,22
 326 960 326 960 376 939.5 c 0,23,24
 426 918 426 918 464 880 c 2,25,-1
 512 832 l 1,26,-1
 560 880 l 2,27,28
 599 918 599 918 648.5 939 c 128,-1,29
 698 960 698 960 752 960 c 256,30,31
 806 960 806 960 855.5 939 c 128,-1,32
 905 918 905 918 944 880 c 0,0,1
EndSplineSet
EndChar

StartChar: uniF009
Encoding: 61449 61449 11
Width: 1024
Flags: W
LayerCount: 2
Fore
SplineSet
752 960 m 128,-1,1
 790 960 790 960 825 950 c 128,-1,2
 860 940 860 940 890 923 c 128,-1,3
 920 906 920 906 945 881 c 128,-1,4
 970 856 970 856 987 826 c 128,-1,5
 1004 796 1004 796 1014 761 c 128,-1,6
 1024 726 1024 726 1024 688 c 0,7,8
 1024 634 1024 634 1003 584 c 128,-1,9
 982 534 982 534 944 496 c 2,10,-1
 512 64 l 1,11,-1
 80 496 l 2,12,13
 42 534 42 534 21 584 c 128,-1,14
 0 634 0 634 0 688 c 0,15,16
 0 726 0 726 10 761 c 128,-1,17
 20 796 20 796 37 826 c 128,-1,18
 54 856 54 856 79 881 c 128,-1,19
 104 906 104 906 134 923 c 128,-1,20
 164 940 164 940 199 950 c 128,-1,21
 234 960 234 960 272 960 c 0,22,23
 326 960 326 960 377 938.5 c 0,24,25
 428 918 428 918 466 878 c 1,26,-1
 326 736 l 1,27,-1
 550 512 l 1,28,-1
 402 366 l 1,29,-1
 448 320 l 1,30,-1
 640 512 l 1,31,-1
 416 736 l 1,32,33
 440 760 440 760 464 786.5 c 128,-1,34
 488 813 488 813 513 837.5 c 128,-1,35
 538 862 538 862 564 884.5 c 128,-1,36
 590 907 590 907 619 923.5 c 128,-1,37
 648 940 648 940 681 950 c 128,-1,0
 714 960 714 960 752 960 c 128,-1,1
EndSplineSet
EndChar

StartChar: uniF00A
Encoding: 61450 61450 12
Width: 1024
Flags: W
LayerCount: 2
Fore
SplineSet
174 512 m 1,0,-1
 154 512 l 1,1,-1
 512 154 l 1,2,-1
 806 448 l 1,3,-1
 896 448 l 1,4,-1
 512 64 l 1,5,-1
 80 496 l 2,6,7
 62 514 62 514 48.5 534 c 128,-1,8
 35 554 35 554 25 576 c 1,9,10
 24 576 24 576 146 576 c 1,11,-1
 288 717 l 1,12,13
 288 718 288 718 512 494 c 1,14,-1
 672 653 l 1,15,-1
 750 576 l 1,16,-1
 927 576 l 1,17,18
 943 602 943 602 951.5 630 c 128,-1,19
 960 658 960 658 960 688 c 0,20,21
 960 732 960 732 944 769.5 c 128,-1,22
 928 807 928 807 899.5 834.5 c 128,-1,23
 871 862 871 862 833.5 878 c 128,-1,24
 796 894 796 894 752 894 c 0,25,26
 710 894 710 894 677.5 881 c 128,-1,27
 645 868 645 868 617.5 846 c 128,-1,28
 590 824 590 824 565 797 c 128,-1,29
 540 770 540 770 512 742 c 1,30,31
 485 769 485 769 459.5 796.5 c 128,-1,32
 434 824 434 824 406 846 c 128,-1,33
 378 868 378 868 345.5 882 c 128,-1,34
 313 896 313 896 272 896 c 0,35,36
 229 896 229 896 191.5 880 c 128,-1,37
 154 864 154 864 125.5 835.5 c 128,-1,38
 97 807 97 807 80.5 769.5 c 128,-1,39
 64 732 64 732 64 688 c 0,40,41
 64 664 64 664 70 640 c 1,42,-1
 4 640 l 1,43,44
 2 652 2 652 1 664 c 128,-1,45
 0 676 0 676 0 688 c 0,46,47
 0 744 0 744 21.5 794 c 128,-1,48
 43 844 43 844 79.5 881 c 128,-1,49
 116 918 116 918 166 939 c 128,-1,50
 216 960 216 960 272 960 c 0,51,52
 314 960 314 960 346 950.5 c 128,-1,53
 378 941 378 941 406 924.5 c 128,-1,54
 434 908 434 908 459 884 c 128,-1,55
 484 860 484 860 512 832 c 1,56,57
 540 860 540 860 565 884 c 128,-1,58
 590 908 590 908 618 924.5 c 128,-1,59
 646 941 646 941 678 950.5 c 128,-1,60
 710 960 710 960 752 960 c 0,61,62
 808 960 808 960 857.5 939 c 128,-1,63
 907 918 907 918 943.5 881 c 128,-1,64
 980 844 980 844 1001.5 795 c 128,-1,65
 1023 746 1023 746 1023 690 c 0,66,67
 1023 642 1023 642 1006 596 c 0,68,69
 990 550 990 550 958 512 c 1,70,-1
 722 512 l 1,71,-1
 672 563 l 1,72,73
 672 562 672 562 512 402 c 1,74,-1
 288 627 l 1,75,-1
 174 512 l 1,0,-1
EndSplineSet
EndChar

StartChar: uniF00B
Encoding: 61451 61451 13
Width: 1024
Flags: W
LayerCount: 2
Fore
SplineSet
1024 856 m 0,0,1
 1024 823 1024 823 1011.5 792.5 c 128,-1,2
 999 762 999 762 975 738 c 2,3,4
 974 738 974 738 316 79 c 1,5,-1
 0 0 l 1,6,-1
 79 316 l 1,7,8
 80 316 80 316 738 975 c 2,9,10
 762 999 762 999 793 1011.5 c 128,-1,11
 824 1024 824 1024 856 1024 c 0,12,13
 890 1024 890 1024 921 1011 c 128,-1,14
 952 998 952 998 975 975 c 128,-1,15
 998 952 998 952 1011 921 c 128,-1,16
 1024 890 1024 890 1024 856 c 0,0,1
163 310 m 1,17,18
 216 292 216 292 254 254 c 128,-1,19
 292 216 292 216 310 163 c 1,20,-1
 850 704 l 1,21,-1
 704 850 l 1,22,-1
 163 310 l 1,17,18
88 88 m 1,23,-1
 252 129 l 1,24,25
 247 152 247 152 236 172.5 c 128,-1,26
 225 193 225 193 209 209 c 128,-1,27
 193 225 193 225 172.5 236.5 c 128,-1,28
 152 248 152 248 129 252 c 1,29,-1
 88 88 l 1,23,-1
896 750 m 1,30,31
 908 762 908 762 920 773 c 128,-1,32
 932 784 932 784 941 796 c 128,-1,33
 950 808 950 808 955 822.5 c 128,-1,34
 960 837 960 837 960 856 c 0,35,36
 960 878 960 878 952 896.5 c 128,-1,37
 944 915 944 915 929.5 929.5 c 128,-1,38
 915 944 915 944 896.5 952 c 128,-1,39
 878 960 878 960 856 960 c 0,40,41
 837 960 837 960 822.5 955 c 128,-1,42
 808 950 808 950 796 941 c 128,-1,43
 784 932 784 932 773 920 c 128,-1,44
 762 908 762 908 750 896 c 1,45,-1
 896 750 l 1,30,31
EndSplineSet
EndChar

StartChar: uniF00C
Encoding: 61452 61452 14
Width: 1024
Flags: W
LayerCount: 2
Fore
SplineSet
896 960 m 2,0,1
 910 960 910 960 921 955 c 128,-1,2
 932 950 932 950 941 941 c 128,-1,3
 950 932 950 932 955 921 c 128,-1,4
 960 910 960 910 960 896 c 2,5,-1
 960 64 l 1,6,-1
 178 64 l 1,7,-1
 64 179 l 1,8,-1
 64 896 l 2,9,10
 64 910 64 910 69 921 c 128,-1,11
 74 932 74 932 83 941 c 128,-1,12
 92 950 92 950 103 955 c 128,-1,13
 114 960 114 960 128 960 c 2,14,-1
 896 960 l 2,0,1
256 576 m 1,15,-1
 768 576 l 1,16,-1
 768 896 l 1,17,-1
 256 896 l 1,18,-1
 256 576 l 1,15,-1
640 320 m 1,19,-1
 320 320 l 1,20,-1
 320 128 l 1,21,-1
 384 128 l 1,22,-1
 384 256 l 1,23,-1
 448 256 l 1,24,-1
 448 128 l 1,25,-1
 640 128 l 1,26,-1
 640 320 l 1,19,-1
896 896 m 1,27,-1
 832 896 l 1,28,-1
 832 512 l 1,29,-1
 192 512 l 1,30,-1
 192 896 l 1,31,-1
 128 896 l 1,32,-1
 128 206 l 1,33,-1
 205 128 l 1,34,-1
 256 128 l 1,35,-1
 256 384 l 1,36,-1
 704 384 l 1,37,-1
 704 128 l 1,38,-1
 896 128 l 1,39,-1
 896 896 l 1,27,-1
EndSplineSet
EndChar

StartChar: uniF00D
Encoding: 61453 61453 15
Width: 1024
Flags: W
LayerCount: 2
Fore
SplineSet
896 832 m 1,0,-1
 832 832 l 1,1,-1
 832 96 l 2,2,3
 832 76 832 76 824.5 58.5 c 128,-1,4
 817 41 817 41 804 28 c 128,-1,5
 791 15 791 15 773.5 7.5 c 128,-1,6
 756 0 756 0 736 0 c 2,7,-1
 224 0 l 2,8,9
 204 0 204 0 186.5 7.5 c 128,-1,10
 169 15 169 15 156 28 c 128,-1,11
 143 41 143 41 135.5 58.5 c 128,-1,12
 128 76 128 76 128 96 c 2,13,-1
 128 832 l 1,14,-1
 64 832 l 1,15,-1
 64 896 l 1,16,-1
 320 896 l 1,17,-1
 320 960 l 2,18,19
 320 974 320 974 325 985 c 128,-1,20
 330 996 330 996 339 1005 c 128,-1,21
 348 1014 348 1014 359 1019 c 128,-1,22
 370 1024 370 1024 384 1024 c 2,23,-1
 576 1024 l 2,24,25
 590 1024 590 1024 601 1019 c 128,-1,26
 612 1014 612 1014 621 1005 c 128,-1,27
 630 996 630 996 635 985 c 128,-1,28
 640 974 640 974 640 960 c 2,29,-1
 640 896 l 1,30,-1
 896 896 l 1,31,-1
 896 832 l 1,0,-1
384 896 m 1,32,-1
 576 896 l 1,33,-1
 576 960 l 1,34,-1
 384 960 l 1,35,-1
 384 896 l 1,32,-1
768 832 m 1,36,-1
 192 832 l 1,37,-1
 192 96 l 2,38,39
 192 83 192 83 201.5 73.5 c 128,-1,40
 211 64 211 64 224 64 c 2,41,-1
 736 64 l 2,42,43
 749 64 749 64 758.5 73.5 c 128,-1,44
 768 83 768 83 768 96 c 2,45,-1
 768 832 l 1,36,-1
384 192 m 1,46,-1
 320 192 l 1,47,-1
 320 704 l 1,48,-1
 384 704 l 1,49,-1
 384 192 l 1,46,-1
512 192 m 1,50,-1
 448 192 l 1,51,-1
 448 704 l 1,52,-1
 512 704 l 1,53,-1
 512 192 l 1,50,-1
640 192 m 1,54,-1
 576 192 l 1,55,-1
 576 704 l 1,56,-1
 640 704 l 1,57,-1
 640 192 l 1,54,-1
EndSplineSet
EndChar

StartChar: uniF00E
Encoding: 61454 61454 16
Width: 1024
Flags: W
LayerCount: 2
Fore
SplineSet
686 832 m 1,0,-1
 960 558 l 1,1,-1
 960 0 l 1,2,-1
 320 0 l 1,3,-1
 320 192 l 1,4,-1
 64 192 l 1,5,-1
 64 1024 l 1,6,-1
 430 1024 l 1,7,-1
 622 832 l 1,8,-1
 686 832 l 1,0,-1
704 722 m 1,9,-1
 704 576 l 1,10,-1
 850 576 l 1,11,-1
 704 722 l 1,9,-1
128 256 m 1,12,-1
 320 256 l 1,13,-1
 320 832 l 1,14,-1
 530 832 l 1,15,-1
 402 960 l 1,16,-1
 128 960 l 1,17,-1
 128 256 l 1,12,-1
384 64 m 1,18,-1
 896 64 l 1,19,-1
 896 512 l 1,20,-1
 640 512 l 1,21,-1
 640 768 l 1,22,-1
 384 768 l 1,23,-1
 384 64 l 1,18,-1
EndSplineSet
EndChar

StartChar: uniF00F
Encoding: 61455 61455 17
Width: 1024
Flags: W
LayerCount: 2
Fore
SplineSet
708 256 m 1,0,1
 734 255 734 255 756.5 244.5 c 128,-1,2
 779 234 779 234 795.5 217 c 128,-1,3
 812 200 812 200 822 177 c 128,-1,4
 832 154 832 154 832 128 c 128,-1,5
 832 102 832 102 822 78.5 c 128,-1,6
 812 55 812 55 794.5 37.5 c 128,-1,7
 777 20 777 20 753.5 10 c 128,-1,8
 730 0 730 0 704 0 c 128,-1,9
 678 0 678 0 654.5 10 c 128,-1,10
 631 20 631 20 613.5 37.5 c 128,-1,11
 596 55 596 55 586 78.5 c 128,-1,12
 576 102 576 102 576 128 c 0,13,14
 576 164 576 164 594 194 c 128,-1,15
 612 224 612 224 644 241 c 1,16,17
 644 240 644 240 511 506 c 1,18,19
 510 506 510 506 378 242 c 1,20,21
 394 234 394 234 407 222 c 128,-1,22
 420 210 420 210 429 195 c 128,-1,23
 438 180 438 180 443 163 c 128,-1,24
 448 146 448 146 448 128 c 0,25,26
 448 102 448 102 438 78.5 c 128,-1,27
 428 55 428 55 410.5 37.5 c 128,-1,28
 393 20 393 20 369.5 10 c 128,-1,29
 346 0 346 0 320 0 c 128,-1,30
 294 0 294 0 270.5 10 c 128,-1,31
 247 20 247 20 229.5 37.5 c 128,-1,32
 212 55 212 55 202 78.5 c 128,-1,33
 192 102 192 102 192 128 c 128,-1,34
 192 154 192 154 201.5 176.5 c 128,-1,35
 211 199 211 199 227.5 216.5 c 128,-1,36
 244 234 244 234 266 244 c 128,-1,37
 288 254 288 254 314 256 c 1,38,-1
 475 579 l 1,39,40
 476 579 476 579 306 918 c 1,41,-1
 334 1006 l 1,42,-1
 511 652 l 1,43,44
 512 652 512 652 688 1006 c 1,45,-1
 716 918 l 1,46,-1
 547 579 l 1,47,-1
 708 256 l 1,0,1
320 64 m 256,48,49
 334 64 334 64 345 69 c 128,-1,50
 356 74 356 74 365 83 c 128,-1,51
 374 92 374 92 379 103 c 128,-1,52
 384 114 384 114 384 128 c 256,53,54
 384 142 384 142 379 153 c 128,-1,55
 374 164 374 164 365 173 c 128,-1,56
 356 182 356 182 345 187 c 128,-1,57
 334 192 334 192 320 192 c 256,58,59
 306 192 306 192 295 187 c 128,-1,60
 284 182 284 182 275 173 c 128,-1,61
 266 164 266 164 261 153 c 128,-1,62
 256 142 256 142 256 128 c 256,63,64
 256 114 256 114 261 103 c 128,-1,65
 266 92 266 92 275 83 c 128,-1,66
 284 74 284 74 295 69 c 128,-1,67
 306 64 306 64 320 64 c 256,48,49
704 64 m 256,68,69
 718 64 718 64 729 69 c 128,-1,70
 740 74 740 74 749 83 c 128,-1,71
 758 92 758 92 763 103 c 128,-1,72
 768 114 768 114 768 128 c 256,73,74
 768 142 768 142 763 153 c 128,-1,75
 758 164 758 164 749 173 c 128,-1,76
 740 182 740 182 729 187 c 128,-1,77
 718 192 718 192 704 192 c 256,78,79
 690 192 690 192 679 187 c 128,-1,80
 668 182 668 182 659 173 c 128,-1,81
 650 164 650 164 645 153 c 128,-1,82
 640 142 640 142 640 128 c 256,83,84
 640 114 640 114 645 103 c 128,-1,85
 650 92 650 92 659 83 c 128,-1,86
 668 74 668 74 679 69 c 128,-1,87
 690 64 690 64 704 64 c 256,68,69
EndSplineSet
EndChar

StartChar: uniF010
Encoding: 61456 61456 18
Width: 1024
Flags: W
LayerCount: 2
Fore
SplineSet
892 63 m 5,0,-1
 738 63 l 5,1,2
 738 64 738 64 588 64 c 5,3,-1
 508 64 l 5,4,-1
 124 64 l 5,5,-1
 124 896 l 5,6,-1
 380 896 l 5,7,8
 380 922 380 922 390 945.5 c 132,-1,9
 400 969 400 969 417 986.5 c 132,-1,10
 434 1004 434 1004 457.5 1014 c 4,11,12
 482 1024 482 1024 508 1024 c 132,-1,13
 534 1024 534 1024 557 1014 c 132,-1,14
 580 1004 580 1004 597.5 986.5 c 132,-1,15
 615 969 615 969 625.5 945.5 c 132,-1,16
 636 922 636 922 636 896 c 5,17,-1
 892 896 l 5,18,-1
 892 640 l 5,19,-1
 892 63 l 5,0,-1
316 832 m 5,20,-1
 316 768 l 5,21,-1
 700 768 l 5,22,-1
 700 832 l 5,23,-1
 572 832 l 5,24,25
 572 844 572 844 572 858.5 c 132,-1,26
 572 873 572 873 571 887.5 c 132,-1,27
 570 902 570 902 567 915 c 132,-1,28
 564 928 564 928 557 938 c 132,-1,29
 550 948 550 948 538 954 c 132,-1,30
 526 960 526 960 508 960 c 4,31,32
 480 960 480 960 466.5 947 c 132,-1,33
 453 934 453 934 447.5 915 c 132,-1,34
 442 896 442 896 443 873 c 132,-1,35
 444 850 444 850 444 832 c 5,36,-1
 316 832 l 5,20,-1
508 128 m 5,37,-1
 828 128 l 5,38,-1
 828 640 l 5,39,-1
 828 832 l 5,40,-1
 764 832 l 5,41,-1
 764 704 l 5,42,-1
 252 704 l 5,43,-1
 252 832 l 5,44,-1
 188 832 l 5,45,-1
 188 128 l 5,46,-1
 508 128 l 5,37,-1
EndSplineSet
EndChar

StartChar: uniF011
Encoding: 61457 61457 19
Width: 1024
Flags: W
LayerCount: 2
Fore
SplineSet
960 640 m 1,0,-1
 960 0 l 1,1,-1
 448 0 l 1,2,-1
 448 64 l 1,3,-1
 64 64 l 1,4,-1
 64 896 l 1,5,-1
 320 896 l 1,6,7
 320 922 320 922 330 945.5 c 128,-1,8
 340 969 340 969 357.5 986.5 c 128,-1,9
 375 1004 375 1004 398.5 1014 c 128,-1,10
 422 1024 422 1024 448 1024 c 0,11,12
 474 1024 474 1024 497.5 1014 c 128,-1,13
 521 1004 521 1004 538.5 986.5 c 128,-1,14
 556 969 556 969 566 945.5 c 128,-1,15
 576 922 576 922 576 896 c 1,16,-1
 832 896 l 1,17,-1
 832 640 l 1,18,-1
 960 640 l 1,0,-1
256 832 m 1,19,-1
 256 768 l 1,20,-1
 640 768 l 1,21,-1
 640 832 l 1,22,-1
 512 832 l 1,23,24
 512 844 512 844 512.5 858.5 c 128,-1,25
 513 873 513 873 512 887.5 c 128,-1,26
 511 902 511 902 507.5 915 c 128,-1,27
 504 928 504 928 497 938 c 128,-1,28
 490 948 490 948 478 954 c 128,-1,29
 466 960 466 960 448 960 c 0,30,31
 420 960 420 960 407 947 c 128,-1,32
 394 934 394 934 388.5 915 c 128,-1,33
 383 896 383 896 383.5 873 c 128,-1,34
 384 850 384 850 384 832 c 1,35,-1
 256 832 l 1,19,-1
448 128 m 1,36,-1
 448 640 l 1,37,-1
 768 640 l 1,38,-1
 768 832 l 1,39,-1
 704 832 l 1,40,-1
 704 704 l 1,41,-1
 192 704 l 1,42,-1
 192 832 l 1,43,-1
 128 832 l 1,44,-1
 128 128 l 1,45,-1
 448 128 l 1,36,-1
896 576 m 1,46,-1
 512 576 l 1,47,-1
 512 64 l 1,48,-1
 896 64 l 1,49,-1
 896 576 l 1,46,-1
EndSplineSet
EndChar

StartChar: uniF012
Encoding: 61458 61458 20
Width: 1024
Flags: W
LayerCount: 2
Fore
SplineSet
0 960 m 1,0,-1
 1024 960 l 1,1,-1
 1024 850 l 1,2,-1
 640 466 l 1,3,-1
 640 64 l 1,4,-1
 384 64 l 1,5,-1
 384 466 l 1,6,-1
 0 850 l 1,7,-1
 0 960 l 1,0,-1
960 878 m 1,8,-1
 960 896 l 1,9,-1
 64 896 l 1,10,-1
 64 878 l 1,11,-1
 448 494 l 1,12,-1
 448 128 l 1,13,-1
 576 128 l 1,14,-1
 576 494 l 1,15,-1
 960 878 l 1,8,-1
EndSplineSet
EndChar

StartChar: uniF013
Encoding: 61459 61459 21
Width: 1024
Flags: W
LayerCount: 2
Fore
SplineSet
768 832 m 1,0,-1
 768 224 l 2,1,2
 768 178 768 178 750 137 c 128,-1,3
 732 96 732 96 702 66 c 128,-1,4
 672 36 672 36 631 18 c 128,-1,5
 590 0 590 0 544 0 c 256,6,7
 498 0 498 0 457 18 c 128,-1,8
 416 36 416 36 386 66 c 128,-1,9
 356 96 356 96 338 137 c 128,-1,10
 320 178 320 178 320 224 c 2,11,-1
 320 864 l 2,12,13
 320 897 320 897 333 926 c 128,-1,14
 346 955 346 955 367.5 976.5 c 128,-1,15
 389 998 389 998 418 1011 c 128,-1,16
 447 1024 447 1024 480 1024 c 256,17,18
 513 1024 513 1024 542 1011 c 128,-1,19
 571 998 571 998 592.5 976.5 c 128,-1,20
 614 955 614 955 627 926 c 128,-1,21
 640 897 640 897 640 864 c 2,22,-1
 640 224 l 2,23,24
 640 204 640 204 632.5 186.5 c 128,-1,25
 625 169 625 169 612 156 c 128,-1,26
 599 143 599 143 581.5 135.5 c 128,-1,27
 564 128 564 128 544 128 c 256,28,29
 524 128 524 128 506.5 135.5 c 128,-1,30
 489 143 489 143 476 156 c 128,-1,31
 463 169 463 169 455.5 186.5 c 128,-1,32
 448 204 448 204 448 224 c 2,33,-1
 448 768 l 1,34,-1
 512 768 l 1,35,-1
 512 224 l 2,36,37
 512 211 512 211 521.5 201.5 c 128,-1,38
 531 192 531 192 544 192 c 256,39,40
 557 192 557 192 566.5 201.5 c 128,-1,41
 576 211 576 211 576 224 c 2,42,-1
 576 864 l 2,43,44
 576 884 576 884 568.5 901.5 c 128,-1,45
 561 919 561 919 548 932 c 128,-1,46
 535 945 535 945 517.5 952.5 c 128,-1,47
 500 960 500 960 480 960 c 256,48,49
 460 960 460 960 442.5 952.5 c 128,-1,50
 425 945 425 945 412 932 c 128,-1,51
 399 919 399 919 391.5 901.5 c 128,-1,52
 384 884 384 884 384 864 c 2,53,-1
 384 224 l 2,54,55
 384 191 384 191 397 162 c 128,-1,56
 410 133 410 133 431.5 111.5 c 128,-1,57
 453 90 453 90 482 77 c 128,-1,58
 511 64 511 64 544 64 c 256,59,60
 577 64 577 64 606 77 c 128,-1,61
 635 90 635 90 656.5 111.5 c 128,-1,62
 678 133 678 133 691 162 c 128,-1,63
 704 191 704 191 704 224 c 2,64,-1
 704 832 l 1,65,-1
 768 832 l 1,0,-1
EndSplineSet
EndChar

StartChar: uniF014
Encoding: 61460 61460 22
Width: 1024
Flags: W
LayerCount: 2
Fore
SplineSet
1024 896 m 1,0,-1
 1024 128 l 1,1,-1
 0 128 l 1,2,-1
 0 896 l 1,3,-1
 1024 896 l 1,0,-1
64 832 m 1,4,-1
 64 494 l 1,5,-1
 288 717 l 1,6,-1
 608 397 l 1,7,-1
 736 525 l 1,8,9
 736 526 736 526 960 302 c 1,10,-1
 960 832 l 1,11,-1
 64 832 l 1,4,-1
64 192 m 1,12,-1
 722 192 l 1,13,-1
 288 627 l 1,14,15
 288 626 288 626 64 402 c 1,16,-1
 64 192 l 1,12,-1
960 192 m 1,17,-1
 960 210 l 1,18,-1
 736 435 l 1,19,-1
 653 352 l 1,20,21
 654 352 654 352 814 192 c 1,22,-1
 960 192 l 1,17,-1
800 640 m 256,23,24
 787 640 787 640 777.5 649.5 c 128,-1,25
 768 659 768 659 768 672 c 256,26,27
 768 685 768 685 777.5 694.5 c 128,-1,28
 787 704 787 704 800 704 c 256,29,30
 813 704 813 704 822.5 694.5 c 128,-1,31
 832 685 832 685 832 672 c 256,32,33
 832 659 832 659 822.5 649.5 c 128,-1,34
 813 640 813 640 800 640 c 256,23,24
EndSplineSet
EndChar

StartChar: uniF015
Encoding: 61461 61461 23
Width: 1024
Flags: W
LayerCount: 2
Fore
SplineSet
768 640 m 1,0,-1
 768 576 l 1,1,2
 806 576 806 576 841 567 c 128,-1,3
 876 558 876 558 902 539 c 128,-1,4
 928 520 928 520 944 490 c 128,-1,5
 960 460 960 460 960 416 c 0,6,7
 960 383 960 383 947 354 c 128,-1,8
 934 325 934 325 912.5 303.5 c 128,-1,9
 891 282 891 282 862 269 c 128,-1,10
 833 256 833 256 800 256 c 2,11,-1
 544 256 l 2,12,13
 511 256 511 256 482 269 c 128,-1,14
 453 282 453 282 431.5 303.5 c 128,-1,15
 410 325 410 325 397 354 c 128,-1,16
 384 383 384 383 384 416 c 0,17,18
 384 460 384 460 400 490 c 128,-1,19
 416 520 416 520 442 539 c 128,-1,20
 468 558 468 558 503 567 c 128,-1,21
 538 576 538 576 576 576 c 1,22,-1
 576 640 l 1,23,-1
 544 640 l 2,24,25
 498 640 498 640 457 622 c 128,-1,26
 416 604 416 604 386 574 c 128,-1,27
 356 544 356 544 338 503 c 128,-1,28
 320 462 320 462 320 416 c 256,29,30
 320 370 320 370 338 329 c 128,-1,31
 356 288 356 288 386 258 c 128,-1,32
 416 228 416 228 457 210 c 128,-1,33
 498 192 498 192 544 192 c 2,34,-1
 800 192 l 2,35,36
 846 192 846 192 887 210 c 128,-1,37
 928 228 928 228 958 258 c 128,-1,38
 988 288 988 288 1006 329 c 128,-1,39
 1024 370 1024 370 1024 416 c 256,40,41
 1024 462 1024 462 1006 503 c 128,-1,42
 988 544 988 544 958 574 c 128,-1,43
 928 604 928 604 887 622 c 128,-1,44
 846 640 846 640 800 640 c 2,45,-1
 768 640 l 1,0,-1
448 384 m 1,46,-1
 448 448 l 1,47,48
 486 448 486 448 521 457 c 128,-1,49
 556 466 556 466 582 485 c 128,-1,50
 608 504 608 504 624 534 c 128,-1,51
 640 564 640 564 640 608 c 0,52,53
 640 641 640 641 627 670 c 128,-1,54
 614 699 614 699 592.5 720.5 c 128,-1,55
 571 742 571 742 542 755 c 128,-1,56
 513 768 513 768 480 768 c 2,57,-1
 224 768 l 2,58,59
 191 768 191 768 162 755 c 128,-1,60
 133 742 133 742 111.5 720.5 c 128,-1,61
 90 699 90 699 77 670 c 128,-1,62
 64 641 64 641 64 608 c 0,63,64
 64 564 64 564 80 534 c 128,-1,65
 96 504 96 504 122 485 c 128,-1,66
 148 466 148 466 183 457 c 128,-1,67
 218 448 218 448 256 448 c 1,68,-1
 256 384 l 1,69,-1
 224 384 l 2,70,71
 178 384 178 384 137 402 c 128,-1,72
 96 420 96 420 66 450 c 128,-1,73
 36 480 36 480 18 521 c 128,-1,74
 0 562 0 562 0 608 c 256,75,76
 0 654 0 654 18 695 c 128,-1,77
 36 736 36 736 66 766 c 128,-1,78
 96 796 96 796 137 814 c 128,-1,79
 178 832 178 832 224 832 c 2,80,-1
 480 832 l 2,81,82
 526 832 526 832 567 814 c 128,-1,83
 608 796 608 796 638 766 c 128,-1,84
 668 736 668 736 686 695 c 128,-1,85
 704 654 704 654 704 608 c 256,86,87
 704 562 704 562 686 521 c 128,-1,88
 668 480 668 480 638 450 c 128,-1,89
 608 420 608 420 567 402 c 128,-1,90
 526 384 526 384 480 384 c 2,91,-1
 448 384 l 1,46,-1
EndSplineSet
EndChar

StartChar: uniF016
Encoding: 61462 61462 24
Width: 1024
Flags: W
LayerCount: 2
Fore
SplineSet
512 941 m 1,0,1
 512 940 512 940 982 470 c 1,2,-1
 938 426 l 1,3,-1
 896 466 l 1,4,-1
 896 64 l 1,5,-1
 640 64 l 1,6,-1
 640 384 l 1,7,-1
 384 384 l 1,8,-1
 384 64 l 1,9,-1
 128 64 l 1,10,-1
 128 466 l 1,11,-1
 86 426 l 1,12,-1
 42 470 l 1,13,-1
 512 941 l 1,14,-1
 512 941 l 1,0,1
EndSplineSet
EndChar

StartChar: uniF017
Encoding: 61463 61463 25
Width: 1024
Flags: W
LayerCount: 2
Fore
SplineSet
512 942 m 1,0,-1
 982 470 l 1,1,-1
 938 426 l 1,2,-1
 896 466 l 1,3,-1
 896 64 l 1,4,-1
 576 64 l 1,5,-1
 576 384 l 1,6,-1
 448 384 l 1,7,-1
 448 64 l 1,8,-1
 128 64 l 1,9,-1
 128 466 l 1,10,-1
 86 426 l 1,11,-1
 42 470 l 1,12,-1
 512 942 l 1,0,-1
832 128 m 1,13,-1
 832 530 l 1,14,-1
 512 850 l 1,15,-1
 192 530 l 1,16,-1
 192 128 l 1,17,-1
 384 128 l 1,18,-1
 384 448 l 1,19,-1
 640 448 l 1,20,-1
 640 128 l 1,21,-1
 832 128 l 1,13,-1
EndSplineSet
EndChar

StartChar: uniF018
Encoding: 61464 61464 26
Width: 1024
Flags: W
LayerCount: 2
Fore
SplineSet
672 1024 m 256,0,1
 720 1024 720 1024 765 1011.5 c 128,-1,2
 810 999 810 999 849 976 c 128,-1,3
 888 953 888 953 920.5 920.5 c 128,-1,4
 953 888 953 888 976 849 c 128,-1,5
 999 810 999 810 1011.5 765 c 128,-1,6
 1024 720 1024 720 1024 672 c 256,7,8
 1024 624 1024 624 1011.5 579 c 128,-1,9
 999 534 999 534 976 495 c 128,-1,10
 953 456 953 456 920.5 423.5 c 128,-1,11
 888 391 888 391 849 368 c 128,-1,12
 810 345 810 345 765 332.5 c 128,-1,13
 720 320 720 320 672 320 c 0,14,15
 610 320 610 320 552.5 341 c 128,-1,16
 495 362 495 362 447 402 c 1,17,18
 446 402 446 402 54 10 c 2,19,20
 44 0 44 0 32 0 c 256,21,22
 19 0 19 0 9.5 9.5 c 128,-1,23
 0 19 0 19 0 32 c 256,24,25
 0 44 0 44 10 54 c 2,26,-1
 402 447 l 1,27,28
 362 495 362 495 341 552.5 c 128,-1,29
 320 610 320 610 320 672 c 0,30,31
 320 720 320 720 332.5 765 c 128,-1,32
 345 810 345 810 368 849 c 128,-1,33
 391 888 391 888 423.5 920.5 c 128,-1,34
 456 953 456 953 495 976 c 128,-1,35
 534 999 534 999 579 1011.5 c 128,-1,36
 624 1024 624 1024 672 1024 c 256,0,1
672 384 m 256,37,38
 732 384 732 384 784 407 c 128,-1,39
 836 430 836 430 875 469 c 128,-1,40
 914 508 914 508 937 560 c 128,-1,41
 960 612 960 612 960 672 c 256,42,43
 960 732 960 732 937 784 c 128,-1,44
 914 836 914 836 875 875 c 128,-1,45
 836 914 836 914 784 937 c 128,-1,46
 732 960 732 960 672 960 c 256,47,48
 612 960 612 960 560 937 c 128,-1,49
 508 914 508 914 469 875 c 128,-1,50
 430 836 430 836 407 784 c 128,-1,51
 384 732 384 732 384 672 c 256,52,53
 384 612 384 612 407 560 c 128,-1,54
 430 508 430 508 469 469 c 128,-1,55
 508 430 508 430 560 407 c 128,-1,56
 612 384 612 384 672 384 c 256,37,38
EndSplineSet
EndChar

StartChar: uniF019
Encoding: 61465 61465 27
Width: 1024
Flags: W
LayerCount: 2
Fore
SplineSet
892 530 m 1,0,1
 892 526 892 526 892 521 c 128,-1,2
 892 516 892 516 892 512 c 256,3,4
 892 508 892 508 892 503 c 128,-1,5
 892 498 892 498 892 494 c 1,6,-1
 1021 414 l 1,7,8
 1022 414 1022 414 942 222 c 1,9,-1
 793 256 l 1,10,11
 781 243 781 243 768 231 c 1,12,13
 768 230 768 230 802 82 c 1,14,-1
 610 3 l 1,15,16
 610 2 610 2 530 132 c 1,17,18
 526 132 526 132 521 132 c 128,-1,19
 516 132 516 132 512 132 c 256,20,21
 508 132 508 132 503 132 c 128,-1,22
 498 132 498 132 494 132 c 1,23,-1
 414 3 l 1,24,25
 414 2 414 2 222 82 c 1,26,-1
 256 231 l 1,27,28
 243 243 243 243 231 256 c 1,29,30
 230 256 230 256 82 222 c 1,31,-1
 3 414 l 1,32,33
 2 414 2 414 132 494 c 1,34,35
 132 498 132 498 132 503 c 128,-1,36
 132 508 132 508 132 512 c 256,37,38
 132 516 132 516 132 521 c 128,-1,39
 132 526 132 526 132 530 c 1,40,-1
 3 610 l 1,41,42
 2 610 2 610 82 802 c 1,43,-1
 231 768 l 1,44,45
 243 781 243 781 256 793 c 1,46,47
 256 794 256 794 222 942 c 1,48,-1
 414 1021 l 1,49,50
 414 1022 414 1022 494 892 c 1,51,52
 498 892 498 892 503 892 c 128,-1,53
 508 892 508 892 512 892 c 256,54,55
 516 892 516 892 521 892 c 128,-1,56
 526 892 526 892 530 892 c 1,57,-1
 610 1021 l 1,58,59
 610 1022 610 1022 802 942 c 1,60,-1
 768 793 l 1,61,62
 781 781 781 781 793 768 c 1,63,64
 794 768 794 768 942 802 c 1,65,-1
 1021 610 l 1,66,-1
 892 530 l 1,0,1
833 465 m 1,67,68
 834 477 834 477 835 488.5 c 128,-1,69
 836 500 836 500 836 512 c 128,-1,70
 836 524 836 524 835 536 c 128,-1,71
 834 548 834 548 833 560 c 1,72,-1
 951 633 l 1,73,-1
 908 737 l 1,74,75
 908 738 908 738 772 706 c 1,76,77
 756 725 756 725 740 740.5 c 128,-1,78
 724 756 724 756 706 772 c 1,79,-1
 737 908 l 1,80,-1
 633 951 l 1,81,-1
 559 833 l 1,82,83
 547 834 547 834 535.5 835 c 128,-1,84
 524 836 524 836 512 836 c 128,-1,85
 500 836 500 836 488 835 c 128,-1,86
 476 834 476 834 464 833 c 1,87,-1
 391 951 l 1,88,-1
 287 908 l 1,89,90
 286 908 286 908 318 772 c 1,91,92
 299 756 299 756 283.5 740 c 128,-1,93
 268 724 268 724 252 706 c 1,94,-1
 116 737 l 1,95,-1
 73 633 l 1,96,-1
 191 559 l 1,97,98
 190 547 190 547 189 535.5 c 128,-1,99
 188 524 188 524 188 512 c 128,-1,100
 188 500 188 500 189 488 c 128,-1,101
 190 476 190 476 191 464 c 1,102,-1
 73 391 l 1,103,-1
 116 287 l 1,104,105
 116 286 116 286 252 318 c 1,106,107
 268 299 268 299 284 283.5 c 128,-1,108
 300 268 300 268 318 252 c 1,109,-1
 287 116 l 1,110,-1
 391 73 l 1,111,-1
 465 191 l 1,112,113
 477 190 477 190 488.5 189 c 128,-1,114
 500 188 500 188 512 188 c 128,-1,115
 524 188 524 188 536 189 c 128,-1,116
 548 190 548 190 560 191 c 1,117,-1
 633 73 l 1,118,-1
 737 116 l 1,119,120
 738 116 738 116 706 252 c 1,121,122
 725 268 725 268 740.5 284 c 128,-1,123
 756 300 756 300 772 318 c 1,124,-1
 908 287 l 1,125,-1
 951 391 l 1,126,-1
 833 465 l 1,67,68
512 700 m 256,127,128
 551 700 551 700 585.5 685 c 128,-1,129
 620 670 620 670 645 645 c 128,-1,130
 670 620 670 620 685 585.5 c 128,-1,131
 700 551 700 551 700 512 c 256,132,133
 700 473 700 473 685 438.5 c 128,-1,134
 670 404 670 404 645 379 c 128,-1,135
 620 354 620 354 585.5 339 c 128,-1,136
 551 324 551 324 512 324 c 256,137,138
 473 324 473 324 438.5 339 c 128,-1,139
 404 354 404 354 379 379 c 128,-1,140
 354 404 354 404 339 438.5 c 128,-1,141
 324 473 324 473 324 512 c 256,142,143
 324 551 324 551 339 585.5 c 128,-1,144
 354 620 354 620 379 645 c 128,-1,145
 404 670 404 670 438.5 685 c 128,-1,146
 473 700 473 700 512 700 c 256,127,128
512 380 m 256,147,148
 540 380 540 380 564 390 c 128,-1,149
 588 400 588 400 606 418 c 128,-1,150
 624 436 624 436 634 460 c 128,-1,151
 644 484 644 484 644 512 c 256,152,153
 644 540 644 540 634 564 c 128,-1,154
 624 588 624 588 606 606 c 128,-1,155
 588 624 588 624 564 634 c 128,-1,156
 540 644 540 644 512 644 c 256,157,158
 484 644 484 644 460 634 c 128,-1,159
 436 624 436 624 418 606 c 128,-1,160
 400 588 400 588 390 564 c 128,-1,161
 380 540 380 540 380 512 c 256,162,163
 380 484 380 484 390 460 c 128,-1,164
 400 436 400 436 418 418 c 128,-1,165
 436 400 436 400 460 390 c 128,-1,166
 484 380 484 380 512 380 c 256,147,148
EndSplineSet
EndChar

StartChar: uniF01A
Encoding: 61466 61466 28
Width: 1024
Flags: W
LayerCount: 2
Fore
SplineSet
965 914 m 1,0,1
 978 892 978 892 989 871 c 128,-1,2
 1000 850 1000 850 1008 829 c 128,-1,3
 1016 808 1016 808 1020 785.5 c 128,-1,4
 1024 763 1024 763 1024 736 c 0,5,6
 1024 696 1024 696 1014 659.5 c 128,-1,7
 1004 623 1004 623 985 591 c 128,-1,8
 966 559 966 559 939.5 532.5 c 128,-1,9
 913 506 913 506 881 487 c 128,-1,10
 849 468 849 468 812.5 458 c 128,-1,11
 776 448 776 448 736 448 c 0,12,13
 724 448 724 448 712.5 449 c 0,14,15
 702 450 702 450 690 452 c 1,16,-1
 286 49 l 2,17,18
 262 25 262 25 231.5 12.5 c 0,19,20
 202 0 202 0 168 0 c 128,-1,21
 134 0 134 0 103 13 c 128,-1,22
 72 26 72 26 49 49 c 128,-1,23
 26 72 26 72 13 102.5 c 0,24,25
 0 134 0 134 0 168 c 128,-1,26
 0 202 0 202 12.5 232 c 128,-1,27
 25 262 25 262 49 286 c 2,28,-1
 452 690 l 1,29,30
 450 702 450 702 449 713 c 128,-1,31
 448 724 448 724 448 736 c 0,32,33
 448 776 448 776 458 812.5 c 128,-1,34
 468 849 468 849 487 881 c 128,-1,35
 506 913 506 913 532.5 939.5 c 128,-1,36
 559 966 559 966 591 985 c 128,-1,37
 623 1004 623 1004 659.5 1014 c 128,-1,38
 696 1024 696 1024 736 1024 c 0,39,40
 763 1024 763 1024 785.5 1020 c 128,-1,41
 808 1016 808 1016 829 1008 c 128,-1,42
 850 1000 850 1000 871 989 c 128,-1,43
 892 978 892 978 914 965 c 1,44,-1
 717 768 l 1,45,-1
 768 717 l 1,46,-1
 965 914 l 1,0,1
736 512 m 0,47,48
 782 512 782 512 823 530 c 128,-1,49
 864 548 864 548 894 578 c 128,-1,50
 924 608 924 608 942 649 c 128,-1,51
 960 690 960 690 960 736 c 0,52,53
 960 772 960 772 948 806 c 1,54,-1
 768 627 l 1,55,-1
 627 768 l 1,56,57
 626 768 626 768 806 948 c 1,58,59
 772 960 772 960 736 960 c 0,60,61
 690 960 690 960 649 942 c 128,-1,62
 608 924 608 924 578 894 c 128,-1,63
 548 864 548 864 530 823 c 128,-1,64
 512 782 512 782 512 736 c 0,65,66
 512 718 512 718 515 702 c 128,-1,67
 518 686 518 686 522 669 c 1,68,-1
 94 241 l 2,69,70
 80 227 80 227 72 207.5 c 128,-1,71
 64 188 64 188 64 168 c 256,72,73
 64 147 64 147 72 127.5 c 128,-1,74
 80 108 80 108 94 94 c 128,-1,75
 108 80 108 80 127 72 c 128,-1,76
 146 64 146 64 168 64 c 256,77,78
 189 64 189 64 207.5 72 c 128,-1,79
 226 80 226 80 241 94 c 2,80,-1
 669 522 l 1,81,82
 685 518 685 518 701.5 515 c 128,-1,83
 718 512 718 512 736 512 c 0,47,48
EndSplineSet
EndChar

StartChar: uniF01B
Encoding: 61467 61467 29
Width: 1024
Flags: W
LayerCount: 2
Fore
SplineSet
128 576 m 256,0,1
 142 576 142 576 153 571 c 128,-1,2
 164 566 164 566 173 557 c 128,-1,3
 182 548 182 548 187 537 c 128,-1,4
 192 526 192 526 192 512 c 256,5,6
 192 498 192 498 187 487 c 128,-1,7
 182 476 182 476 173 467 c 128,-1,8
 164 458 164 458 153 453 c 128,-1,9
 142 448 142 448 128 448 c 256,10,11
 114 448 114 448 103 453 c 128,-1,12
 92 458 92 458 83 467 c 128,-1,13
 74 476 74 476 69 487 c 128,-1,14
 64 498 64 498 64 512 c 256,15,16
 64 526 64 526 69 537 c 128,-1,17
 74 548 74 548 83 557 c 128,-1,18
 92 566 92 566 103 571 c 128,-1,19
 114 576 114 576 128 576 c 256,0,1
512 576 m 256,20,21
 526 576 526 576 537 571 c 128,-1,22
 548 566 548 566 557 557 c 128,-1,23
 566 548 566 548 571 537 c 128,-1,24
 576 526 576 526 576 512 c 256,25,26
 576 498 576 498 571 487 c 128,-1,27
 566 476 566 476 557 467 c 128,-1,28
 548 458 548 458 537 453 c 128,-1,29
 526 448 526 448 512 448 c 256,30,31
 498 448 498 448 487 453 c 128,-1,32
 476 458 476 458 467 467 c 128,-1,33
 458 476 458 476 453 487 c 128,-1,34
 448 498 448 498 448 512 c 256,35,36
 448 526 448 526 453 537 c 128,-1,37
 458 548 458 548 467 557 c 128,-1,38
 476 566 476 566 487 571 c 128,-1,39
 498 576 498 576 512 576 c 256,20,21
896 576 m 256,40,41
 910 576 910 576 921 571 c 128,-1,42
 932 566 932 566 941 557 c 128,-1,43
 950 548 950 548 955 537 c 128,-1,44
 960 526 960 526 960 512 c 256,45,46
 960 498 960 498 955 487 c 128,-1,47
 950 476 950 476 941 467 c 128,-1,48
 932 458 932 458 921 453 c 128,-1,49
 910 448 910 448 896 448 c 256,50,51
 882 448 882 448 871 453 c 128,-1,52
 860 458 860 458 851 467 c 128,-1,53
 842 476 842 476 837 487 c 128,-1,54
 832 498 832 498 832 512 c 256,55,56
 832 526 832 526 837 537 c 128,-1,57
 842 548 842 548 851 557 c 128,-1,58
 860 566 860 566 871 571 c 128,-1,59
 882 576 882 576 896 576 c 256,40,41
EndSplineSet
EndChar

StartChar: uniF01C
Encoding: 61468 61468 30
Width: 1024
Flags: W
LayerCount: 2
Fore
SplineSet
978 258 m 1,0,-1
 512 722 l 1,1,-1
 46 258 l 1,2,-1
 2 302 l 1,3,-1
 512 814 l 1,4,-1
 1022 302 l 1,5,-1
 978 258 l 1,6,-1
 978 258 l 1,0,-1
EndSplineSet
EndChar

StartChar: uniF01D
Encoding: 61469 61469 31
Width: 1024
Flags: W
LayerCount: 2
Fore
SplineSet
512 333 m 1,0,1
 512 332 512 332 970 790 c 1,2,-1
 1014 746 l 1,3,-1
 512 243 l 1,4,5
 512 244 512 244 10 746 c 1,6,-1
 54 790 l 1,7,-1
 512 333 l 1,8,-1
 512 333 l 1,0,1
EndSplineSet
EndChar

StartChar: uniF01E
Encoding: 61470 61470 32
Width: 1024
Flags: W
LayerCount: 2
Fore
SplineSet
766 46 m 1,0,-1
 722 2 l 1,1,-1
 210 512 l 1,2,-1
 722 1022 l 1,3,-1
 766 978 l 1,4,-1
 302 512 l 1,5,-1
 766 46 l 1,6,-1
 766 46 l 1,0,-1
EndSplineSet
EndChar

StartChar: uniF01F
Encoding: 61471 61471 33
Width: 1024
Flags: W
LayerCount: 2
Fore
SplineSet
258 46 m 1,0,-1
 722 512 l 1,1,-1
 258 978 l 1,2,-1
 302 1022 l 1,3,-1
 814 512 l 1,4,-1
 302 2 l 1,5,-1
 258 46 l 1,6,-1
 258 46 l 1,0,-1
EndSplineSet
EndChar

StartChar: uniF020
Encoding: 61472 61472 34
Width: 1024
Flags: W
LayerCount: 2
Fore
SplineSet
1024 960 m 1,0,-1
 1024 448 l 1,1,-1
 141 448 l 1,2,3
 140 448 140 448 438 150 c 1,4,-1
 394 106 l 1,5,-1
 18 480 l 1,6,-1
 394 854 l 1,7,-1
 438 810 l 1,8,-1
 141 512 l 1,9,-1
 960 512 l 1,10,-1
 960 960 l 1,11,-1
 1024 960 l 1,12,-1
 1024 960 l 1,0,-1
EndSplineSet
EndChar

StartChar: uniF021
Encoding: 61473 61473 35
Width: 1024
Flags: W
LayerCount: 2
Fore
SplineSet
558 512 m 1,0,-1
 1014 54 l 1,1,-1
 970 10 l 1,2,-1
 512 466 l 1,3,-1
 54 10 l 1,4,-1
 10 54 l 1,5,-1
 466 512 l 1,6,-1
 10 970 l 1,7,-1
 54 1014 l 1,8,-1
 512 558 l 1,9,-1
 970 1014 l 1,10,-1
 1014 970 l 1,11,-1
 558 512 l 1,0,-1
EndSplineSet
EndChar

StartChar: uniF022
Encoding: 61474 61474 36
Width: 1024
Flags: W
LayerCount: 2
Fore
SplineSet
320 146 m 1,0,-1
 10 458 l 1,1,-1
 54 502 l 1,2,-1
 320 238 l 1,3,-1
 970 886 l 1,4,-1
 1014 842 l 1,5,-1
 320 146 l 1,6,-1
 320 146 l 1,0,-1
EndSplineSet
EndChar

StartChar: uniF023
Encoding: 61475 61475 37
Width: 1024
Flags: W
LayerCount: 2
Fore
SplineSet
544 1022 m 0,0,1
 592 1022 592 1022 636.5 1009.5 c 128,-1,2
 681 997 681 997 720 974 c 128,-1,3
 759 951 759 951 791 919 c 128,-1,4
 823 887 823 887 846 848 c 128,-1,5
 869 809 869 809 881.5 764.5 c 128,-1,6
 894 720 894 720 894 672 c 0,7,8
 894 604 894 604 868 540 c 128,-1,9
 842 476 842 476 793 428 c 2,10,11
 792 428 792 428 374 10 c 1,12,-1
 330 54 l 1,13,-1
 748 473 l 2,14,15
 788 513 788 513 809 564.5 c 128,-1,16
 830 616 830 616 830 672 c 0,17,18
 830 730 830 730 807 782 c 128,-1,19
 784 834 784 834 745 873 c 128,-1,20
 706 912 706 912 654 935 c 128,-1,21
 602 958 602 958 544 958 c 0,22,23
 490 958 490 958 449 942 c 128,-1,24
 408 926 408 926 373 899 c 128,-1,25
 338 872 338 872 305.5 838 c 0,26,27
 274 804 274 804 238 768 c 1,28,-1
 448 768 l 1,29,-1
 448 704 l 1,30,-1
 128 704 l 1,31,-1
 128 1024 l 1,32,-1
 192 1024 l 1,33,-1
 192 814 l 1,34,35
 220 842 220 842 245 868 c 128,-1,36
 270 894 270 894 295 917 c 128,-1,37
 320 940 320 940 346.5 959.5 c 128,-1,38
 373 979 373 979 402.5 992.5 c 128,-1,39
 432 1006 432 1006 467 1014 c 128,-1,40
 502 1022 502 1022 544 1022 c 0,0,1
EndSplineSet
EndChar

StartChar: uniF024
Encoding: 61476 61476 38
Width: 1024
Flags: W
LayerCount: 2
Fore
SplineSet
576 768 m 1,0,-1
 786 768 l 1,1,2
 750 804 750 804 718 838 c 128,-1,3
 686 872 686 872 651 899 c 128,-1,4
 616 926 616 926 575 942 c 128,-1,5
 534 958 534 958 480 958 c 0,6,7
 422 958 422 958 370 935 c 128,-1,8
 318 912 318 912 279 873 c 128,-1,9
 240 834 240 834 217 782 c 128,-1,10
 194 730 194 730 194 672 c 0,11,12
 194 616 194 616 215.5 564 c 0,13,14
 236 512 236 512 276 473 c 2,15,16
 276 472 276 472 694 54 c 1,17,-1
 650 10 l 1,18,-1
 231 428 l 2,19,20
 183 476 183 476 156.5 540 c 128,-1,21
 130 604 130 604 130 672 c 0,22,23
 130 720 130 720 142.5 764.5 c 128,-1,24
 155 809 155 809 178 848 c 128,-1,25
 201 887 201 887 233 919 c 128,-1,26
 265 951 265 951 304 974 c 128,-1,27
 343 997 343 997 387.5 1009.5 c 128,-1,28
 432 1022 432 1022 480 1022 c 0,29,30
 522 1022 522 1022 557 1014 c 128,-1,31
 592 1006 592 1006 621.5 992.5 c 128,-1,32
 651 979 651 979 677.5 959.5 c 128,-1,33
 704 940 704 940 729 917 c 128,-1,34
 754 894 754 894 779 868 c 128,-1,35
 804 842 804 842 832 814 c 1,36,-1
 832 1024 l 1,37,-1
 896 1024 l 1,38,-1
 896 704 l 1,39,-1
 576 704 l 1,40,-1
 576 768 l 1,0,-1
EndSplineSet
EndChar

StartChar: uniF025
Encoding: 61477 61477 39
Width: 1024
Flags: W
LayerCount: 2
Fore
SplineSet
960 576 m 1,0,-1
 960 512 l 1,1,-1
 512 512 l 1,2,-1
 512 64 l 1,3,-1
 448 64 l 1,4,-1
 448 512 l 1,5,-1
 0 512 l 1,6,-1
 0 576 l 1,7,-1
 448 576 l 1,8,-1
 448 1024 l 1,9,-1
 512 1024 l 1,10,-1
 512 576 l 1,11,-1
 960 576 l 1,12,-1
 960 576 l 1,0,-1
EndSplineSet
EndChar

StartChar: uniF026
Encoding: 61478 61478 40
Width: 1024
Flags: W
LayerCount: 2
Fore
SplineSet
0 576 m 1,0,-1
 960 576 l 1,1,-1
 960 512 l 1,2,-1
 0 512 l 1,3,-1
 0 576 l 1,4,-1
 0 576 l 1,0,-1
EndSplineSet
EndChar

StartChar: uniF027
Encoding: 61479 61479 41
Width: 1024
Flags: W
LayerCount: 2
Fore
SplineSet
902 922 m 1,0,-1
 525 544 l 1,1,2
 524 544 524 544 902 166 c 1,3,-1
 858 122 l 1,4,-1
 480 499 l 1,5,6
 480 500 480 500 102 122 c 1,7,-1
 58 166 l 1,8,-1
 435 544 l 1,9,10
 436 544 436 544 58 922 c 1,11,-1
 102 966 l 1,12,-1
 480 589 l 1,13,14
 480 588 480 588 858 966 c 1,15,-1
 902 922 l 1,16,-1
 902 922 l 1,0,-1
EndSplineSet
EndChar

StartChar: uniF028
Encoding: 61480 61480 42
Width: 1024
Flags: W
LayerCount: 2
Fore
SplineSet
544 192 m 256,0,1
 544 178 544 178 539 167 c 128,-1,2
 534 156 534 156 525 147 c 128,-1,3
 516 138 516 138 505 133 c 128,-1,4
 494 128 494 128 480 128 c 256,5,6
 466 128 466 128 455 133 c 128,-1,7
 444 138 444 138 435 147 c 128,-1,8
 426 156 426 156 421 167 c 128,-1,9
 416 178 416 178 416 192 c 256,10,11
 416 206 416 206 421 217 c 128,-1,12
 426 228 426 228 435 237 c 128,-1,13
 444 246 444 246 455 251 c 128,-1,14
 466 256 466 256 480 256 c 256,15,16
 494 256 494 256 505 251 c 128,-1,17
 516 246 516 246 525 237 c 128,-1,18
 534 228 534 228 539 217 c 128,-1,19
 544 206 544 206 544 192 c 256,0,1
544 896 m 256,20,21
 544 882 544 882 539 871 c 128,-1,22
 534 860 534 860 525 851 c 128,-1,23
 516 842 516 842 505 837 c 128,-1,24
 494 832 494 832 480 832 c 256,25,26
 466 832 466 832 455 837 c 128,-1,27
 444 842 444 842 435 851 c 128,-1,28
 426 860 426 860 421 871 c 128,-1,29
 416 882 416 882 416 896 c 256,30,31
 416 910 416 910 421 921 c 128,-1,32
 426 932 426 932 435 941 c 128,-1,33
 444 950 444 950 455 955 c 128,-1,34
 466 960 466 960 480 960 c 256,35,36
 494 960 494 960 505 955 c 128,-1,37
 516 950 516 950 525 941 c 128,-1,38
 534 932 534 932 539 921 c 128,-1,39
 544 910 544 910 544 896 c 256,20,21
960 512 m 1,40,-1
 0 512 l 1,41,-1
 0 576 l 1,42,-1
 960 576 l 1,43,-1
 960 512 l 1,40,-1
EndSplineSet
EndChar

StartChar: uniF029
Encoding: 61481 61481 43
Width: 1024
Flags: W
LayerCount: 2
Fore
SplineSet
738 1024 m 1,0,-1
 798 1024 l 1,1,-1
 288 0 l 1,2,-1
 76 450 l 1,3,-1
 0 450 l 1,4,-1
 0 513 l 1,5,-1
 116 513 l 1,6,-1
 288 130 l 1,7,-1
 738 1024 l 1,8,-1
 738 1024 l 1,0,-1
EndSplineSet
EndChar

StartChar: uniF02A
Encoding: 61482 61482 44
Width: 1024
Flags: W
LayerCount: 2
Fore
SplineSet
384 832 m 0,0,1
 384 792 384 792 369 757 c 128,-1,2
 354 722 354 722 328 696 c 128,-1,3
 302 670 302 670 267 655 c 128,-1,4
 232 640 232 640 192 640 c 0,5,6
 152 640 152 640 117 655 c 128,-1,7
 82 670 82 670 56 696 c 128,-1,8
 30 722 30 722 15 757 c 128,-1,9
 0 792 0 792 0 832 c 0,10,11
 0 872 0 872 15 907 c 128,-1,12
 30 942 30 942 56 968 c 128,-1,13
 82 994 82 994 117 1009 c 128,-1,14
 152 1024 152 1024 192 1024 c 0,15,16
 232 1024 232 1024 267 1009 c 128,-1,17
 302 994 302 994 328 968 c 128,-1,18
 354 942 354 942 369 907 c 128,-1,19
 384 872 384 872 384 832 c 0,0,1
64 832 m 256,20,21
 64 806 64 806 74 782.5 c 128,-1,22
 84 759 84 759 101.5 741.5 c 128,-1,23
 119 724 119 724 142.5 714 c 128,-1,24
 166 704 166 704 192 704 c 256,25,26
 218 704 218 704 241.5 714 c 128,-1,27
 265 724 265 724 282.5 741.5 c 128,-1,28
 300 759 300 759 310 782.5 c 128,-1,29
 320 806 320 806 320 832 c 256,30,31
 320 858 320 858 310 881.5 c 128,-1,32
 300 905 300 905 282.5 922.5 c 128,-1,33
 265 940 265 940 241.5 950 c 128,-1,34
 218 960 218 960 192 960 c 256,35,36
 166 960 166 960 142.5 950 c 128,-1,37
 119 940 119 940 101.5 922.5 c 128,-1,38
 84 905 84 905 74 881.5 c 128,-1,39
 64 858 64 858 64 832 c 256,20,21
768 448 m 0,40,41
 808 448 808 448 843 433 c 128,-1,42
 878 418 878 418 904 392 c 128,-1,43
 930 366 930 366 945 331 c 128,-1,44
 960 296 960 296 960 256 c 0,45,46
 960 216 960 216 945 181 c 128,-1,47
 930 146 930 146 904 120 c 128,-1,48
 878 94 878 94 843 79 c 128,-1,49
 808 64 808 64 768 64 c 0,50,51
 728 64 728 64 693 79 c 128,-1,52
 658 94 658 94 632 120 c 128,-1,53
 606 146 606 146 591 181 c 128,-1,54
 576 216 576 216 576 256 c 0,55,56
 576 296 576 296 591 331 c 128,-1,57
 606 366 606 366 632 392 c 128,-1,58
 658 418 658 418 693 433 c 128,-1,59
 728 448 728 448 768 448 c 0,40,41
768 128 m 256,60,61
 794 128 794 128 817.5 138 c 128,-1,62
 841 148 841 148 858.5 165.5 c 128,-1,63
 876 183 876 183 886 206.5 c 128,-1,64
 896 230 896 230 896 256 c 256,65,66
 896 282 896 282 886 305.5 c 128,-1,67
 876 329 876 329 858.5 346.5 c 128,-1,68
 841 364 841 364 817.5 374 c 128,-1,69
 794 384 794 384 768 384 c 256,70,71
 742 384 742 384 718.5 374 c 128,-1,72
 695 364 695 364 677.5 346.5 c 128,-1,73
 660 329 660 329 650 305.5 c 128,-1,74
 640 282 640 282 640 256 c 256,75,76
 640 230 640 230 650 206.5 c 128,-1,77
 660 183 660 183 677.5 165.5 c 128,-1,78
 695 148 695 148 718.5 138 c 128,-1,79
 742 128 742 128 768 128 c 256,60,61
768 1024 m 1,80,-1
 256 64 l 1,81,-1
 192 64 l 1,82,-1
 704 1024 l 1,83,-1
 768 1024 l 1,80,-1
EndSplineSet
EndChar

StartChar: uniF02B
Encoding: 61483 61483 45
Width: 1024
Flags: W
LayerCount: 2
Fore
SplineSet
512 640 m 5,0,-1
 832 640 l 5,1,-1
 832 576 l 5,2,-1
 512 576 l 5,3,-1
 512 256 l 5,4,-1
 448 256 l 5,5,-1
 448 576 l 5,6,-1
 128 576 l 5,7,-1
 128 640 l 5,8,-1
 448 640 l 5,9,-1
 448 960 l 5,10,-1
 512 960 l 5,11,-1
 512 640 l 5,0,-1
128 128 m 1,12,-1
 128 192 l 1,13,-1
 832 192 l 1,14,-1
 832 128 l 1,15,-1
 128 128 l 1,12,-1
EndSplineSet
EndChar

StartChar: uniF02C
Encoding: 61484 61484 46
Width: 1024
Flags: W
LayerCount: 2
Fore
SplineSet
0 320 m 1,0,-1
 0 384 l 1,1,-1
 960 384 l 1,2,-1
 960 320 l 1,3,-1
 0 320 l 1,0,-1
0 768 m 1,4,-1
 960 768 l 1,5,-1
 960 704 l 1,6,-1
 0 704 l 1,7,-1
 0 768 l 1,4,-1
EndSplineSet
EndChar

StartChar: uniF02D
Encoding: 61485 61485 47
Width: 1024
Flags: W
LayerCount: 2
Fore
SplineSet
651 1024 m 1,0,-1
 718 1024 l 1,1,-1
 377 0 l 1,2,3
 378 0 378 0 310 0 c 1,4,-1
 651 1024 l 1,5,-1
 651 1024 l 1,0,-1
EndSplineSet
EndChar

StartChar: uniF02E
Encoding: 61486 61486 48
Width: 1024
Flags: W
LayerCount: 2
Fore
SplineSet
448 64 m 1,0,-1
 512 64 l 1,1,-1
 512 0 l 1,2,-1
 448 0 l 1,3,-1
 448 64 l 1,0,-1
480 1024 m 256,4,5
 520 1024 520 1024 556.5 1014 c 128,-1,6
 593 1004 593 1004 625 985 c 128,-1,7
 657 966 657 966 683.5 939.5 c 128,-1,8
 710 913 710 913 729 881 c 128,-1,9
 748 849 748 849 758 812.5 c 128,-1,10
 768 776 768 776 768 736 c 0,11,12
 768 694 768 694 757 660 c 128,-1,13
 746 626 746 626 728 598 c 128,-1,14
 710 570 710 570 687 546 c 128,-1,15
 664 522 664 522 640 499 c 128,-1,16
 616 476 616 476 593 454 c 128,-1,17
 570 432 570 432 552 407 c 128,-1,18
 534 382 534 382 523 353 c 128,-1,19
 512 324 512 324 512 288 c 2,20,-1
 512 192 l 1,21,-1
 448 192 l 1,22,-1
 448 288 l 2,23,24
 448 330 448 330 459 364 c 128,-1,25
 470 398 470 398 488 426 c 128,-1,26
 506 454 506 454 529 478 c 128,-1,27
 552 502 552 502 576 524.5 c 128,-1,28
 600 547 600 547 623 569.5 c 128,-1,29
 646 592 646 592 664 617 c 128,-1,30
 682 642 682 642 693 671 c 128,-1,31
 704 700 704 700 704 736 c 0,32,33
 704 782 704 782 686 823 c 128,-1,34
 668 864 668 864 638 894 c 128,-1,35
 608 924 608 924 567 942 c 128,-1,36
 526 960 526 960 480 960 c 256,37,38
 434 960 434 960 393 942 c 128,-1,39
 352 924 352 924 322 894 c 128,-1,40
 292 864 292 864 274 823 c 128,-1,41
 256 782 256 782 256 736 c 1,42,-1
 192 736 l 1,43,44
 192 776 192 776 202 812.5 c 128,-1,45
 212 849 212 849 231 881 c 128,-1,46
 250 913 250 913 276.5 939.5 c 128,-1,47
 303 966 303 966 335 985 c 128,-1,48
 367 1004 367 1004 403.5 1014 c 128,-1,49
 440 1024 440 1024 480 1024 c 256,4,5
EndSplineSet
EndChar

StartChar: uniF02F
Encoding: 61487 61487 49
Width: 1024
Flags: W
LayerCount: 2
Fore
SplineSet
832 1024 m 1,0,-1
 832 448 l 2,1,2
 832 382 832 382 807 323.5 c 128,-1,3
 782 265 782 265 738.5 221.5 c 128,-1,4
 695 178 695 178 636.5 153 c 128,-1,5
 578 128 578 128 512 128 c 256,6,7
 446 128 446 128 387.5 153 c 128,-1,8
 329 178 329 178 285.5 221.5 c 128,-1,9
 242 265 242 265 217 323.5 c 128,-1,10
 192 382 192 382 192 448 c 2,11,-1
 192 1024 l 1,12,-1
 256 1024 l 1,13,-1
 256 448 l 2,14,15
 256 395 256 395 276 348.5 c 128,-1,16
 296 302 296 302 331 267 c 128,-1,17
 366 232 366 232 412.5 212 c 128,-1,18
 459 192 459 192 512 192 c 256,19,20
 565 192 565 192 611.5 212 c 128,-1,21
 658 232 658 232 693 267 c 128,-1,22
 728 302 728 302 748 348.5 c 128,-1,23
 768 395 768 395 768 448 c 2,24,-1
 768 1024 l 1,25,-1
 832 1024 l 1,0,-1
192 64 m 1,26,-1
 832 64 l 1,27,-1
 832 0 l 1,28,-1
 192 0 l 1,29,-1
 192 64 l 1,26,-1
EndSplineSet
EndChar

StartChar: uniF030
Encoding: 61488 61488 50
Width: 1024
Flags: W
LayerCount: 2
Fore
SplineSet
592 544 m 1,0,1
 642 544 642 544 685.5 525 c 128,-1,2
 729 506 729 506 761.5 473.5 c 128,-1,3
 794 441 794 441 813 397.5 c 128,-1,4
 832 354 832 354 832 304 c 256,5,6
 832 254 832 254 813 210.5 c 128,-1,7
 794 167 794 167 761.5 134.5 c 128,-1,8
 729 102 729 102 685.5 83 c 128,-1,9
 642 64 642 64 592 64 c 2,10,-1
 192 64 l 1,11,-1
 192 960 l 1,12,-1
 592 960 l 2,13,14
 635 960 635 960 673 944 c 128,-1,15
 711 928 711 928 739.5 899.5 c 128,-1,16
 768 871 768 871 784 833 c 128,-1,17
 800 795 800 795 800 752 c 256,18,19
 800 709 800 709 784 671 c 128,-1,20
 768 633 768 633 739.5 604.5 c 128,-1,21
 711 576 711 576 673 560 c 128,-1,22
 635 544 635 544 592 544 c 1,0,1
384 576 m 1,23,-1
 480 576 l 2,24,25
 506 576 506 576 529.5 586 c 128,-1,26
 553 596 553 596 570.5 613.5 c 128,-1,27
 588 631 588 631 598 654.5 c 128,-1,28
 608 678 608 678 608 704 c 0,29,30
 608 730 608 730 598 753.5 c 128,-1,31
 588 777 588 777 570.5 794.5 c 128,-1,32
 553 812 553 812 529.5 822 c 128,-1,33
 506 832 506 832 480 832 c 2,34,-1
 384 832 l 1,35,-1
 384 576 l 1,23,-1
512 192 m 2,36,37
 538 192 538 192 561.5 202 c 128,-1,38
 585 212 585 212 602.5 229.5 c 128,-1,39
 620 247 620 247 630 270.5 c 128,-1,40
 640 294 640 294 640 320 c 0,41,42
 640 346 640 346 630 369.5 c 128,-1,43
 620 393 620 393 602.5 410.5 c 128,-1,44
 585 428 585 428 561.5 438 c 128,-1,45
 538 448 538 448 512 448 c 2,46,-1
 384 448 l 1,47,-1
 384 192 l 1,48,-1
 512 192 l 2,36,37
EndSplineSet
EndChar

StartChar: uniF031
Encoding: 61489 61489 51
Width: 1024
Flags: W
LayerCount: 2
Fore
SplineSet
820 896 m 1,0,-1
 628 896 l 1,1,-1
 438 128 l 1,2,-1
 630 128 l 1,3,-1
 630 64 l 1,4,-1
 182 64 l 1,5,-1
 182 128 l 1,6,-1
 374 128 l 1,7,-1
 564 896 l 1,8,-1
 372 896 l 1,9,-1
 372 960 l 1,10,-1
 820 960 l 1,11,-1
 820 896 l 1,12,-1
 820 896 l 1,0,-1
EndSplineSet
EndChar

StartChar: uniF032
Encoding: 61490 61490 52
Width: 1024
Flags: W
LayerCount: 2
Fore
SplineSet
768 832 m 1,0,-1
 576 832 l 1,1,-1
 576 192 l 1,2,-1
 768 192 l 1,3,-1
 768 0 l 1,4,-1
 192 0 l 1,5,-1
 192 192 l 1,6,-1
 384 192 l 1,7,-1
 384 832 l 1,8,-1
 192 832 l 1,9,-1
 192 1024 l 1,10,-1
 768 1024 l 1,11,-1
 768 832 l 1,12,-1
 768 832 l 1,0,-1
EndSplineSet
EndChar

StartChar: uniF033
Encoding: 61491 61491 53
Width: 1024
Flags: W
LayerCount: 2
Fore
SplineSet
704 1024 m 5,0,-1
 960 1024 l 5,1,-1
 832 896 l 5,2,-1
 704 1024 l 5,0,-1
318 896 m 1,3,-1
 386 896 l 1,4,-1
 663 64 l 1,5,6
 664 64 664 64 596 64 c 1,7,-1
 510 320 l 1,8,-1
 194 320 l 1,9,-1
 108 64 l 1,10,-1
 41 64 l 1,11,-1
 318 896 l 1,3,-1
215 384 m 1,12,-1
 489 384 l 1,13,-1
 352 795 l 1,14,-1
 215 384 l 1,12,-1
EndSplineSet
EndChar

StartChar: uniF034
Encoding: 61492 61492 54
Width: 1024
Flags: W
LayerCount: 2
Fore
SplineSet
318 896 m 1,0,-1
 386 896 l 1,1,-1
 663 64 l 1,2,3
 664 64 664 64 596 64 c 1,4,-1
 510 320 l 1,5,-1
 194 320 l 1,6,-1
 108 64 l 1,7,-1
 41 64 l 1,8,-1
 318 896 l 1,0,-1
215 384 m 1,9,-1
 489 384 l 1,10,-1
 352 795 l 1,11,-1
 215 384 l 1,9,-1
832 1024 m 1,12,-1
 960 896 l 1,13,-1
 704 896 l 1,14,-1
 832 1024 l 1,12,-1
EndSplineSet
EndChar

StartChar: uniF035
Encoding: 61493 61493 55
Width: 1024
Flags: W
LayerCount: 2
Fore
SplineSet
706 960 m 1,0,-1
 983 128 l 1,1,2
 984 128 984 128 916 128 c 1,3,-1
 830 384 l 1,4,-1
 514 384 l 1,5,-1
 428 128 l 1,6,-1
 428 128 l 1,7,-1
 428 128 l 1,8,-1
 361 128 l 1,9,-1
 361 128 l 1,10,-1
 361 128 l 1,11,12
 360 128 360 128 318 256 c 1,13,-1
 130 256 l 1,14,-1
 87 128 l 1,15,16
 88 128 88 128 20 128 c 1,17,-1
 190 640 l 1,18,-1
 258 640 l 1,19,-1
 394 230 l 1,20,-1
 638 960 l 1,21,-1
 706 960 l 1,0,-1
151 320 m 1,22,-1
 297 320 l 1,23,-1
 224 538 l 1,24,-1
 151 320 l 1,22,-1
535 448 m 1,25,-1
 809 448 l 1,26,-1
 672 858 l 1,27,-1
 535 448 l 1,25,-1
EndSplineSet
EndChar

StartChar: uniF036
Encoding: 61494 61494 56
Width: 1024
Flags: W
LayerCount: 2
Fore
SplineSet
832 128 m 1,0,-1
 832 64 l 1,1,-1
 128 64 l 1,2,-1
 128 128 l 1,3,-1
 832 128 l 1,0,-1
236 192 m 1,4,-1
 169 192 l 1,5,6
 168 192 168 192 446 1024 c 1,7,-1
 514 1024 l 1,8,-1
 791 192 l 1,9,10
 792 192 792 192 724 192 c 1,11,-1
 638 448 l 1,12,-1
 322 448 l 1,13,-1
 236 192 l 1,4,-1
343 512 m 1,14,-1
 617 512 l 1,15,-1
 480 922 l 1,16,-1
 343 512 l 1,14,-1
EndSplineSet
EndChar

StartChar: uniF037
Encoding: 61495 61495 57
Width: 1024
Flags: W
LayerCount: 2
Fore
SplineSet
552 960 m 1,0,-1
 872 0 l 1,1,-1
 805 0 l 1,2,3
 806 0 806 0 720 256 c 1,4,-1
 308 256 l 1,5,-1
 222 0 l 1,6,-1
 155 0 l 1,7,-1
 475 960 l 1,8,-1
 552 960 l 1,0,-1
329 320 m 1,9,10
 328 320 328 320 698 320 c 1,11,-1
 514 874 l 1,12,-1
 329 320 l 1,9,10
EndSplineSet
EndChar

StartChar: uniF038
Encoding: 61496 61496 58
Width: 1024
Flags: W
LayerCount: 2
Fore
SplineSet
544 960 m 1,0,-1
 1024 0 l 1,1,-1
 952 0 l 1,2,-1
 824 256 l 1,3,-1
 202 256 l 1,4,-1
 74 0 l 1,5,-1
 2 0 l 1,6,-1
 482 960 l 1,7,-1
 544 960 l 1,0,-1
234 320 m 1,8,-1
 792 320 l 1,9,-1
 512 878 l 1,10,-1
 234 320 l 1,8,-1
EndSplineSet
EndChar

StartChar: uniF039
Encoding: 61497 61497 59
Width: 1024
Flags: W
LayerCount: 2
Fore
SplineSet
880 960 m 1,0,1
 834 960 834 960 799 942 c 128,-1,2
 764 924 764 924 737.5 894 c 128,-1,3
 711 864 711 864 689.5 825.5 c 128,-1,4
 668 787 668 787 648 746.5 c 128,-1,5
 628 706 628 706 605.5 666 c 128,-1,6
 583 626 583 626 554.5 594 c 128,-1,7
 526 562 526 562 490 540 c 128,-1,8
 454 518 454 518 404 513 c 1,9,-1
 660 0 l 1,10,-1
 588 0 l 1,11,-1
 332 512 l 1,12,-1
 289 512 l 1,13,-1
 161 0 l 1,14,-1
 95 0 l 1,15,-1
 351 1024 l 1,16,-1
 417 1024 l 1,17,-1
 305 576 l 1,18,-1
 384 576 l 2,19,20
 426 576 426 576 457.5 595 c 128,-1,21
 489 614 489 614 514.5 646 c 128,-1,22
 540 678 540 678 561.5 718 c 128,-1,23
 583 758 583 758 604.5 800 c 128,-1,24
 626 842 626 842 650 882 c 128,-1,25
 674 922 674 922 704.5 954 c 128,-1,26
 735 986 735 986 773.5 1005 c 128,-1,27
 812 1024 812 1024 864 1024 c 2,28,-1
 880 1024 l 1,29,-1
 880 960 l 1,0,1
EndSplineSet
EndChar

StartChar: uniF03A
Encoding: 61498 61498 60
Width: 1024
Flags: W
LayerCount: 2
Fore
SplineSet
64 781 m 1,0,-1
 397 448 l 1,1,-1
 64 115 l 1,2,-1
 64 781 l 1,0,-1
128 269 m 1,3,-1
 307 448 l 1,4,-1
 128 627 l 1,5,-1
 128 269 l 1,3,-1
896 896 m 1,6,-1
 896 128 l 1,7,-1
 960 128 l 1,8,-1
 960 64 l 1,9,-1
 640 64 l 1,10,-1
 640 128 l 1,11,-1
 704 128 l 1,12,-1
 704 512 l 1,13,-1
 608 512 l 2,14,15
 562 512 562 512 521 529.5 c 128,-1,16
 480 547 480 547 449.5 577.5 c 128,-1,17
 419 608 419 608 401.5 649 c 128,-1,18
 384 690 384 690 384 736 c 256,19,20
 384 782 384 782 401.5 823 c 128,-1,21
 419 864 419 864 449.5 894.5 c 128,-1,22
 480 925 480 925 521 942.5 c 128,-1,23
 562 960 562 960 608 960 c 2,24,-1
 960 960 l 1,25,-1
 960 896 l 1,26,-1
 896 896 l 1,6,-1
704 576 m 1,27,-1
 704 896 l 1,28,-1
 608 896 l 2,29,30
 575 896 575 896 545.5 883 c 128,-1,31
 516 870 516 870 494.5 848.5 c 128,-1,32
 473 827 473 827 460.5 798 c 128,-1,33
 448 769 448 769 448 736 c 256,34,35
 448 703 448 703 460.5 673.5 c 128,-1,36
 473 644 473 644 494.5 622.5 c 128,-1,37
 516 601 516 601 545.5 588.5 c 128,-1,38
 575 576 575 576 608 576 c 2,39,-1
 704 576 l 1,27,-1
832 128 m 1,40,-1
 832 896 l 1,41,-1
 768 896 l 1,42,-1
 768 128 l 1,43,-1
 832 128 l 1,40,-1
EndSplineSet
EndChar

StartChar: uniF03B
Encoding: 61499 61499 61
Width: 1024
Flags: W
LayerCount: 2
Fore
SplineSet
576 960 m 1,0,-1
 576 896 l 1,1,-1
 512 896 l 1,2,-1
 512 128 l 1,3,-1
 576 128 l 1,4,-1
 576 64 l 1,5,-1
 256 64 l 1,6,-1
 256 128 l 1,7,-1
 320 128 l 1,8,-1
 320 512 l 1,9,-1
 224 512 l 2,10,11
 178 512 178 512 137 529.5 c 128,-1,12
 96 547 96 547 65.5 577.5 c 128,-1,13
 35 608 35 608 17.5 649 c 128,-1,14
 0 690 0 690 0 736 c 256,15,16
 0 782 0 782 17.5 823 c 128,-1,17
 35 864 35 864 65.5 894.5 c 128,-1,18
 96 925 96 925 137 942.5 c 128,-1,19
 178 960 178 960 224 960 c 2,20,-1
 576 960 l 1,0,-1
320 576 m 1,21,-1
 320 896 l 1,22,-1
 224 896 l 2,23,24
 191 896 191 896 161.5 883 c 128,-1,25
 132 870 132 870 110.5 848.5 c 128,-1,26
 89 827 89 827 76.5 798 c 128,-1,27
 64 769 64 769 64 736 c 256,28,29
 64 703 64 703 76.5 673.5 c 128,-1,30
 89 644 89 644 110.5 622.5 c 128,-1,31
 132 601 132 601 161.5 588.5 c 128,-1,32
 191 576 191 576 224 576 c 2,33,-1
 320 576 l 1,21,-1
448 128 m 1,34,-1
 448 896 l 1,35,-1
 384 896 l 1,36,-1
 384 128 l 1,37,-1
 448 128 l 1,34,-1
960 781 m 1,38,-1
 960 115 l 1,39,-1
 627 448 l 1,40,-1
 960 781 l 1,38,-1
896 627 m 1,41,-1
 717 448 l 1,42,-1
 896 269 l 1,43,-1
 896 627 l 1,41,-1
EndSplineSet
EndChar

StartChar: uniF03C
Encoding: 61500 61500 62
Width: 1024
Flags: W
LayerCount: 2
Fore
SplineSet
512 1024 m 0,0,1
 582 1024 582 1024 648 1006 c 128,-1,2
 714 988 714 988 771 954.5 c 128,-1,3
 828 921 828 921 874.5 874.5 c 128,-1,4
 921 828 921 828 954.5 771 c 128,-1,5
 988 714 988 714 1006 648 c 128,-1,6
 1024 582 1024 582 1024 512 c 0,7,8
 1024 484 1024 484 1019 454.5 c 128,-1,9
 1014 425 1014 425 1003 396.5 c 128,-1,10
 992 368 992 368 976 342.5 c 128,-1,11
 960 317 960 317 939 297.5 c 128,-1,12
 918 278 918 278 891 267 c 128,-1,13
 864 256 864 256 832 256 c 0,14,15
 805 256 805 256 779.5 263 c 128,-1,16
 754 270 754 270 732 284 c 128,-1,17
 710 298 710 298 691.5 317 c 128,-1,18
 673 336 673 336 661 361 c 1,19,20
 646 337 646 337 626.5 318 c 128,-1,21
 607 299 607 299 584 285 c 128,-1,22
 561 271 561 271 534.5 263.5 c 128,-1,23
 508 256 508 256 480 256 c 0,24,25
 429 256 429 256 387.5 278 c 128,-1,26
 346 300 346 300 317 336 c 128,-1,27
 288 372 288 372 272 418 c 128,-1,28
 256 464 256 464 256 512 c 256,29,30
 256 560 256 560 272 606 c 128,-1,31
 288 652 288 652 317 688 c 128,-1,32
 346 724 346 724 387.5 746 c 128,-1,33
 429 768 429 768 480 768 c 0,34,35
 528 768 528 768 568.5 747.5 c 0,36,37
 609 728 609 728 640 692 c 1,38,-1
 640 768 l 1,39,-1
 704 768 l 1,40,-1
 704 512 l 1,41,-1
 704 448 l 2,42,43
 704 422 704 422 714 398.5 c 128,-1,44
 724 375 724 375 741.5 357.5 c 128,-1,45
 759 340 759 340 782.5 330 c 128,-1,46
 806 320 806 320 832 320 c 0,47,48
 854 320 854 320 872 329 c 128,-1,49
 890 338 890 338 904.5 353.5 c 128,-1,50
 919 369 919 369 929.5 388.5 c 128,-1,51
 940 408 940 408 947 430 c 128,-1,52
 954 452 954 452 957 473 c 128,-1,53
 960 494 960 494 960 512 c 0,54,55
 960 574 960 574 944 631 c 128,-1,56
 928 688 928 688 899 738 c 128,-1,57
 870 788 870 788 829 829 c 128,-1,58
 788 870 788 870 738 899 c 128,-1,59
 688 928 688 928 631 944 c 128,-1,60
 574 960 574 960 512 960 c 256,61,62
 450 960 450 960 393 944 c 128,-1,63
 336 928 336 928 286 899 c 128,-1,64
 236 870 236 870 195 829 c 128,-1,65
 154 788 154 788 125 738 c 128,-1,66
 96 688 96 688 80 631 c 128,-1,67
 64 574 64 574 64 512 c 256,68,69
 64 450 64 450 80 393 c 128,-1,70
 96 336 96 336 125 286 c 128,-1,71
 154 236 154 236 195 195 c 128,-1,72
 236 154 236 154 286 125 c 128,-1,73
 336 96 336 96 393 80 c 128,-1,74
 450 64 450 64 512 64 c 0,75,76
 602 64 602 64 684 98 c 1,77,-1
 708 39 l 1,78,79
 661 19 661 19 611.5 9.5 c 128,-1,80
 562 0 562 0 512 0 c 0,81,82
 442 0 442 0 376 18 c 128,-1,83
 310 36 310 36 253 69.5 c 128,-1,84
 196 103 196 103 149.5 149.5 c 128,-1,85
 103 196 103 196 69.5 253 c 128,-1,86
 36 310 36 310 18 375.5 c 128,-1,87
 0 441 0 441 0 512 c 0,88,89
 0 582 0 582 18 648 c 128,-1,90
 36 714 36 714 69.5 771 c 128,-1,91
 103 828 103 828 149.5 874.5 c 128,-1,92
 196 921 196 921 253 954.5 c 128,-1,93
 310 988 310 988 375.5 1006 c 128,-1,94
 441 1024 441 1024 512 1024 c 0,0,1
480 320 m 256,95,96
 518 320 518 320 547.5 337 c 128,-1,97
 577 354 577 354 597.5 382 c 128,-1,98
 618 410 618 410 629 444 c 128,-1,99
 640 478 640 478 640 512 c 256,100,101
 640 546 640 546 629 580 c 128,-1,102
 618 614 618 614 597.5 642 c 128,-1,103
 577 670 577 670 547.5 687 c 128,-1,104
 518 704 518 704 480 704 c 256,105,106
 442 704 442 704 412.5 687 c 128,-1,107
 383 670 383 670 362.5 642 c 128,-1,108
 342 614 342 614 331 580 c 128,-1,109
 320 546 320 546 320 512 c 256,110,111
 320 478 320 478 331 444 c 128,-1,112
 342 410 342 410 362.5 382 c 128,-1,113
 383 354 383 354 412.5 337 c 128,-1,114
 442 320 442 320 480 320 c 256,95,96
EndSplineSet
EndChar

StartChar: uniF03D
Encoding: 61501 61501 63
Width: 1024
Flags: W
LayerCount: 2
Fore
SplineSet
384 0 m 1,0,-1
 384 1024 l 1,1,-1
 448 1024 l 1,2,-1
 448 0 l 1,3,-1
 384 0 l 1,0,-1
576 1024 m 1,4,-1
 640 1024 l 1,5,-1
 640 0 l 1,6,-1
 576 0 l 1,7,-1
 576 1024 l 1,4,-1
EndSplineSet
EndChar

StartChar: uniF03E
Encoding: 61502 61502 64
Width: 1024
Flags: W
LayerCount: 2
Fore
SplineSet
64 576 m 1,0,1
 90 576 90 576 113.5 586 c 128,-1,2
 137 596 137 596 154.5 613.5 c 128,-1,3
 172 631 172 631 182 654.5 c 128,-1,4
 192 678 192 678 192 704 c 0,5,6
 192 740 192 740 190.5 775 c 128,-1,7
 189 810 189 810 192.5 844 c 128,-1,8
 196 878 196 878 208.5 909.5 c 128,-1,9
 221 941 221 941 248 968 c 256,10,11
 275 995 275 995 310.5 1009.5 c 128,-1,12
 346 1024 346 1024 384 1024 c 1,13,-1
 384 960 l 1,14,15
 358 960 358 960 334.5 950 c 128,-1,16
 311 940 311 940 293.5 922.5 c 128,-1,17
 276 905 276 905 266 881.5 c 128,-1,18
 256 858 256 858 256 832 c 0,19,20
 256 804 256 804 257 777 c 128,-1,21
 258 750 258 750 257 723.5 c 128,-1,22
 256 697 256 697 252 672.5 c 128,-1,23
 248 648 248 648 239 625 c 128,-1,24
 230 602 230 602 213 582 c 128,-1,25
 196 562 196 562 170 544 c 1,26,27
 196 526 196 526 213 506 c 128,-1,28
 230 486 230 486 239 463 c 128,-1,29
 248 440 248 440 252 415.5 c 128,-1,30
 256 391 256 391 257 364.5 c 128,-1,31
 258 338 258 338 257 311 c 128,-1,32
 256 284 256 284 256 256 c 0,33,34
 256 230 256 230 266 206.5 c 128,-1,35
 276 183 276 183 293.5 165.5 c 128,-1,36
 311 148 311 148 334.5 138 c 128,-1,37
 358 128 358 128 384 128 c 1,38,-1
 384 64 l 1,39,40
 346 64 346 64 310.5 78.5 c 128,-1,41
 275 93 275 93 248 120 c 256,42,43
 221 147 221 147 208.5 178.5 c 128,-1,44
 196 210 196 210 192.5 244 c 128,-1,45
 189 278 189 278 190.5 313 c 128,-1,46
 192 348 192 348 192 384 c 0,47,48
 192 410 192 410 182 433.5 c 128,-1,49
 172 457 172 457 154.5 474.5 c 128,-1,50
 137 492 137 492 113.5 502 c 128,-1,51
 90 512 90 512 64 512 c 1,52,-1
 64 576 l 1,0,1
640 1024 m 1,53,54
 678 1024 678 1024 713.5 1009.5 c 128,-1,55
 749 995 749 995 776 968 c 256,56,57
 803 941 803 941 815.5 909.5 c 128,-1,58
 828 878 828 878 831.5 844 c 128,-1,59
 835 810 835 810 833.5 775 c 128,-1,60
 832 740 832 740 832 704 c 0,61,62
 832 678 832 678 842 654.5 c 128,-1,63
 852 631 852 631 869.5 613.5 c 128,-1,64
 887 596 887 596 910.5 586 c 128,-1,65
 934 576 934 576 960 576 c 1,66,-1
 960 512 l 1,67,68
 934 512 934 512 910.5 502 c 128,-1,69
 887 492 887 492 869.5 474.5 c 128,-1,70
 852 457 852 457 842 433.5 c 128,-1,71
 832 410 832 410 832 384 c 0,72,73
 832 348 832 348 833.5 313 c 128,-1,74
 835 278 835 278 831.5 244 c 128,-1,75
 828 210 828 210 815.5 178.5 c 128,-1,76
 803 147 803 147 776 120 c 256,77,78
 749 93 749 93 713.5 78.5 c 128,-1,79
 678 64 678 64 640 64 c 1,80,-1
 640 128 l 1,81,82
 666 128 666 128 689.5 138 c 128,-1,83
 713 148 713 148 730.5 165.5 c 128,-1,84
 748 183 748 183 758 206.5 c 128,-1,85
 768 230 768 230 768 256 c 0,86,87
 768 284 768 284 767 311 c 128,-1,88
 766 338 766 338 767 364.5 c 128,-1,89
 768 391 768 391 772 415.5 c 128,-1,90
 776 440 776 440 785 463 c 128,-1,91
 794 486 794 486 811 506 c 128,-1,92
 828 526 828 526 854 544 c 1,93,94
 828 562 828 562 811 582 c 128,-1,95
 794 602 794 602 785 625 c 128,-1,96
 776 648 776 648 772 672.5 c 128,-1,97
 768 697 768 697 767 723.5 c 128,-1,98
 766 750 766 750 767 777 c 128,-1,99
 768 804 768 804 768 832 c 0,100,101
 768 858 768 858 758 881.5 c 128,-1,102
 748 905 748 905 730.5 922.5 c 128,-1,103
 713 940 713 940 689.5 950 c 128,-1,104
 666 960 666 960 640 960 c 1,105,-1
 640 1024 l 1,53,54
EndSplineSet
EndChar

StartChar: uniF03F
Encoding: 61503 61503 65
Width: 1024
Flags: W
LayerCount: 2
Fore
SplineSet
1024 544 m 1,0,-1
 1024 480 l 1,1,-1
 125 480 l 1,2,3
 124 480 124 480 518 86 c 1,4,-1
 474 42 l 1,5,-1
 3 512 l 1,6,7
 4 512 4 512 474 982 c 1,8,-1
 518 938 l 1,9,-1
 125 544 l 1,10,-1
 1024 544 l 1,11,-1
 1024 544 l 1,0,-1
EndSplineSet
EndChar

StartChar: uniF040
Encoding: 61504 61504 66
Width: 1024
Flags: W
LayerCount: 2
Fore
SplineSet
550 982 m 1,0,-1
 1021 512 l 1,1,2
 1020 512 1020 512 550 42 c 1,3,-1
 506 86 l 1,4,-1
 899 480 l 1,5,-1
 0 480 l 1,6,-1
 0 544 l 1,7,-1
 899 544 l 1,8,9
 900 544 900 544 506 938 c 1,10,-1
 550 982 l 1,11,-1
 550 982 l 1,0,-1
EndSplineSet
EndChar

StartChar: uniF041
Encoding: 61505 61505 67
Width: 1024
Flags: W
LayerCount: 2
Fore
SplineSet
982 550 m 1,0,-1
 938 506 l 1,1,-1
 544 899 l 1,2,-1
 544 0 l 1,3,-1
 480 0 l 1,4,-1
 480 899 l 1,5,6
 480 900 480 900 86 506 c 1,7,-1
 42 550 l 1,8,-1
 512 1021 l 1,9,10
 512 1020 512 1020 982 550 c 1,11,-1
 982 550 l 1,0,-1
EndSplineSet
EndChar

StartChar: uniF042
Encoding: 61506 61506 68
Width: 1024
Flags: W
LayerCount: 2
Fore
SplineSet
938 518 m 1,0,-1
 982 474 l 1,1,-1
 512 3 l 1,2,3
 512 4 512 4 42 474 c 1,4,-1
 86 518 l 1,5,-1
 480 125 l 1,6,-1
 480 1024 l 1,7,-1
 544 1024 l 1,8,-1
 544 125 l 1,9,10
 544 124 544 124 938 518 c 1,11,-1
 938 518 l 1,0,-1
EndSplineSet
EndChar

StartChar: uniF043
Encoding: 61507 61507 69
Width: 1024
Flags: W
LayerCount: 2
Fore
SplineSet
576 768 m 2,0,1
 654 768 654 768 723.5 739 c 0,2,3
 794 710 794 710 848 656 c 256,4,5
 902 602 902 602 931 532 c 128,-1,6
 960 462 960 462 960 384 c 0,7,8
 960 331 960 331 946 282 c 128,-1,9
 932 233 932 233 907 190.5 c 128,-1,10
 882 148 882 148 847 113 c 128,-1,11
 812 78 812 78 769.5 53 c 128,-1,12
 727 28 727 28 678 14 c 128,-1,13
 629 0 629 0 576 0 c 2,14,-1
 128 0 l 1,15,-1
 128 64 l 1,16,-1
 576 64 l 2,17,18
 620 64 620 64 661 75.5 c 128,-1,19
 702 87 702 87 737.5 107.5 c 128,-1,20
 773 128 773 128 802.5 157.5 c 128,-1,21
 832 187 832 187 852.5 222.5 c 128,-1,22
 873 258 873 258 884.5 299 c 128,-1,23
 896 340 896 340 896 384 c 256,24,25
 896 428 896 428 884.5 469 c 128,-1,26
 873 510 873 510 852.5 545.5 c 128,-1,27
 832 581 832 581 802.5 610.5 c 128,-1,28
 773 640 773 640 737.5 660.5 c 128,-1,29
 702 681 702 681 661 692.5 c 128,-1,30
 620 704 620 704 576 704 c 2,31,-1
 166 704 l 1,32,-1
 378 490 l 1,33,-1
 342 454 l 1,34,-1
 58 736 l 1,35,-1
 342 1018 l 1,36,-1
 378 982 l 1,37,-1
 166 768 l 1,38,-1
 576 768 l 2,0,1
EndSplineSet
EndChar

StartChar: uniF044
Encoding: 61508 61508 70
Width: 1024
Flags: W
LayerCount: 2
Fore
SplineSet
64 64 m 1,0,-1
 64 128 l 1,1,-1
 256 128 l 1,2,-1
 256 64 l 1,3,-1
 64 64 l 1,0,-1
598 918 m 1,4,-1
 973 544 l 1,5,6
 972 544 972 544 598 170 c 1,7,-1
 554 214 l 1,8,-1
 850 512 l 1,9,-1
 64 512 l 1,10,-1
 64 543 l 1,11,-1
 64 576 l 1,12,-1
 850 576 l 1,13,-1
 554 874 l 1,14,-1
 598 918 l 1,4,-1
EndSplineSet
EndChar

StartChar: uniF045
Encoding: 61509 61509 71
Width: 1024
Flags: W
LayerCount: 2
Fore
SplineSet
64 64 m 1,0,-1
 64 128 l 1,1,-1
 448 128 l 1,2,-1
 448 64 l 1,3,-1
 64 64 l 1,0,-1
598 918 m 1,4,-1
 973 544 l 1,5,6
 972 544 972 544 598 170 c 1,7,-1
 554 214 l 1,8,-1
 850 512 l 1,9,-1
 64 512 l 1,10,-1
 64 576 l 1,11,-1
 850 576 l 1,12,-1
 554 874 l 1,13,-1
 598 918 l 1,4,-1
EndSplineSet
EndChar

StartChar: uniF046
Encoding: 61510 61510 72
Width: 1024
Flags: W
LayerCount: 2
Fore
SplineSet
64 64 m 1,0,-1
 64 128 l 1,1,-1
 704 128 l 1,2,-1
 704 64 l 1,3,-1
 64 64 l 1,0,-1
554 214 m 1,4,-1
 850 512 l 1,5,-1
 64 512 l 1,6,-1
 64 576 l 1,7,-1
 850 576 l 1,8,-1
 554 874 l 1,9,-1
 598 918 l 1,10,-1
 973 544 l 1,11,12
 972 544 972 544 598 170 c 1,13,-1
 554 214 l 1,4,-1
EndSplineSet
EndChar

StartChar: uniF047
Encoding: 61511 61511 73
Width: 1024
Flags: W
LayerCount: 2
Fore
SplineSet
64 64 m 1,0,-1
 64 128 l 1,1,-1
 896 128 l 1,2,-1
 896 64 l 1,3,-1
 64 64 l 1,0,-1
554 214 m 1,4,-1
 850 512 l 1,5,-1
 64 512 l 1,6,-1
 64 576 l 1,7,-1
 850 576 l 1,8,-1
 554 874 l 1,9,-1
 598 918 l 1,10,-1
 973 544 l 1,11,12
 972 544 972 544 598 170 c 1,13,-1
 554 214 l 1,4,-1
EndSplineSet
EndChar

StartChar: uniF048
Encoding: 61512 61512 74
Width: 1024
Flags: W
LayerCount: 2
Fore
SplineSet
768 0 m 1,0,-1
 192 0 l 1,1,-1
 192 64 l 1,2,-1
 768 64 l 1,3,-1
 768 0 l 1,0,-1
790 426 m 1,4,-1
 480 112 l 1,5,-1
 170 426 l 1,6,-1
 214 470 l 1,7,-1
 448 236 l 1,8,-1
 448 1024 l 1,9,-1
 512 1024 l 1,10,-1
 512 236 l 1,11,-1
 746 470 l 1,12,-1
 790 426 l 1,4,-1
EndSplineSet
EndChar

StartChar: uniF049
Encoding: 61513 61513 75
Width: 1024
Flags: W
LayerCount: 2
Fore
SplineSet
768 1024 m 1,0,-1
 768 960 l 1,1,-1
 192 960 l 1,2,-1
 192 1024 l 1,3,-1
 768 1024 l 1,0,-1
790 598 m 1,4,-1
 746 554 l 1,5,-1
 512 788 l 1,6,-1
 512 0 l 1,7,-1
 448 0 l 1,8,-1
 448 788 l 1,9,-1
 214 554 l 1,10,-1
 170 598 l 1,11,-1
 480 912 l 1,12,-1
 790 598 l 1,4,-1
EndSplineSet
EndChar

StartChar: uniF04A
Encoding: 61514 61514 76
Width: 1024
Flags: W
LayerCount: 2
Fore
SplineSet
534 774 m 1,0,-1
 490 730 l 1,1,-1
 320 898 l 1,2,-1
 320 0 l 1,3,-1
 256 0 l 1,4,-1
 256 900 l 1,5,-1
 86 730 l 1,6,-1
 42 774 l 1,7,-1
 288 1021 l 1,8,-1
 534 774 l 1,0,-1
938 294 m 1,9,-1
 984 250 l 1,10,-1
 737 3 l 1,11,12
 737 4 737 4 490 250 c 1,13,-1
 536 294 l 1,14,-1
 704 126 l 1,15,-1
 704 1024 l 1,16,-1
 768 1024 l 1,17,-1
 768 125 l 1,18,-1
 938 294 l 1,9,-1
EndSplineSet
EndChar

StartChar: uniF04B
Encoding: 61515 61515 77
Width: 1024
Flags: W
LayerCount: 2
Fore
SplineSet
384 125 m 1,0,1
 384 124 384 124 538 278 c 1,2,-1
 582 234 l 1,3,-1
 352 3 l 1,4,5
 352 4 352 4 122 234 c 1,6,-1
 166 278 l 1,7,-1
 320 125 l 1,8,-1
 320 1024 l 1,9,-1
 384 1024 l 1,10,-1
 384 125 l 1,0,1
768 1024 m 1,11,-1
 832 1024 l 1,12,-1
 832 192 l 1,13,-1
 768 192 l 1,14,-1
 768 1024 l 1,11,-1
768 0 m 1,15,-1
 768 64 l 1,16,-1
 832 64 l 1,17,-1
 832 0 l 1,18,-1
 768 0 l 1,15,-1
EndSplineSet
EndChar

StartChar: uniF04C
Encoding: 61516 61516 78
Width: 1024
Flags: W
LayerCount: 2
Fore
SplineSet
128 384 m 1,0,-1
 128 448 l 1,1,-1
 448 448 l 1,2,-1
 448 128 l 1,3,-1
 384 128 l 1,4,-1
 384 338 l 1,5,-1
 46 2 l 1,6,-1
 2 46 l 1,7,-1
 338 384 l 1,8,-1
 128 384 l 1,0,-1
1022 978 m 1,9,-1
 686 640 l 1,10,-1
 896 640 l 1,11,-1
 896 576 l 1,12,-1
 576 576 l 1,13,-1
 576 896 l 1,14,-1
 640 896 l 1,15,-1
 640 686 l 1,16,-1
 978 1022 l 1,17,-1
 1022 978 l 1,9,-1
EndSplineSet
EndChar

StartChar: uniF04D
Encoding: 61517 61517 79
Width: 1024
Flags: W
LayerCount: 2
Fore
SplineSet
640 960 m 1,0,-1
 960 960 l 1,1,-1
 960 640 l 1,2,-1
 896 640 l 1,3,-1
 896 850 l 1,4,-1
 174 128 l 1,5,-1
 384 128 l 1,6,-1
 384 64 l 1,7,-1
 64 64 l 1,8,-1
 64 384 l 1,9,-1
 128 384 l 1,10,-1
 128 174 l 1,11,-1
 850 896 l 1,12,-1
 640 896 l 1,13,-1
 640 960 l 1,14,-1
 640 960 l 1,0,-1
EndSplineSet
EndChar

StartChar: uniF04E
Encoding: 61518 61518 80
Width: 1024
Flags: W
LayerCount: 2
Fore
SplineSet
832 512 m 1,0,-1
 896 512 l 1,1,-1
 896 128 l 1,2,-1
 512 128 l 1,3,-1
 512 192 l 1,4,-1
 786 192 l 1,5,-1
 138 842 l 1,6,-1
 182 886 l 1,7,-1
 832 238 l 1,8,-1
 832 512 l 1,9,-1
 832 512 l 1,0,-1
EndSplineSet
EndChar

StartChar: uniF04F
Encoding: 61519 61519 81
Width: 1024
Flags: W
LayerCount: 2
Fore
SplineSet
886 182 m 1,0,-1
 842 138 l 1,1,-1
 192 788 l 1,2,-1
 192 512 l 1,3,-1
 128 512 l 1,4,-1
 128 896 l 1,5,-1
 512 896 l 1,6,-1
 512 832 l 1,7,-1
 238 832 l 1,8,-1
 886 182 l 1,9,-1
 886 182 l 1,0,-1
EndSplineSet
EndChar

StartChar: uniF050
Encoding: 61520 61520 82
Width: 1024
Flags: W
LayerCount: 2
Fore
SplineSet
1024 544 m 1,0,-1
 1024 480 l 1,1,-1
 125 480 l 1,2,3
 124 480 124 480 326 278 c 1,4,-1
 282 234 l 1,5,-1
 3 512 l 1,6,7
 4 512 4 512 282 790 c 1,8,-1
 326 746 l 1,9,-1
 125 544 l 1,10,-1
 1024 544 l 1,11,-1
 1024 544 l 1,0,-1
EndSplineSet
EndChar

StartChar: uniF051
Encoding: 61521 61521 83
Width: 1024
Flags: W
LayerCount: 2
Fore
SplineSet
790 742 m 1,0,-1
 746 698 l 1,1,-1
 544 898 l 1,2,-1
 544 0 l 1,3,-1
 480 0 l 1,4,-1
 480 900 l 1,5,-1
 278 698 l 1,6,-1
 234 742 l 1,7,-1
 512 1021 l 1,8,9
 512 1020 512 1020 790 742 c 1,10,-1
 790 742 l 1,0,-1
EndSplineSet
EndChar

StartChar: uniF052
Encoding: 61522 61522 84
Width: 1024
Flags: W
LayerCount: 2
Fore
SplineSet
702 500 m 1,0,-1
 594 215 l 1,1,-1
 308 322 l 1,2,-1
 332 382 l 1,3,-1
 498 320 l 1,4,5
 468 380 468 380 452 445 c 128,-1,6
 436 510 436 510 436 577 c 0,7,8
 436 650 436 650 456 720 c 128,-1,9
 476 790 476 790 518 850 c 1,10,-1
 570 814 l 1,11,12
 534 762 534 762 517 701.5 c 128,-1,13
 500 641 500 641 500 578 c 0,14,15
 500 512 500 512 517 447.5 c 0,16,17
 534 384 534 384 568 326 c 1,18,-1
 642 524 l 1,19,-1
 702 500 l 1,0,-1
EndSplineSet
EndChar

StartChar: uniF053
Encoding: 61523 61523 85
Width: 1024
Flags: W
LayerCount: 2
Fore
SplineSet
716 322 m 1,0,-1
 430 215 l 1,1,2
 430 214 430 214 322 500 c 1,3,-1
 382 524 l 1,4,-1
 456 326 l 1,5,6
 490 384 490 384 507 448 c 128,-1,7
 524 512 524 512 524 578 c 0,8,9
 524 641 524 641 507 701.5 c 128,-1,10
 490 762 490 762 454 814 c 1,11,-1
 506 850 l 1,12,13
 548 790 548 790 568 720 c 128,-1,14
 588 650 588 650 588 577 c 0,15,16
 588 509 588 509 572 444.5 c 128,-1,17
 556 380 556 380 526 320 c 1,18,-1
 692 382 l 1,19,-1
 716 322 l 1,0,-1
EndSplineSet
EndChar

StartChar: uniF054
Encoding: 61524 61524 86
Width: 1024
Flags: W
LayerCount: 2
Fore
SplineSet
238 768 m 1,0,-1
 1024 768 l 1,1,-1
 1024 704 l 1,2,-1
 238 704 l 1,3,-1
 342 598 l 1,4,-1
 298 554 l 1,5,-1
 115 736 l 1,6,7
 116 736 116 736 298 918 c 1,8,-1
 342 874 l 1,9,-1
 238 768 l 1,0,-1
64 896 m 1,10,-1
 64 576 l 1,11,-1
 0 576 l 1,12,-1
 0 896 l 1,13,-1
 64 896 l 1,10,-1
682 426 m 1,14,-1
 726 470 l 1,15,-1
 909 288 l 1,16,17
 908 288 908 288 726 106 c 1,18,-1
 682 150 l 1,19,-1
 786 256 l 1,20,-1
 0 256 l 1,21,-1
 0 320 l 1,22,-1
 786 320 l 1,23,-1
 682 426 l 1,14,-1
960 128 m 1,24,-1
 960 448 l 1,25,-1
 1024 448 l 1,26,-1
 1024 128 l 1,27,-1
 960 128 l 1,24,-1
EndSplineSet
EndChar

StartChar: uniF055
Encoding: 61525 61525 87
Width: 1024
Flags: W
LayerCount: 2
Fore
SplineSet
1024 320 m 1,0,-1
 1024 256 l 1,1,-1
 125 256 l 1,2,3
 124 256 124 256 206 174 c 1,4,-1
 162 130 l 1,5,-1
 3 288 l 1,6,7
 4 288 4 288 162 446 c 1,8,-1
 206 402 l 1,9,-1
 125 320 l 1,10,-1
 1024 320 l 1,0,-1
818 622 m 1,11,-1
 899 704 l 1,12,-1
 0 704 l 1,13,-1
 0 768 l 1,14,-1
 899 768 l 1,15,16
 900 768 900 768 818 850 c 1,17,-1
 862 894 l 1,18,-1
 1021 736 l 1,19,20
 1020 736 1020 736 862 578 c 1,21,-1
 818 622 l 1,11,-1
EndSplineSet
EndChar

StartChar: uniF056
Encoding: 61526 61526 88
Width: 1024
Flags: W
LayerCount: 2
Fore
SplineSet
130 658 m 1,0,-1
 174 702 l 1,1,-1
 525 352 l 1,2,3
 524 352 524 352 174 2 c 1,4,-1
 130 46 l 1,5,-1
 435 352 l 1,6,-1
 130 658 l 1,0,-1
894 978 m 1,7,-1
 589 672 l 1,8,9
 588 672 588 672 894 366 c 1,10,-1
 850 322 l 1,11,-1
 499 672 l 1,12,13
 500 672 500 672 850 1022 c 1,14,-1
 894 978 l 1,7,-1
EndSplineSet
EndChar

StartChar: uniF057
Encoding: 61527 61527 89
Width: 1024
Flags: W
LayerCount: 2
Fore
SplineSet
896 384 m 1,0,-1
 128 384 l 1,1,-1
 128 640 l 1,2,-1
 192 640 l 1,3,-1
 192 448 l 1,4,-1
 832 448 l 1,5,-1
 832 640 l 1,6,-1
 896 640 l 1,7,-1
 896 384 l 1,8,-1
 896 384 l 1,0,-1
EndSplineSet
EndChar

StartChar: uniF058
Encoding: 61528 61528 90
Width: 1101
Flags: W
LayerCount: 2
Fore
SplineSet
448 960 m 1,0,-1
 1101 960 l 1,1,-1
 1101 64 l 1,2,-1
 448 64 l 1,3,-1
 0 512 l 1,4,-1
 448 960 l 1,0,-1
1037 128 m 1,5,-1
 1037 896 l 1,6,7
 1036 896 1036 896 474 896 c 1,8,-1
 90 512 l 1,9,-1
 474 128 l 1,10,-1
 1037 128 l 1,5,-1
470 682 m 1,11,-1
 516 726 l 1,12,-1
 686 558 l 1,13,-1
 854 726 l 1,14,-1
 900 682 l 1,15,-1
 730 512 l 1,16,-1
 900 342 l 1,17,-1
 854 298 l 1,18,-1
 686 466 l 1,19,-1
 516 298 l 1,20,-1
 470 342 l 1,21,-1
 640 512 l 1,22,-1
 470 682 l 1,11,-1
EndSplineSet
EndChar

StartChar: uniF059
Encoding: 61529 61529 91
Width: 1024
Flags: W
LayerCount: 2
Fore
SplineSet
0 384 m 1,0,-1
 0 448 l 1,1,-1
 64 448 l 1,2,-1
 64 384 l 1,3,-1
 0 384 l 1,0,-1
0 576 m 1,4,-1
 0 640 l 1,5,-1
 64 640 l 1,6,-1
 64 576 l 1,7,-1
 0 576 l 1,4,-1
192 576 m 1,8,-1
 192 640 l 1,9,-1
 1024 640 l 1,10,-1
 1024 576 l 1,11,-1
 192 576 l 1,8,-1
0 768 m 1,12,-1
 0 832 l 1,13,-1
 64 832 l 1,14,-1
 64 768 l 1,15,-1
 0 768 l 1,12,-1
192 832 m 1,16,-1
 1024 832 l 1,17,-1
 1024 768 l 1,18,-1
 192 768 l 1,19,-1
 192 832 l 1,16,-1
192 384 m 1,20,-1
 192 448 l 1,21,-1
 1024 448 l 1,22,-1
 1024 384 l 1,23,-1
 192 384 l 1,20,-1
0 192 m 1,24,-1
 0 256 l 1,25,-1
 64 256 l 1,26,-1
 64 192 l 1,27,-1
 0 192 l 1,24,-1
192 192 m 1,28,-1
 192 256 l 1,29,-1
 1024 256 l 1,30,-1
 1024 192 l 1,31,-1
 192 192 l 1,28,-1
EndSplineSet
EndChar

StartChar: uniF05A
Encoding: 61530 61530 92
Width: 1024
Flags: W
LayerCount: 2
Fore
SplineSet
192 128 m 1,0,-1
 192 192 l 1,1,-1
 1024 192 l 1,2,-1
 1024 128 l 1,3,-1
 192 128 l 1,0,-1
0 832 m 1,4,-1
 0 896 l 1,5,-1
 64 896 l 1,6,-1
 64 832 l 1,7,-1
 0 832 l 1,4,-1
0 320 m 1,8,-1
 0 384 l 1,9,-1
 64 384 l 1,10,-1
 64 320 l 1,11,-1
 0 320 l 1,8,-1
192 320 m 1,12,-1
 192 384 l 1,13,-1
 1024 384 l 1,14,-1
 1024 320 l 1,15,-1
 192 320 l 1,12,-1
192 896 m 1,16,-1
 1024 896 l 1,17,-1
 1024 832 l 1,18,-1
 192 832 l 1,19,-1
 192 896 l 1,16,-1
192 640 m 1,20,-1
 192 704 l 1,21,-1
 1024 704 l 1,22,-1
 1024 640 l 1,23,-1
 192 640 l 1,20,-1
EndSplineSet
EndChar

StartChar: uniF05B
Encoding: 61531 61531 93
Width: 1024
Flags: W
LayerCount: 2
Fore
SplineSet
0 768 m 1,0,-1
 0 832 l 1,1,-1
 64 832 l 1,2,-1
 64 768 l 1,3,-1
 0 768 l 1,0,-1
192 832 m 1,4,-1
 1024 832 l 1,5,-1
 1024 768 l 1,6,-1
 192 768 l 1,7,-1
 192 832 l 1,4,-1
0 192 m 1,8,-1
 0 256 l 1,9,-1
 64 256 l 1,10,-1
 64 192 l 1,11,-1
 0 192 l 1,8,-1
192 192 m 1,12,-1
 192 256 l 1,13,-1
 1024 256 l 1,14,-1
 1024 192 l 1,15,-1
 192 192 l 1,12,-1
448 576 m 1,16,-1
 448 640 l 1,17,-1
 1024 640 l 1,18,-1
 1024 576 l 1,19,-1
 448 576 l 1,16,-1
704 384 m 1,20,-1
 704 448 l 1,21,-1
 1024 448 l 1,22,-1
 1024 384 l 1,23,-1
 704 384 l 1,20,-1
EndSplineSet
EndChar

StartChar: uniF05C
Encoding: 61532 61532 94
Width: 1024
Flags: W
LayerCount: 2
Fore
SplineSet
0 704 m 1,0,-1
 1024 704 l 1,1,-1
 1024 768 l 1,2,-1
 0 768 l 1,3,-1
 0 704 l 1,4,-1
 0 704 l 1,0,-1
0 192 m 1,5,-1
 1024 192 l 1,6,-1
 1024 256 l 1,7,-1
 0 256 l 1,8,-1
 0 192 l 1,9,-1
 0 192 l 1,5,-1
0 448 m 1,10,-1
 1024 448 l 1,11,-1
 1024 512 l 1,12,-1
 0 512 l 1,13,-1
 0 448 l 1,14,-1
 0 448 l 1,10,-1
EndSplineSet
EndChar

StartChar: uniF05D
Encoding: 61533 61533 95
Width: 1024
Flags: W
LayerCount: 2
Fore
SplineSet
0 640 m 1,0,-1
 1024 640 l 1,1,-1
 1024 576 l 1,2,-1
 0 576 l 1,3,-1
 0 640 l 1,0,-1
0 384 m 1,4,-1
 0 448 l 1,5,-1
 1024 448 l 1,6,-1
 1024 384 l 1,7,-1
 0 384 l 1,4,-1
EndSplineSet
EndChar

StartChar: uniF05E
Encoding: 61534 61534 96
Width: 1024
Flags: W
LayerCount: 2
Fore
SplineSet
0 256 m 1,0,-1
 0 320 l 1,1,-1
 640 320 l 1,2,-1
 640 256 l 1,3,-1
 0 256 l 1,0,-1
0 576 m 1,4,-1
 1024 576 l 1,5,-1
 1024 512 l 1,6,-1
 0 512 l 1,7,-1
 0 576 l 1,4,-1
832 832 m 1,8,-1
 832 768 l 1,9,-1
 0 768 l 1,10,-1
 0 832 l 1,11,-1
 832 832 l 1,8,-1
EndSplineSet
EndChar

StartChar: uniF05F
Encoding: 61535 61535 97
Width: 1024
Flags: W
LayerCount: 2
Fore
SplineSet
384 832 m 1,0,-1
 1024 832 l 1,1,-1
 1024 768 l 1,2,-1
 384 768 l 1,3,-1
 384 832 l 1,0,-1
384 576 m 1,4,-1
 384 640 l 1,5,-1
 1024 640 l 1,6,-1
 1024 576 l 1,7,-1
 384 576 l 1,4,-1
384 384 m 1,8,-1
 384 448 l 1,9,-1
 1024 448 l 1,10,-1
 1024 384 l 1,11,-1
 384 384 l 1,8,-1
384 192 m 1,12,-1
 384 256 l 1,13,-1
 1024 256 l 1,14,-1
 1024 192 l 1,15,-1
 384 192 l 1,12,-1
96 386 m 1,16,-1
 239 529 l 1,17,-1
 273 495 l 1,18,-1
 96 318 l 1,19,-1
 7 407 l 1,20,-1
 41 441 l 1,21,-1
 96 386 l 1,16,-1
96 770 m 1,22,-1
 239 913 l 1,23,-1
 273 879 l 1,24,-1
 96 702 l 1,25,-1
 7 791 l 1,26,-1
 41 825 l 1,27,-1
 96 770 l 1,22,-1
EndSplineSet
EndChar

StartChar: uniF060
Encoding: 61536 61536 98
Width: 1024
Flags: W
LayerCount: 2
Fore
SplineSet
647 832 m 1,0,-1
 647 768 l 1,1,-1
 7 768 l 1,2,-1
 7 832 l 1,3,-1
 647 832 l 1,4,-1
 647 832 l 1,0,-1
647 576 m 1,5,-1
 7 576 l 1,6,-1
 7 640 l 1,7,-1
 647 640 l 1,8,-1
 647 576 l 1,9,-1
 647 576 l 1,5,-1
647 384 m 1,10,-1
 7 384 l 1,11,-1
 7 448 l 1,12,-1
 647 448 l 1,13,-1
 647 384 l 1,14,-1
 647 384 l 1,10,-1
647 192 m 1,15,-1
 7 192 l 1,16,-1
 7 256 l 1,17,-1
 647 256 l 1,18,-1
 647 192 l 1,19,-1
 647 192 l 1,15,-1
847 386 m 1,20,-1
 990 529 l 1,21,-1
 1024 495 l 1,22,-1
 847 318 l 1,23,-1
 758 407 l 1,24,-1
 792 441 l 1,25,-1
 847 386 l 1,26,-1
 847 386 l 1,20,-1
847 770 m 1,27,-1
 990 913 l 1,28,-1
 1024 879 l 1,29,-1
 847 702 l 1,30,-1
 758 791 l 1,31,-1
 792 825 l 1,32,-1
 847 770 l 1,33,-1
 847 770 l 1,27,-1
EndSplineSet
EndChar

StartChar: uniF061
Encoding: 61537 61537 99
Width: 1024
Flags: W
LayerCount: 2
Fore
SplineSet
512 832 m 1,0,-1
 1024 832 l 1,1,-1
 1024 768 l 1,2,-1
 512 768 l 1,3,-1
 512 832 l 1,0,-1
512 256 m 1,4,-1
 512 320 l 1,5,-1
 1024 320 l 1,6,-1
 1024 256 l 1,7,-1
 512 256 l 1,4,-1
512 512 m 1,8,-1
 512 576 l 1,9,-1
 1024 576 l 1,10,-1
 1024 512 l 1,11,-1
 512 512 l 1,8,-1
896 704 m 1,12,-1
 896 640 l 1,13,-1
 512 640 l 1,14,-1
 512 704 l 1,15,-1
 896 704 l 1,12,-1
896 448 m 1,16,-1
 896 384 l 1,17,-1
 512 384 l 1,18,-1
 512 448 l 1,19,-1
 896 448 l 1,16,-1
206 658 m 1,20,-1
 125 576 l 1,21,-1
 448 576 l 1,22,-1
 448 512 l 1,23,-1
 125 512 l 1,24,25
 124 512 124 512 206 430 c 1,26,-1
 162 386 l 1,27,-1
 3 544 l 1,28,29
 4 544 4 544 162 702 c 1,30,-1
 206 658 l 1,20,-1
EndSplineSet
EndChar

StartChar: uniF062
Encoding: 61538 61538 100
Width: 1024
Flags: W
LayerCount: 2
Fore
SplineSet
512 832 m 1,0,-1
 1024 832 l 1,1,-1
 1024 768 l 1,2,-1
 512 768 l 1,3,-1
 512 832 l 1,0,-1
512 256 m 1,4,-1
 512 320 l 1,5,-1
 1024 320 l 1,6,-1
 1024 256 l 1,7,-1
 512 256 l 1,4,-1
512 512 m 1,8,-1
 512 576 l 1,9,-1
 1024 576 l 1,10,-1
 1024 512 l 1,11,-1
 512 512 l 1,8,-1
896 704 m 1,12,-1
 896 640 l 1,13,-1
 512 640 l 1,14,-1
 512 704 l 1,15,-1
 896 704 l 1,12,-1
896 448 m 1,16,-1
 896 384 l 1,17,-1
 512 384 l 1,18,-1
 512 448 l 1,19,-1
 896 448 l 1,16,-1
242 658 m 1,20,-1
 286 702 l 1,21,-1
 445 544 l 1,22,23
 444 544 444 544 286 386 c 1,24,-1
 242 430 l 1,25,-1
 323 512 l 1,26,-1
 0 512 l 1,27,-1
 0 576 l 1,28,-1
 323 576 l 1,29,-1
 242 658 l 1,20,-1
EndSplineSet
EndChar

StartChar: uniF063
Encoding: 61539 61539 101
Width: 1024
Flags: W
LayerCount: 2
Fore
SplineSet
512 832 m 1,0,-1
 0 832 l 1,1,-1
 0 768 l 1,2,-1
 512 768 l 1,3,-1
 512 832 l 1,0,-1
512 256 m 1,4,-1
 512 320 l 1,5,-1
 0 320 l 1,6,-1
 0 256 l 1,7,-1
 512 256 l 1,4,-1
512 512 m 1,8,-1
 512 576 l 1,9,-1
 0 576 l 1,10,-1
 0 512 l 1,11,-1
 512 512 l 1,8,-1
128 704 m 1,12,-1
 128 640 l 1,13,-1
 512 640 l 1,14,-1
 512 704 l 1,15,-1
 128 704 l 1,12,-1
128 448 m 1,16,-1
 128 384 l 1,17,-1
 512 384 l 1,18,-1
 512 448 l 1,19,-1
 128 448 l 1,16,-1
783 658 m 1,20,-1
 738 702 l 1,21,-1
 579 544 l 1,22,-1
 738 386 l 1,23,-1
 783 430 l 1,24,-1
 701 512 l 1,25,-1
 1024 512 l 1,26,-1
 1024 576 l 1,27,-1
 701 576 l 1,28,-1
 783 658 l 1,20,-1
EndSplineSet
EndChar

StartChar: uniF064
Encoding: 61540 61540 102
Width: 1024
Flags: W
LayerCount: 2
Fore
SplineSet
384 768 m 1,0,-1
 1024 768 l 1,1,-1
 1024 704 l 1,2,-1
 384 704 l 1,3,-1
 384 768 l 1,0,-1
384 448 m 1,4,-1
 384 512 l 1,5,-1
 1024 512 l 1,6,-1
 1024 448 l 1,7,-1
 384 448 l 1,4,-1
384 192 m 1,8,-1
 384 256 l 1,9,-1
 1024 256 l 1,10,-1
 1024 192 l 1,11,-1
 384 192 l 1,8,-1
128 640 m 1,12,-1
 0 768 l 1,13,-1
 256 768 l 1,14,-1
 128 640 l 1,12,-1
EndSplineSet
EndChar

StartChar: uniF065
Encoding: 61541 61541 103
Width: 1024
Flags: W
LayerCount: 2
Fore
SplineSet
1024 512 m 1,0,-1
 320 512 l 1,1,-1
 320 576 l 1,2,-1
 1024 576 l 1,3,-1
 1024 512 l 1,4,-1
 1024 512 l 1,0,-1
128 576 m 1,5,-1
 0 448 l 1,6,-1
 256 448 l 1,7,-1
 128 576 l 1,8,-1
 128 576 l 1,5,-1
EndSplineSet
EndChar

StartChar: uniF066
Encoding: 61542 61542 104
Width: 1024
Flags: W
LayerCount: 2
Fore
SplineSet
0 192 m 1,0,-1
 0 384 l 1,1,-1
 192 384 l 1,2,-1
 192 192 l 1,3,-1
 0 192 l 1,0,-1
64 320 m 1,4,-1
 64 256 l 1,5,-1
 128 256 l 1,6,-1
 128 320 l 1,7,-1
 64 320 l 1,4,-1
0 448 m 1,8,-1
 0 640 l 1,9,-1
 192 640 l 1,10,-1
 192 448 l 1,11,-1
 0 448 l 1,8,-1
64 576 m 1,12,-1
 64 512 l 1,13,-1
 128 512 l 1,14,-1
 128 576 l 1,15,-1
 64 576 l 1,12,-1
0 704 m 1,16,-1
 0 896 l 1,17,-1
 192 896 l 1,18,-1
 192 704 l 1,19,-1
 0 704 l 1,16,-1
64 832 m 1,20,-1
 64 768 l 1,21,-1
 128 768 l 1,22,-1
 128 832 l 1,23,-1
 64 832 l 1,20,-1
320 512 m 1,24,-1
 320 576 l 1,25,-1
 1024 576 l 1,26,-1
 1024 512 l 1,27,-1
 320 512 l 1,24,-1
320 832 m 1,28,-1
 1024 832 l 1,29,-1
 1024 768 l 1,30,-1
 320 768 l 1,31,-1
 320 832 l 1,28,-1
320 256 m 1,32,-1
 320 320 l 1,33,-1
 1024 320 l 1,34,-1
 1024 256 l 1,35,-1
 320 256 l 1,32,-1
EndSplineSet
EndChar

StartChar: uniF067
Encoding: 61543 61543 105
Width: 1024
Flags: W
LayerCount: 2
Fore
SplineSet
1022 414 m 1,0,-1
 864 573 l 1,1,2
 864 572 864 572 706 414 c 1,3,-1
 750 370 l 1,4,-1
 832 451 l 1,5,6
 832 452 832 452 832 160 c 1,7,-1
 896 160 l 1,8,-1
 896 451 l 1,9,10
 896 452 896 452 978 370 c 1,11,-1
 1022 414 l 1,12,-1
 1022 414 l 1,0,-1
896 832 m 1,13,-1
 320 832 l 1,14,-1
 320 896 l 1,15,-1
 896 896 l 1,16,-1
 896 832 l 1,17,-1
 896 832 l 1,13,-1
768 192 m 1,18,-1
 320 192 l 1,19,-1
 320 256 l 1,20,-1
 768 256 l 1,21,-1
 768 192 l 1,22,-1
 768 192 l 1,18,-1
192 768 m 1,23,-1
 0 768 l 1,24,-1
 0 960 l 1,25,-1
 192 960 l 1,26,-1
 192 768 l 1,27,-1
 192 768 l 1,23,-1
64 832 m 1,28,-1
 128 832 l 1,29,-1
 128 896 l 1,30,-1
 64 896 l 1,31,-1
 64 832 l 1,32,-1
 64 832 l 1,28,-1
192 448 m 1,33,-1
 0 448 l 1,34,-1
 0 640 l 1,35,-1
 192 640 l 1,36,-1
 192 448 l 1,37,-1
 192 448 l 1,33,-1
64 512 m 1,38,-1
 128 512 l 1,39,-1
 128 576 l 1,40,-1
 64 576 l 1,41,-1
 64 512 l 1,42,-1
 64 512 l 1,38,-1
192 128 m 1,43,-1
 0 128 l 1,44,-1
 0 320 l 1,45,-1
 192 320 l 1,46,-1
 192 128 l 1,47,-1
 192 128 l 1,43,-1
64 192 m 1,48,-1
 128 192 l 1,49,-1
 128 256 l 1,50,-1
 64 256 l 1,51,-1
 64 192 l 1,52,-1
 64 192 l 1,48,-1
704 512 m 1,53,-1
 320 512 l 1,54,-1
 320 576 l 1,55,-1
 768 576 l 1,56,-1
 704 512 l 1,57,-1
 704 512 l 1,53,-1
EndSplineSet
EndChar

StartChar: uniF068
Encoding: 61544 61544 106
Width: 1024
Flags: W
LayerCount: 2
Fore
SplineSet
1024 832 m 1,0,-1
 1024 768 l 1,1,-1
 0 768 l 1,2,-1
 0 832 l 1,3,-1
 1024 832 l 1,0,-1
0 640 m 1,4,-1
 1024 640 l 1,5,-1
 1024 576 l 1,6,-1
 0 576 l 1,7,-1
 0 640 l 1,4,-1
640 192 m 1,8,-1
 0 192 l 1,9,-1
 0 256 l 1,10,-1
 640 256 l 1,11,-1
 640 192 l 1,8,-1
704 401 m 1,12,-1
 1024 481 l 1,13,-1
 1024 128 l 2,14,15
 1024 112 1024 112 1017 100.5 c 128,-1,16
 1010 89 1010 89 998 80.5 c 128,-1,17
 986 72 986 72 972 68 c 128,-1,18
 958 64 958 64 944 64 c 256,19,20
 930 64 930 64 916 68 c 128,-1,21
 902 72 902 72 890 80.5 c 128,-1,22
 878 89 878 89 871 100.5 c 128,-1,23
 864 112 864 112 864 128 c 256,24,25
 864 144 864 144 871 155.5 c 128,-1,26
 878 167 878 167 890 175.5 c 128,-1,27
 902 184 902 184 916 188 c 128,-1,28
 930 192 930 192 944 192 c 0,29,30
 952 192 952 192 960 190 c 1,31,-1
 960 399 l 1,32,-1
 768 351 l 1,33,-1
 768 64 l 2,34,35
 768 48 768 48 760 36 c 128,-1,36
 752 24 752 24 740 16 c 128,-1,37
 728 8 728 8 713 4 c 128,-1,38
 698 0 698 0 684 0 c 256,39,40
 670 0 670 0 655 4 c 128,-1,41
 640 8 640 8 628 16 c 128,-1,42
 616 24 616 24 608 36 c 128,-1,43
 600 48 600 48 600 64 c 256,44,45
 600 80 600 80 608 92 c 128,-1,46
 616 104 616 104 628 112 c 128,-1,47
 640 120 640 120 655 124 c 128,-1,48
 670 128 670 128 684 128 c 0,49,50
 689 128 689 128 694 127.5 c 128,-1,51
 699 127 699 127 704 126 c 1,52,-1
 704 401 l 1,12,-1
640 384 m 1,53,-1
 0 384 l 1,54,-1
 0 448 l 1,55,-1
 640 448 l 1,56,-1
 640 384 l 1,53,-1
EndSplineSet
EndChar

StartChar: uniF069
Encoding: 61545 61545 107
Width: 1024
Flags: W
LayerCount: 2
Fore
SplineSet
0 960 m 1,0,-1
 1024 960 l 1,1,-1
 1024 896 l 1,2,-1
 0 896 l 1,3,-1
 0 960 l 1,0,-1
0 128 m 1,4,-1
 0 192 l 1,5,-1
 1024 192 l 1,6,-1
 1024 128 l 1,7,-1
 0 128 l 1,4,-1
0 512 m 1,8,-1
 0 576 l 1,9,-1
 1024 576 l 1,10,-1
 1024 512 l 1,11,-1
 0 512 l 1,8,-1
256 704 m 1,12,-1
 256 768 l 1,13,-1
 1024 768 l 1,14,-1
 1024 704 l 1,15,-1
 256 704 l 1,12,-1
256 320 m 1,16,-1
 256 384 l 1,17,-1
 1024 384 l 1,18,-1
 1024 320 l 1,19,-1
 256 320 l 1,16,-1
EndSplineSet
EndChar

StartChar: uniF06A
Encoding: 61546 61546 108
Width: 1024
Flags: W
LayerCount: 2
Fore
SplineSet
0 960 m 1,0,-1
 1024 960 l 1,1,-1
 1024 896 l 1,2,-1
 0 896 l 1,3,-1
 0 960 l 1,0,-1
128 768 m 1,4,-1
 896 768 l 1,5,-1
 896 704 l 1,6,-1
 128 704 l 1,7,-1
 128 768 l 1,4,-1
128 384 m 1,8,-1
 896 384 l 1,9,-1
 896 320 l 1,10,-1
 128 320 l 1,11,-1
 128 384 l 1,8,-1
0 128 m 1,12,-1
 0 192 l 1,13,-1
 1024 192 l 1,14,-1
 1024 128 l 1,15,-1
 0 128 l 1,12,-1
0 512 m 1,16,-1
 0 576 l 1,17,-1
 1024 576 l 1,18,-1
 1024 512 l 1,19,-1
 0 512 l 1,16,-1
EndSplineSet
EndChar

StartChar: uniF06B
Encoding: 61547 61547 109
Width: 1024
Flags: W
LayerCount: 2
Fore
SplineSet
1024 960 m 1,0,-1
 1024 896 l 1,1,-1
 0 896 l 1,2,-1
 0 960 l 1,3,-1
 1024 960 l 1,0,-1
1024 128 m 1,4,-1
 0 128 l 1,5,-1
 0 192 l 1,6,-1
 1024 192 l 1,7,-1
 1024 128 l 1,4,-1
1024 512 m 1,8,-1
 0 512 l 1,9,-1
 0 576 l 1,10,-1
 1024 576 l 1,11,-1
 1024 512 l 1,8,-1
768 704 m 1,12,-1
 0 704 l 1,13,-1
 0 768 l 1,14,-1
 768 768 l 1,15,-1
 768 704 l 1,12,-1
768 320 m 1,16,-1
 0 320 l 1,17,-1
 0 384 l 1,18,-1
 768 384 l 1,19,-1
 768 320 l 1,16,-1
EndSplineSet
EndChar

StartChar: uniF06C
Encoding: 61548 61548 110
Width: 1024
Flags: W
LayerCount: 2
Fore
SplineSet
874 790 m 1,0,-1
 918 746 l 1,1,-1
 384 210 l 1,2,-1
 106 490 l 1,3,-1
 150 534 l 1,4,-1
 384 302 l 1,5,-1
 874 790 l 1,6,-1
 874 790 l 1,0,-1
EndSplineSet
EndChar

StartChar: uniF06D
Encoding: 61549 61549 111
Width: 1024
Flags: W
LayerCount: 2
Fore
SplineSet
902 858 m 1,0,-1
 558 512 l 1,1,-1
 902 166 l 1,2,-1
 858 122 l 1,3,-1
 512 466 l 1,4,-1
 166 122 l 1,5,-1
 122 166 l 1,6,-1
 466 512 l 1,7,-1
 122 858 l 1,8,-1
 166 902 l 1,9,-1
 512 558 l 1,10,-1
 858 902 l 1,11,-1
 902 858 l 1,12,-1
 902 858 l 1,0,-1
EndSplineSet
EndChar

StartChar: uniF06E
Encoding: 61550 61550 112
Width: 1024
Flags: W
LayerCount: 2
Fore
SplineSet
0 1024 m 1,0,-1
 1024 1024 l 1,1,-1
 1024 0 l 1,2,-1
 0 0 l 1,3,-1
 0 1024 l 1,0,-1
384 210 m 1,4,-1
 854 682 l 1,5,-1
 810 726 l 1,6,-1
 384 302 l 1,7,-1
 214 470 l 1,8,-1
 170 426 l 1,9,-1
 384 210 l 1,4,-1
EndSplineSet
EndChar

StartChar: uniF06F
Encoding: 61551 61551 113
Width: 1024
Flags: W
LayerCount: 2
Fore
SplineSet
0 1024 m 1,0,-1
 1024 1024 l 1,1,-1
 1024 0 l 1,2,-1
 0 0 l 1,3,-1
 0 1024 l 1,0,-1
960 64 m 1,4,-1
 960 960 l 1,5,-1
 64 960 l 1,6,-1
 64 64 l 1,7,-1
 960 64 l 1,4,-1
384 210 m 1,8,-1
 170 426 l 1,9,-1
 214 470 l 1,10,-1
 384 302 l 1,11,-1
 810 726 l 1,12,-1
 854 682 l 1,13,-1
 384 210 l 1,14,-1
 384 210 l 1,8,-1
EndSplineSet
EndChar

StartChar: uniF070
Encoding: 61552 61552 114
Width: 1024
Flags: W
LayerCount: 2
Fore
SplineSet
0 1024 m 1,0,-1
 1024 1024 l 1,1,-1
 1024 0 l 1,2,-1
 0 0 l 1,3,-1
 0 1024 l 1,4,-1
 0 1024 l 1,0,-1
EndSplineSet
EndChar

StartChar: uniF071
Encoding: 61553 61553 115
Width: 1024
Flags: W
LayerCount: 2
Fore
SplineSet
0 1024 m 1,0,-1
 1024 1024 l 1,1,-1
 1024 0 l 1,2,-1
 0 0 l 1,3,-1
 0 1024 l 1,0,-1
960 64 m 1,4,-1
 960 960 l 1,5,-1
 64 960 l 1,6,-1
 64 64 l 1,7,-1
 960 64 l 1,4,-1
EndSplineSet
EndChar

StartChar: uniF072
Encoding: 61554 61554 116
Width: 1024
Flags: W
LayerCount: 2
Fore
SplineSet
256 768 m 1,0,-1
 768 768 l 1,1,-1
 768 256 l 1,2,-1
 256 256 l 1,3,-1
 256 768 l 1,4,-1
 256 768 l 1,0,-1
EndSplineSet
EndChar

StartChar: uniF073
Encoding: 61555 61555 117
Width: 1024
Flags: W
LayerCount: 2
Fore
SplineSet
256 768 m 1,0,-1
 768 768 l 1,1,-1
 768 256 l 1,2,-1
 256 256 l 1,3,-1
 256 768 l 1,0,-1
704 320 m 1,4,-1
 704 704 l 1,5,-1
 320 704 l 1,6,-1
 320 320 l 1,7,-1
 704 320 l 1,4,-1
EndSplineSet
EndChar

StartChar: uniF074
Encoding: 61556 61556 118
Width: 1024
Flags: W
LayerCount: 2
Fore
SplineSet
544 1024 m 1,0,-1
 544 832 l 1,1,-1
 480 832 l 1,2,-1
 480 1024 l 1,3,-1
 544 1024 l 1,0,-1
480 0 m 1,4,-1
 480 192 l 1,5,-1
 544 192 l 1,6,-1
 544 0 l 1,7,-1
 480 0 l 1,4,-1
832 544 m 1,8,-1
 1024 544 l 1,9,-1
 1024 480 l 1,10,-1
 832 480 l 1,11,-1
 832 544 l 1,8,-1
192 544 m 1,12,-1
 192 480 l 1,13,-1
 0 480 l 1,14,-1
 0 544 l 1,15,-1
 192 544 l 1,12,-1
42 938 m 1,16,-1
 86 982 l 1,17,-1
 214 854 l 1,18,-1
 170 810 l 1,19,-1
 42 938 l 1,16,-1
982 938 m 1,20,-1
 854 810 l 1,21,-1
 810 854 l 1,22,-1
 938 982 l 1,23,-1
 982 938 l 1,20,-1
42 86 m 1,24,-1
 170 214 l 1,25,-1
 214 170 l 1,26,-1
 86 42 l 1,27,-1
 42 86 l 1,24,-1
810 170 m 1,28,-1
 854 214 l 1,29,-1
 982 86 l 1,30,-1
 938 42 l 1,31,-1
 810 170 l 1,28,-1
256 256 m 1,32,-1
 256 768 l 1,33,-1
 768 768 l 1,34,-1
 768 256 l 1,35,-1
 256 256 l 1,32,-1
320 704 m 1,36,-1
 320 320 l 1,37,-1
 704 320 l 1,38,-1
 704 704 l 1,39,-1
 320 704 l 1,36,-1
EndSplineSet
EndChar

StartChar: uniF075
Encoding: 61557 61557 119
Width: 1024
Flags: W
LayerCount: 2
Fore
SplineSet
512 1024 m 256,0,1
 582 1024 582 1024 648 1006 c 128,-1,2
 714 988 714 988 770.5 954 c 128,-1,3
 827 920 827 920 873.5 873.5 c 128,-1,4
 920 827 920 827 954 770.5 c 128,-1,5
 988 714 988 714 1006 648 c 128,-1,6
 1024 582 1024 582 1024 512 c 256,7,8
 1024 442 1024 442 1006 376 c 128,-1,9
 988 310 988 310 954 253.5 c 128,-1,10
 920 197 920 197 873.5 150.5 c 128,-1,11
 827 104 827 104 770.5 70 c 128,-1,12
 714 36 714 36 648 18 c 128,-1,13
 582 0 582 0 512 0 c 256,14,15
 442 0 442 0 376 18 c 128,-1,16
 310 36 310 36 253.5 70 c 128,-1,17
 197 104 197 104 150.5 150.5 c 128,-1,18
 104 197 104 197 70 253.5 c 128,-1,19
 36 310 36 310 18 376 c 128,-1,20
 0 442 0 442 0 512 c 256,21,22
 0 582 0 582 18 648 c 128,-1,23
 36 714 36 714 70 770.5 c 128,-1,24
 104 827 104 827 150.5 873.5 c 128,-1,25
 197 920 197 920 253.5 954 c 128,-1,26
 310 988 310 988 376 1006 c 128,-1,27
 442 1024 442 1024 512 1024 c 256,0,1
568 512 m 1,28,-1
 740 683 l 1,29,30
 740 684 740 684 683 740 c 1,31,-1
 512 568 l 1,32,-1
 341 740 l 1,33,34
 340 740 340 740 284 683 c 1,35,-1
 456 512 l 1,36,-1
 284 341 l 1,37,38
 284 340 284 340 341 284 c 1,39,-1
 512 456 l 1,40,-1
 683 284 l 1,41,42
 684 284 684 284 740 341 c 1,43,-1
 568 512 l 1,28,-1
EndSplineSet
EndChar

StartChar: uniF076
Encoding: 61558 61558 120
Width: 1024
Flags: W
LayerCount: 2
Fore
SplineSet
16 512 m 256,0,1
 16 580 16 580 34 644 c 128,-1,2
 52 708 52 708 84 763 c 128,-1,3
 116 818 116 818 161 863 c 128,-1,4
 206 908 206 908 261 940 c 128,-1,5
 316 972 316 972 380 990 c 128,-1,6
 444 1008 444 1008 512 1008 c 256,7,8
 580 1008 580 1008 644 990 c 128,-1,9
 708 972 708 972 763 940 c 128,-1,10
 818 908 818 908 863 863 c 128,-1,11
 908 818 908 818 940 763 c 128,-1,12
 972 708 972 708 990 644 c 128,-1,13
 1008 580 1008 580 1008 512 c 256,14,15
 1008 444 1008 444 990 380 c 128,-1,16
 972 316 972 316 940 261 c 128,-1,17
 908 206 908 206 863 161 c 128,-1,18
 818 116 818 116 763 84 c 128,-1,19
 708 52 708 52 644 34 c 128,-1,20
 580 16 580 16 512 16 c 256,21,22
 444 16 444 16 380 34 c 128,-1,23
 316 52 316 52 261 84 c 128,-1,24
 206 116 206 116 161 161 c 128,-1,25
 116 206 116 206 84 261 c 128,-1,26
 52 316 52 316 34 380 c 128,-1,27
 16 444 16 444 16 512 c 256,0,1
EndSplineSet
EndChar

StartChar: uniF077
Encoding: 61559 61559 121
Width: 1024
Flags: W
LayerCount: 2
Fore
SplineSet
512 1024 m 260,0,1
 582 1024 582 1024 648 1006 c 132,-1,2
 714 988 714 988 770.5 954 c 132,-1,3
 827 920 827 920 873.5 873.5 c 132,-1,4
 920 827 920 827 954 770.5 c 132,-1,5
 988 714 988 714 1006 648 c 132,-1,6
 1024 582 1024 582 1024 512 c 260,7,8
 1024 442 1024 442 1006 376 c 132,-1,9
 988 310 988 310 954 253.5 c 132,-1,10
 920 197 920 197 873.5 150.5 c 132,-1,11
 827 104 827 104 770.5 70 c 132,-1,12
 714 36 714 36 648 18 c 132,-1,13
 582 0 582 0 512 0 c 260,14,15
 442 0 442 0 376 18 c 132,-1,16
 310 36 310 36 253.5 70 c 132,-1,17
 197 104 197 104 150.5 150.5 c 132,-1,18
 104 197 104 197 70 253.5 c 132,-1,19
 36 310 36 310 18 376 c 132,-1,20
 0 442 0 442 0 512 c 260,21,22
 0 582 0 582 18 648 c 132,-1,23
 36 714 36 714 70 770.5 c 132,-1,24
 104 827 104 827 150.5 873.5 c 132,-1,25
 197 920 197 920 253.5 954 c 132,-1,26
 310 988 310 988 376 1006 c 132,-1,27
 442 1024 442 1024 512 1024 c 260,0,1
512 64 m 260,28,29
 574 64 574 64 631 80 c 132,-1,30
 688 96 688 96 738 125 c 132,-1,31
 788 154 788 154 829 195 c 132,-1,32
 870 236 870 236 899 286 c 132,-1,33
 928 336 928 336 944 393 c 132,-1,34
 960 450 960 450 960 512 c 260,35,36
 960 574 960 574 944 631 c 132,-1,37
 928 688 928 688 899 738 c 132,-1,38
 870 788 870 788 829 829 c 132,-1,39
 788 870 788 870 738 899 c 132,-1,40
 688 928 688 928 631 944 c 132,-1,41
 574 960 574 960 512 960 c 260,42,43
 450 960 450 960 393 944 c 132,-1,44
 336 928 336 928 286 899 c 132,-1,45
 236 870 236 870 195 829 c 132,-1,46
 154 788 154 788 125 738 c 132,-1,47
 96 688 96 688 80 631 c 132,-1,48
 64 574 64 574 64 512 c 260,49,50
 64 450 64 450 80 393 c 132,-1,51
 96 336 96 336 125 286 c 132,-1,52
 154 236 154 236 195 195 c 132,-1,53
 236 154 236 154 286 125 c 132,-1,54
 336 96 336 96 393 80 c 132,-1,55
 450 64 450 64 512 64 c 260,28,29
EndSplineSet
EndChar

StartChar: uniF078
Encoding: 61560 61560 122
Width: 1024
Flags: W
LayerCount: 2
Fore
SplineSet
512 832 m 256,0,1
 578 832 578 832 636 807 c 128,-1,2
 694 782 694 782 738 738 c 128,-1,3
 782 694 782 694 807 636 c 128,-1,4
 832 578 832 578 832 512 c 256,5,6
 832 446 832 446 807 388 c 128,-1,7
 782 330 782 330 738 286 c 128,-1,8
 694 242 694 242 636 217 c 128,-1,9
 578 192 578 192 512 192 c 256,10,11
 446 192 446 192 388 217 c 128,-1,12
 330 242 330 242 286 286 c 128,-1,13
 242 330 242 330 217 388 c 128,-1,14
 192 446 192 446 192 512 c 256,15,16
 192 578 192 578 217 636 c 128,-1,17
 242 694 242 694 286 738 c 128,-1,18
 330 782 330 782 388 807 c 128,-1,19
 446 832 446 832 512 832 c 256,0,1
EndSplineSet
EndChar

StartChar: uniF079
Encoding: 61561 61561 123
Width: 1024
Flags: W
LayerCount: 2
Fore
SplineSet
874 874 m 256,0,1
 924 824 924 824 957.5 765 c 128,-1,2
 991 706 991 706 1007.5 642 c 128,-1,3
 1024 578 1024 578 1024 512 c 128,-1,4
 1024 446 1024 446 1007.5 382 c 128,-1,5
 991 318 991 318 957.5 259 c 128,-1,6
 924 200 924 200 874 150 c 256,7,8
 824 100 824 100 765 66.5 c 128,-1,9
 706 33 706 33 642 16.5 c 128,-1,10
 578 0 578 0 512 0 c 128,-1,11
 446 0 446 0 382 16.5 c 128,-1,12
 318 33 318 33 259 66.5 c 128,-1,13
 200 100 200 100 150 150 c 256,14,15
 100 200 100 200 66.5 259 c 128,-1,16
 33 318 33 318 16.5 382 c 128,-1,17
 0 446 0 446 0 512 c 128,-1,18
 0 578 0 578 16.5 642 c 128,-1,19
 33 706 33 706 66.5 765 c 128,-1,20
 100 824 100 824 150 874 c 256,21,22
 200 924 200 924 259 957.5 c 128,-1,23
 318 991 318 991 382 1007.5 c 128,-1,24
 446 1024 446 1024 512 1024 c 128,-1,25
 578 1024 578 1024 642 1007.5 c 128,-1,26
 706 991 706 991 765 957.5 c 128,-1,27
 824 924 824 924 874 874 c 256,0,1
195 195 m 256,28,29
 239 151 239 151 291 122 c 128,-1,30
 343 93 343 93 398.5 78.5 c 128,-1,31
 454 64 454 64 512 64 c 128,-1,32
 570 64 570 64 625.5 78.5 c 128,-1,33
 681 93 681 93 733 122 c 128,-1,34
 785 151 785 151 829 195 c 256,35,36
 873 239 873 239 902 291 c 128,-1,37
 931 343 931 343 945.5 398.5 c 128,-1,38
 960 454 960 454 960 512 c 128,-1,39
 960 570 960 570 945.5 625.5 c 128,-1,40
 931 681 931 681 902 733 c 128,-1,41
 873 785 873 785 829 829 c 256,42,43
 785 873 785 873 733 902 c 128,-1,44
 681 931 681 931 625.5 945.5 c 128,-1,45
 570 960 570 960 512 960 c 128,-1,46
 454 960 454 960 398.5 945.5 c 128,-1,47
 343 931 343 931 291 902 c 128,-1,48
 239 873 239 873 195 829 c 256,49,50
 151 785 151 785 122 733 c 128,-1,51
 93 681 93 681 78.5 625.5 c 128,-1,52
 64 570 64 570 64 512 c 128,-1,53
 64 454 64 454 78.5 398.5 c 128,-1,54
 93 343 93 343 122 291 c 128,-1,55
 151 239 151 239 195 195 c 256,28,29
793 480 m 1,56,-1
 544 480 l 1,57,-1
 544 231 l 1,58,-1
 480 231 l 1,59,-1
 480 480 l 1,60,-1
 231 480 l 1,61,-1
 231 544 l 1,62,-1
 480 544 l 1,63,-1
 480 793 l 1,64,-1
 544 793 l 1,65,-1
 544 544 l 1,66,-1
 793 544 l 1,67,-1
 793 480 l 1,56,-1
EndSplineSet
EndChar

StartChar: uniF07A
Encoding: 61562 61562 124
Width: 1024
Flags: W
LayerCount: 2
Fore
SplineSet
512 0 m 0,0,1
 441 0 441 0 375.5 18 c 128,-1,2
 310 36 310 36 253 69.5 c 128,-1,3
 196 103 196 103 149.5 149.5 c 128,-1,4
 103 196 103 196 69.5 253 c 128,-1,5
 36 310 36 310 18 376 c 128,-1,6
 0 442 0 442 0 512 c 256,7,8
 0 582 0 582 18 648 c 128,-1,9
 36 714 36 714 69.5 771 c 128,-1,10
 103 828 103 828 149.5 874.5 c 128,-1,11
 196 921 196 921 253 954.5 c 128,-1,12
 310 988 310 988 376 1006 c 128,-1,13
 442 1024 442 1024 512 1024 c 256,14,15
 582 1024 582 1024 648 1006 c 128,-1,16
 714 988 714 988 771 954.5 c 128,-1,17
 828 921 828 921 874.5 874.5 c 128,-1,18
 921 828 921 828 954.5 771 c 128,-1,19
 988 714 988 714 1006 648 c 128,-1,20
 1024 582 1024 582 1024 512 c 0,21,22
 1024 441 1024 441 1006 375.5 c 128,-1,23
 988 310 988 310 954.5 253 c 128,-1,24
 921 196 921 196 874.5 149.5 c 128,-1,25
 828 103 828 103 771 69.5 c 128,-1,26
 714 36 714 36 648 18 c 128,-1,27
 582 0 582 0 512 0 c 0,0,1
512 960 m 256,28,29
 450 960 450 960 393 944 c 128,-1,30
 336 928 336 928 286 899 c 128,-1,31
 236 870 236 870 195 829 c 128,-1,32
 154 788 154 788 125 738 c 128,-1,33
 96 688 96 688 80 631 c 128,-1,34
 64 574 64 574 64 512 c 256,35,36
 64 450 64 450 80 393 c 128,-1,37
 96 336 96 336 125 286 c 128,-1,38
 154 236 154 236 195 195 c 128,-1,39
 236 154 236 154 286 125 c 128,-1,40
 336 96 336 96 393 80 c 128,-1,41
 450 64 450 64 512 64 c 256,42,43
 574 64 574 64 631 80 c 128,-1,44
 688 96 688 96 738 125 c 128,-1,45
 788 154 788 154 829 195 c 128,-1,46
 870 236 870 236 899 286 c 128,-1,47
 928 336 928 336 944 393 c 128,-1,48
 960 450 960 450 960 512 c 256,49,50
 960 574 960 574 944 631 c 128,-1,51
 928 688 928 688 899 738 c 128,-1,52
 870 788 870 788 829 829 c 128,-1,53
 788 870 788 870 738 899 c 128,-1,54
 688 928 688 928 631 944 c 128,-1,55
 574 960 574 960 512 960 c 256,28,29
512 512 m 1,56,-1
 512 832 l 1,57,-1
 448 832 l 1,58,-1
 448 448 l 1,59,-1
 704 448 l 1,60,-1
 704 512 l 1,61,-1
 512 512 l 1,56,-1
EndSplineSet
EndChar

StartChar: uniF07B
Encoding: 61563 61563 125
Width: 1024
Flags: W
LayerCount: 2
Fore
SplineSet
512 768 m 1,0,-1
 512 494 l 1,1,-1
 694 310 l 1,2,-1
 650 266 l 1,3,-1
 448 466 l 1,4,-1
 448 768 l 1,5,-1
 512 768 l 1,0,-1
984 712 m 0,6,7
 1024 616 1024 616 1024 512 c 256,8,9
 1024 408 1024 408 984 312 c 0,10,11
 945 220 945 220 874 150 c 256,12,13
 804 79 804 79 712 40 c 0,14,15
 616 0 616 0 512 0 c 0,16,17
 425 0 425 0 344 28 c 0,18,19
 266 56 266 56 200 106 c 0,20,21
 135 156 135 156 88 226 c 0,22,23
 64 260 64 260 47 297.5 c 0,24,25
 30 336 30 336 19 376 c 1,26,27
 18 376 18 376 80 392 c 1,28,29
 100 320 100 320 142 259.5 c 128,-1,30
 184 199 184 199 241 155.5 c 128,-1,31
 298 112 298 112 367.5 88 c 128,-1,32
 437 64 437 64 512 64 c 0,33,34
 574 64 574 64 631 80 c 128,-1,35
 688 96 688 96 738 125 c 128,-1,36
 788 154 788 154 829 195 c 128,-1,37
 870 236 870 236 899 286 c 128,-1,38
 928 336 928 336 944 393 c 128,-1,39
 960 450 960 450 960 512 c 128,-1,40
 960 574 960 574 944 631 c 128,-1,41
 928 688 928 688 899 738 c 128,-1,42
 870 788 870 788 829 829 c 128,-1,43
 788 870 788 870 738 899 c 128,-1,44
 688 928 688 928 631 944 c 128,-1,45
 574 960 574 960 512 960 c 0,46,47
 447 960 447 960 386 942 c 128,-1,48
 325 924 325 924 272.5 890 c 128,-1,49
 220 856 220 856 177.5 809 c 0,50,51
 136 762 136 762 108 704 c 1,52,-1
 256 704 l 1,53,-1
 256 640 l 1,54,-1
 0 640 l 1,55,-1
 0 896 l 1,56,-1
 64 896 l 1,57,-1
 64 759 l 1,58,59
 72 775 72 775 82 790.5 c 128,-1,60
 92 806 92 806 104 820 c 0,61,62
 152 882 152 882 214 928 c 0,63,64
 280 975 280 975 355 999.5 c 128,-1,65
 430 1024 430 1024 512 1024 c 0,66,67
 616 1024 616 1024 712 984 c 0,68,69
 804 945 804 945 874 874 c 256,70,71
 945 804 945 804 984 712 c 0,6,7
EndSplineSet
EndChar

StartChar: uniF07C
Encoding: 61564 61564 126
Width: 1024
Flags: W
LayerCount: 2
Fore
SplineSet
512 1024 m 256,0,1
 582 1024 582 1024 647.5 1006 c 128,-1,2
 713 988 713 988 770 954 c 128,-1,3
 827 920 827 920 873.5 873.5 c 128,-1,4
 920 827 920 827 954 770 c 128,-1,5
 988 713 988 713 1006 647.5 c 128,-1,6
 1024 582 1024 582 1024 512 c 256,7,8
 1024 442 1024 442 1006 376.5 c 128,-1,9
 988 311 988 311 954 254 c 128,-1,10
 920 197 920 197 873.5 150.5 c 128,-1,11
 827 104 827 104 770 70 c 128,-1,12
 713 36 713 36 647.5 18 c 128,-1,13
 582 0 582 0 512 0 c 256,14,15
 442 0 442 0 376.5 18 c 128,-1,16
 311 36 311 36 254 70 c 128,-1,17
 197 104 197 104 150.5 150.5 c 128,-1,18
 104 197 104 197 70 254 c 128,-1,19
 36 311 36 311 18 376.5 c 128,-1,20
 0 442 0 442 0 512 c 256,21,22
 0 582 0 582 18 647.5 c 128,-1,23
 36 713 36 713 70 770 c 128,-1,24
 104 827 104 827 150.5 873.5 c 128,-1,25
 197 920 197 920 254 954 c 128,-1,26
 311 988 311 988 376.5 1006 c 128,-1,27
 442 1024 442 1024 512 1024 c 256,0,1
512 64 m 0,28,29
 594 64 594 64 669 92 c 128,-1,30
 744 120 744 120 806 174 c 1,31,-1
 174 806 l 1,32,33
 120 744 120 744 92 669 c 128,-1,34
 64 594 64 594 64 512 c 0,35,36
 64 450 64 450 80 393 c 128,-1,37
 96 336 96 336 125 286 c 128,-1,38
 154 236 154 236 195 195 c 128,-1,39
 236 154 236 154 286 125 c 128,-1,40
 336 96 336 96 393 80 c 128,-1,41
 450 64 450 64 512 64 c 0,28,29
850 218 m 1,42,43
 904 280 904 280 932 355 c 128,-1,44
 960 430 960 430 960 512 c 0,45,46
 960 574 960 574 944 631 c 128,-1,47
 928 688 928 688 899 738 c 128,-1,48
 870 788 870 788 829 829 c 128,-1,49
 788 870 788 870 738 899 c 128,-1,50
 688 928 688 928 631 944 c 128,-1,51
 574 960 574 960 512 960 c 0,52,53
 430 960 430 960 355 932 c 128,-1,54
 280 904 280 904 218 850 c 1,55,-1
 850 218 l 1,42,43
EndSplineSet
EndChar

StartChar: uniF07D
Encoding: 61565 61565 127
Width: 1024
Flags: W
LayerCount: 2
Fore
SplineSet
320 576 m 256,0,1
 306 576 306 576 295 581 c 128,-1,2
 284 586 284 586 275 595 c 128,-1,3
 266 604 266 604 261 615 c 128,-1,4
 256 626 256 626 256 640 c 256,5,6
 256 654 256 654 261 665 c 128,-1,7
 266 676 266 676 275 685 c 128,-1,8
 284 694 284 694 295 699 c 128,-1,9
 306 704 306 704 320 704 c 256,10,11
 334 704 334 704 345 699 c 128,-1,12
 356 694 356 694 365 685 c 128,-1,13
 374 676 374 676 379 665 c 128,-1,14
 384 654 384 654 384 640 c 256,15,16
 384 626 384 626 379 615 c 128,-1,17
 374 604 374 604 365 595 c 128,-1,18
 356 586 356 586 345 581 c 128,-1,19
 334 576 334 576 320 576 c 256,0,1
704 576 m 256,20,21
 690 576 690 576 679 581 c 128,-1,22
 668 586 668 586 659 595 c 128,-1,23
 650 604 650 604 645 615 c 128,-1,24
 640 626 640 626 640 640 c 256,25,26
 640 654 640 654 645 665 c 128,-1,27
 650 676 650 676 659 685 c 128,-1,28
 668 694 668 694 679 699 c 128,-1,29
 690 704 690 704 704 704 c 256,30,31
 718 704 718 704 729 699 c 128,-1,32
 740 694 740 694 749 685 c 128,-1,33
 758 676 758 676 763 665 c 128,-1,34
 768 654 768 654 768 640 c 256,35,36
 768 626 768 626 763 615 c 128,-1,37
 758 604 758 604 749 595 c 128,-1,38
 740 586 740 586 729 581 c 128,-1,39
 718 576 718 576 704 576 c 256,20,21
512 1024 m 0,40,41
 582 1024 582 1024 648 1006 c 128,-1,42
 714 988 714 988 771 954.5 c 128,-1,43
 828 921 828 921 874.5 874.5 c 128,-1,44
 921 828 921 828 954.5 771 c 128,-1,45
 988 714 988 714 1006 648 c 128,-1,46
 1024 582 1024 582 1024 512 c 256,47,48
 1024 442 1024 442 1006 376 c 128,-1,49
 988 310 988 310 954.5 253 c 128,-1,50
 921 196 921 196 874.5 149.5 c 128,-1,51
 828 103 828 103 771 69.5 c 128,-1,52
 714 36 714 36 648 18 c 128,-1,53
 582 0 582 0 512 0 c 256,54,55
 442 0 442 0 376 18 c 128,-1,56
 310 36 310 36 253 69.5 c 128,-1,57
 196 103 196 103 149.5 149.5 c 128,-1,58
 103 196 103 196 69.5 253 c 128,-1,59
 36 310 36 310 18 375.5 c 128,-1,60
 0 441 0 441 0 512 c 0,61,62
 0 582 0 582 18 648 c 128,-1,63
 36 714 36 714 69.5 771 c 128,-1,64
 103 828 103 828 149.5 874.5 c 128,-1,65
 196 921 196 921 253 954.5 c 128,-1,66
 310 988 310 988 375.5 1006 c 128,-1,67
 441 1024 441 1024 512 1024 c 0,40,41
512 64 m 128,-1,69
 574 64 574 64 631 80 c 128,-1,70
 688 96 688 96 738 125 c 128,-1,71
 788 154 788 154 829 195 c 128,-1,72
 870 236 870 236 899 286 c 128,-1,73
 928 336 928 336 944 393 c 128,-1,74
 960 450 960 450 960 512 c 128,-1,75
 960 574 960 574 944 631 c 128,-1,76
 928 688 928 688 899 738 c 128,-1,77
 870 788 870 788 829 829 c 128,-1,78
 788 870 788 870 738 899 c 128,-1,79
 688 928 688 928 631 944 c 128,-1,80
 574 960 574 960 512 960 c 256,81,82
 450 960 450 960 393 944 c 128,-1,83
 336 928 336 928 286 899 c 128,-1,84
 236 870 236 870 195 829 c 128,-1,85
 154 788 154 788 125 738 c 128,-1,86
 96 688 96 688 80 631 c 128,-1,87
 64 574 64 574 64 512 c 256,88,89
 64 450 64 450 80 393 c 128,-1,90
 96 336 96 336 125 286 c 128,-1,91
 154 236 154 236 195 195 c 128,-1,92
 236 154 236 154 286 125 c 128,-1,93
 336 96 336 96 393 80 c 128,-1,68
 450 64 450 64 512 64 c 128,-1,69
512 256 m 0,94,95
 548 256 548 256 582.5 266 c 128,-1,96
 617 276 617 276 646.5 294.5 c 128,-1,97
 676 313 676 313 700 339.5 c 128,-1,98
 724 366 724 366 740 398 c 1,99,-1
 798 370 l 1,100,101
 778 330 778 330 747.5 296.5 c 128,-1,102
 717 263 717 263 680 240 c 128,-1,103
 643 217 643 217 600.5 204.5 c 128,-1,104
 558 192 558 192 512 192 c 128,-1,105
 466 192 466 192 423.5 204.5 c 128,-1,106
 381 217 381 217 344 240 c 128,-1,107
 307 263 307 263 277 296 c 0,108,109
 246 330 246 330 226 370 c 1,110,-1
 284 398 l 1,111,112
 300 366 300 366 324 339.5 c 128,-1,113
 348 313 348 313 377.5 294.5 c 128,-1,114
 407 276 407 276 441 266 c 128,-1,115
 475 256 475 256 512 256 c 0,94,95
EndSplineSet
EndChar

StartChar: uniF07E
Encoding: 61566 61566 128
Width: 1024
Flags: W
LayerCount: 2
Fore
SplineSet
512 1024 m 0,0,1
 582 1024 582 1024 648 1006 c 128,-1,2
 714 988 714 988 771 954.5 c 128,-1,3
 828 921 828 921 874.5 874.5 c 128,-1,4
 921 828 921 828 954.5 771 c 128,-1,5
 988 714 988 714 1006 648 c 128,-1,6
 1024 582 1024 582 1024 512 c 256,7,8
 1024 442 1024 442 1006 376 c 128,-1,9
 988 310 988 310 954.5 253 c 128,-1,10
 921 196 921 196 874.5 149.5 c 128,-1,11
 828 103 828 103 771 69.5 c 128,-1,12
 714 36 714 36 648 18 c 128,-1,13
 582 0 582 0 512 0 c 256,14,15
 442 0 442 0 376 18 c 128,-1,16
 310 36 310 36 253 69.5 c 128,-1,17
 196 103 196 103 149.5 149.5 c 128,-1,18
 103 196 103 196 69.5 253 c 128,-1,19
 36 310 36 310 18 375.5 c 128,-1,20
 0 441 0 441 0 512 c 0,21,22
 0 582 0 582 18 648 c 128,-1,23
 36 714 36 714 69.5 771 c 128,-1,24
 103 828 103 828 149.5 874.5 c 128,-1,25
 196 921 196 921 253 954.5 c 128,-1,26
 310 988 310 988 375.5 1006 c 128,-1,27
 441 1024 441 1024 512 1024 c 0,0,1
512 64 m 256,28,29
 574 64 574 64 631 80 c 128,-1,30
 688 96 688 96 738 125 c 128,-1,31
 788 154 788 154 829 195 c 128,-1,32
 870 236 870 236 899 286 c 128,-1,33
 928 336 928 336 944 393 c 128,-1,34
 960 450 960 450 960 512 c 256,35,36
 960 574 960 574 944 631 c 128,-1,37
 928 688 928 688 899 738 c 128,-1,38
 870 788 870 788 829 829 c 128,-1,39
 788 870 788 870 738 899 c 128,-1,40
 688 928 688 928 631 944 c 128,-1,41
 574 960 574 960 512 960 c 256,42,43
 450 960 450 960 393 944 c 128,-1,44
 336 928 336 928 286 899 c 128,-1,45
 236 870 236 870 195 829 c 128,-1,46
 154 788 154 788 125 738 c 128,-1,47
 96 688 96 688 80 631 c 128,-1,48
 64 574 64 574 64 512 c 256,49,50
 64 450 64 450 80 393 c 128,-1,51
 96 336 96 336 125 286 c 128,-1,52
 154 236 154 236 195 195 c 128,-1,53
 236 154 236 154 286 125 c 128,-1,54
 336 96 336 96 393 80 c 128,-1,55
 450 64 450 64 512 64 c 256,28,29
320 768 m 256,56,57
 334 768 334 768 345 763 c 128,-1,58
 356 758 356 758 365 749 c 128,-1,59
 374 740 374 740 379 729 c 128,-1,60
 384 718 384 718 384 704 c 1,61,-1
 256 704 l 1,62,63
 256 718 256 718 261 729 c 128,-1,64
 266 740 266 740 275 749 c 128,-1,65
 284 758 284 758 295 763 c 128,-1,66
 306 768 306 768 320 768 c 256,56,57
704 768 m 256,67,68
 718 768 718 768 729 763 c 128,-1,69
 740 758 740 758 749 749 c 128,-1,70
 758 740 758 740 763 729 c 128,-1,71
 768 718 768 718 768 704 c 1,72,-1
 640 704 l 1,73,74
 640 718 640 718 645 729 c 128,-1,75
 650 740 650 740 659 749 c 128,-1,76
 668 758 668 758 679 763 c 128,-1,77
 690 768 690 768 704 768 c 256,67,68
736 640 m 0,78,79
 756 640 756 640 773.5 632.5 c 128,-1,80
 791 625 791 625 804 612 c 128,-1,81
 817 599 817 599 824.5 581.5 c 128,-1,82
 832 564 832 564 832 544 c 2,83,-1
 832 512 l 2,84,85
 832 446 832 446 807 387.5 c 128,-1,86
 782 329 782 329 738.5 285.5 c 128,-1,87
 695 242 695 242 636.5 217 c 128,-1,88
 578 192 578 192 512 192 c 256,89,90
 446 192 446 192 387.5 217 c 128,-1,91
 329 242 329 242 285.5 285.5 c 128,-1,92
 242 329 242 329 217 387.5 c 128,-1,93
 192 446 192 446 192 512 c 0,94,95
 192 536 192 536 196 559 c 128,-1,96
 200 582 200 582 210.5 600 c 128,-1,97
 221 618 221 618 239.5 629 c 128,-1,98
 258 640 258 640 288 640 c 0,99,100
 325 640 325 640 352.5 630 c 128,-1,101
 380 620 380 620 405 608 c 128,-1,102
 430 596 430 596 455 586 c 128,-1,103
 480 576 480 576 512 576 c 256,104,105
 544 576 544 576 569 586 c 128,-1,106
 594 596 594 596 619 608 c 128,-1,107
 644 620 644 620 671.5 630 c 128,-1,108
 699 640 699 640 736 640 c 0,78,79
768 544 m 2,109,110
 768 557 768 557 758.5 566.5 c 128,-1,111
 749 576 749 576 736 576 c 0,112,113
 714 576 714 576 696 571 c 128,-1,114
 678 566 678 566 661.5 559 c 128,-1,115
 645 552 645 552 628.5 544 c 128,-1,116
 612 536 612 536 594.5 529 c 128,-1,117
 577 522 577 522 556.5 517 c 128,-1,118
 536 512 536 512 512 512 c 256,119,120
 488 512 488 512 467.5 517 c 128,-1,121
 447 522 447 522 429.5 529 c 128,-1,122
 412 536 412 536 395.5 544 c 128,-1,123
 379 552 379 552 362.5 559 c 128,-1,124
 346 566 346 566 328 571 c 128,-1,125
 310 576 310 576 288 576 c 0,126,127
 275 576 275 576 265.5 566.5 c 128,-1,128
 256 557 256 557 256 544 c 2,129,-1
 256 512 l 2,130,131
 256 459 256 459 276 412.5 c 128,-1,132
 296 366 296 366 331 331 c 128,-1,133
 366 296 366 296 412.5 276 c 128,-1,134
 459 256 459 256 512 256 c 256,135,136
 565 256 565 256 611.5 276 c 128,-1,137
 658 296 658 296 693 331 c 128,-1,138
 728 366 728 366 748 412.5 c 128,-1,139
 768 459 768 459 768 512 c 2,140,-1
 768 544 l 2,109,110
EndSplineSet
EndChar

StartChar: uniF07F
Encoding: 61567 61567 129
Width: 1024
Flags: W
LayerCount: 2
Fore
SplineSet
950 358 m 1,0,1
 967 347 967 347 981 332.5 c 128,-1,2
 995 318 995 318 1004.5 300.5 c 128,-1,3
 1014 283 1014 283 1019 263.5 c 128,-1,4
 1024 244 1024 244 1024 224 c 0,5,6
 1024 191 1024 191 1011 162 c 128,-1,7
 998 133 998 133 976.5 111.5 c 128,-1,8
 955 90 955 90 926 77 c 128,-1,9
 897 64 897 64 864 64 c 0,10,11
 818 64 818 64 779 88 c 1,12,13
 721 44 721 44 652.5 22 c 128,-1,14
 584 0 584 0 512 0 c 256,15,16
 440 0 440 0 371 22.5 c 0,17,18
 302 44 302 44 245 88 c 1,19,20
 206 64 206 64 160 64 c 0,21,22
 127 64 127 64 98 77 c 128,-1,23
 69 90 69 90 47.5 111.5 c 128,-1,24
 26 133 26 133 13 162 c 128,-1,25
 0 191 0 191 0 224 c 0,26,27
 0 244 0 244 5 263.5 c 128,-1,28
 10 283 10 283 19.5 300.5 c 128,-1,29
 29 318 29 318 42.5 333 c 128,-1,30
 56 348 56 348 74 358 c 1,31,32
 69 380 69 380 66.5 403 c 128,-1,33
 64 426 64 426 64 448 c 0,34,35
 64 517 64 517 85 581.5 c 128,-1,36
 106 646 106 646 143.5 701.5 c 128,-1,37
 181 757 181 757 234 799.5 c 128,-1,38
 287 842 287 842 352 866 c 1,39,40
 352 898 352 898 365 927 c 128,-1,41
 378 956 378 956 400 977.5 c 128,-1,42
 422 999 422 999 451 1011.5 c 128,-1,43
 480 1024 480 1024 512 1024 c 256,44,45
 544 1024 544 1024 573 1011.5 c 128,-1,46
 602 999 602 999 624 977.5 c 128,-1,47
 646 956 646 956 659 927.5 c 0,48,49
 672 898 672 898 672 866 c 1,50,51
 737 842 737 842 790 799.5 c 128,-1,52
 843 757 843 757 880.5 701.5 c 128,-1,53
 918 646 918 646 939 581.5 c 128,-1,54
 960 517 960 517 960 448 c 0,55,56
 960 426 960 426 957.5 403 c 128,-1,57
 955 380 955 380 950 358 c 1,0,1
512 960 m 256,58,59
 492 960 492 960 474.5 952.5 c 128,-1,60
 457 945 457 945 444 932 c 128,-1,61
 431 919 431 919 423.5 901.5 c 128,-1,62
 416 884 416 884 416 864 c 256,63,64
 416 844 416 844 423.5 826.5 c 128,-1,65
 431 809 431 809 444 796 c 128,-1,66
 457 783 457 783 474.5 775.5 c 128,-1,67
 492 768 492 768 512 768 c 256,68,69
 532 768 532 768 549.5 775.5 c 128,-1,70
 567 783 567 783 580 796 c 128,-1,71
 593 809 593 809 600.5 826.5 c 128,-1,72
 608 844 608 844 608 864 c 256,73,74
 608 884 608 884 600.5 901.5 c 128,-1,75
 593 919 593 919 580 932 c 128,-1,76
 567 945 567 945 549.5 952.5 c 128,-1,77
 532 960 532 960 512 960 c 256,58,59
64 224 m 256,78,79
 64 204 64 204 71.5 186.5 c 128,-1,80
 79 169 79 169 92 156 c 128,-1,81
 105 143 105 143 122.5 135.5 c 128,-1,82
 140 128 140 128 160 128 c 256,83,84
 180 128 180 128 197.5 135.5 c 128,-1,85
 215 143 215 143 228 156 c 128,-1,86
 241 169 241 169 248.5 186.5 c 128,-1,87
 256 204 256 204 256 224 c 256,88,89
 256 244 256 244 248.5 261.5 c 128,-1,90
 241 279 241 279 228 292 c 128,-1,91
 215 305 215 305 197.5 312.5 c 128,-1,92
 180 320 180 320 160 320 c 256,93,94
 140 320 140 320 122.5 312.5 c 128,-1,95
 105 305 105 305 92 292 c 128,-1,96
 79 279 79 279 71.5 261.5 c 128,-1,97
 64 244 64 244 64 224 c 256,78,79
512 64 m 256,98,99
 571 64 571 64 627.5 82 c 128,-1,100
 684 100 684 100 732 134 c 1,101,102
 718 154 718 154 711 177 c 128,-1,103
 704 200 704 200 704 224 c 0,104,105
 704 257 704 257 717 286 c 128,-1,106
 730 315 730 315 751.5 336.5 c 128,-1,107
 773 358 773 358 802 371 c 128,-1,108
 831 384 831 384 864 384 c 0,109,110
 870 384 870 384 877 383.5 c 128,-1,111
 884 383 884 383 890 382 c 1,112,113
 896 415 896 415 896 448 c 0,114,115
 896 506 896 506 879 560.5 c 128,-1,116
 862 615 862 615 831.5 661.5 c 128,-1,117
 801 708 801 708 757.5 744 c 128,-1,118
 714 780 714 780 660 802 c 1,119,120
 651 780 651 780 635.5 762 c 128,-1,121
 620 744 620 744 600.5 731 c 128,-1,122
 581 718 581 718 558.5 711 c 128,-1,123
 536 704 536 704 512 704 c 256,124,125
 488 704 488 704 465.5 711 c 128,-1,126
 443 718 443 718 423.5 731 c 128,-1,127
 404 744 404 744 389 762 c 128,-1,128
 374 780 374 780 364 802 c 1,129,130
 310 780 310 780 266.5 744 c 128,-1,131
 223 708 223 708 192.5 661.5 c 128,-1,132
 162 615 162 615 145 560.5 c 128,-1,133
 128 506 128 506 128 448 c 0,134,135
 128 415 128 415 134 382 c 1,136,137
 170 388 170 388 204 378 c 128,-1,138
 238 368 238 368 263.5 346 c 128,-1,139
 289 324 289 324 304.5 292 c 128,-1,140
 320 260 320 260 320 224 c 0,141,142
 320 200 320 200 313 177 c 128,-1,143
 306 154 306 154 292 134 c 1,144,145
 340 100 340 100 396.5 82 c 128,-1,146
 453 64 453 64 512 64 c 256,98,99
864 128 m 256,147,148
 884 128 884 128 901.5 135.5 c 128,-1,149
 919 143 919 143 932 156 c 128,-1,150
 945 169 945 169 952.5 186.5 c 128,-1,151
 960 204 960 204 960 224 c 256,152,153
 960 244 960 244 952.5 261.5 c 128,-1,154
 945 279 945 279 932 292 c 128,-1,155
 919 305 919 305 901.5 312.5 c 128,-1,156
 884 320 884 320 864 320 c 256,157,158
 844 320 844 320 826.5 312.5 c 128,-1,159
 809 305 809 305 796 292 c 128,-1,160
 783 279 783 279 775.5 261.5 c 128,-1,161
 768 244 768 244 768 224 c 256,162,163
 768 204 768 204 775.5 186.5 c 128,-1,164
 783 169 783 169 796 156 c 128,-1,165
 809 143 809 143 826.5 135.5 c 128,-1,166
 844 128 844 128 864 128 c 256,147,148
EndSplineSet
EndChar

StartChar: uniF080
Encoding: 61568 61568 130
Width: 1024
Flags: W
LayerCount: 2
Fore
SplineSet
512 1024 m 0,0,1
 582 1024 582 1024 648 1006 c 128,-1,2
 714 988 714 988 771 954.5 c 128,-1,3
 828 921 828 921 874.5 874.5 c 128,-1,4
 921 828 921 828 954.5 771 c 128,-1,5
 988 714 988 714 1006 648 c 128,-1,6
 1024 582 1024 582 1024 512 c 256,7,8
 1024 442 1024 442 1006 376 c 128,-1,9
 988 310 988 310 954.5 253 c 128,-1,10
 921 196 921 196 874.5 149.5 c 128,-1,11
 828 103 828 103 771 69.5 c 128,-1,12
 714 36 714 36 648 18 c 128,-1,13
 582 0 582 0 512 0 c 256,14,15
 442 0 442 0 376 18 c 128,-1,16
 310 36 310 36 253 69.5 c 128,-1,17
 196 103 196 103 149.5 149.5 c 128,-1,18
 103 196 103 196 69.5 253 c 128,-1,19
 36 310 36 310 18 375.5 c 128,-1,20
 0 441 0 441 0 512 c 0,21,22
 0 582 0 582 18 648 c 128,-1,23
 36 714 36 714 69.5 771 c 128,-1,24
 103 828 103 828 149.5 874.5 c 128,-1,25
 196 921 196 921 253 954.5 c 128,-1,26
 310 988 310 988 375.5 1006 c 128,-1,27
 441 1024 441 1024 512 1024 c 0,0,1
512 64 m 0,28,29
 574 64 574 64 631 80 c 128,-1,30
 688 96 688 96 738 125 c 128,-1,31
 788 154 788 154 829 195 c 128,-1,32
 870 236 870 236 899 286 c 128,-1,33
 928 336 928 336 944 393 c 128,-1,34
 960 450 960 450 960 512 c 0,35,36
 960 574 960 574 944 631 c 128,-1,37
 928 688 928 688 899 738 c 128,-1,38
 870 788 870 788 829 829 c 128,-1,39
 788 870 788 870 738 899 c 128,-1,40
 688 928 688 928 631 944 c 128,-1,41
 574 960 574 960 512 960 c 256,42,43
 450 960 450 960 393 944 c 128,-1,44
 336 928 336 928 286 899 c 128,-1,45
 236 870 236 870 195 829 c 128,-1,46
 154 788 154 788 125 738 c 128,-1,47
 96 688 96 688 80 631 c 128,-1,48
 64 574 64 574 64 512 c 256,49,50
 64 450 64 450 80 393 c 128,-1,51
 96 336 96 336 125 286 c 128,-1,52
 154 236 154 236 195 195 c 128,-1,53
 236 154 236 154 286 125 c 128,-1,54
 336 96 336 96 393 80 c 128,-1,55
 450 64 450 64 512 64 c 0,28,29
512 640 m 256,56,57
 538 640 538 640 561.5 630 c 128,-1,58
 585 620 585 620 602.5 602.5 c 128,-1,59
 620 585 620 585 630 561.5 c 128,-1,60
 640 538 640 538 640 512 c 256,61,62
 640 486 640 486 630 462.5 c 128,-1,63
 620 439 620 439 602.5 421.5 c 128,-1,64
 585 404 585 404 561.5 394 c 128,-1,65
 538 384 538 384 512 384 c 256,66,67
 486 384 486 384 462.5 394 c 128,-1,68
 439 404 439 404 421.5 421.5 c 128,-1,69
 404 439 404 439 394 462.5 c 128,-1,70
 384 486 384 486 384 512 c 256,71,72
 384 538 384 538 394 561.5 c 128,-1,73
 404 585 404 585 421.5 602.5 c 128,-1,74
 439 620 439 620 462.5 630 c 128,-1,75
 486 640 486 640 512 640 c 256,56,57
512 448 m 256,76,77
 526 448 526 448 537 453 c 128,-1,78
 548 458 548 458 557 467 c 128,-1,79
 566 476 566 476 571 487 c 128,-1,80
 576 498 576 498 576 512 c 256,81,82
 576 526 576 526 571 537 c 128,-1,83
 566 548 566 548 557 557 c 128,-1,84
 548 566 548 566 537 571 c 128,-1,85
 526 576 526 576 512 576 c 256,86,87
 498 576 498 576 487 571 c 128,-1,88
 476 566 476 566 467 557 c 128,-1,89
 458 548 458 548 453 537 c 128,-1,90
 448 526 448 526 448 512 c 256,91,92
 448 498 448 498 453 487 c 128,-1,93
 458 476 458 476 467 467 c 128,-1,94
 476 458 476 458 487 453 c 128,-1,95
 498 448 498 448 512 448 c 256,76,77
EndSplineSet
EndChar

StartChar: uniF081
Encoding: 61569 61569 131
Width: 1024
Flags: W
LayerCount: 2
Fore
SplineSet
512 640 m 256,0,1
 538 640 538 640 561.5 630 c 128,-1,2
 585 620 585 620 602.5 602.5 c 128,-1,3
 620 585 620 585 630 561.5 c 128,-1,4
 640 538 640 538 640 512 c 256,5,6
 640 486 640 486 630 462.5 c 128,-1,7
 620 439 620 439 602.5 421.5 c 128,-1,8
 585 404 585 404 561.5 394 c 128,-1,9
 538 384 538 384 512 384 c 256,10,11
 486 384 486 384 462.5 394 c 128,-1,12
 439 404 439 404 421.5 421.5 c 128,-1,13
 404 439 404 439 394 462.5 c 128,-1,14
 384 486 384 486 384 512 c 256,15,16
 384 538 384 538 394 561.5 c 128,-1,17
 404 585 404 585 421.5 602.5 c 128,-1,18
 439 620 439 620 462.5 630 c 128,-1,19
 486 640 486 640 512 640 c 256,0,1
512 448 m 256,20,21
 526 448 526 448 537 453 c 128,-1,22
 548 458 548 458 557 467 c 128,-1,23
 566 476 566 476 571 487 c 128,-1,24
 576 498 576 498 576 512 c 256,25,26
 576 526 576 526 571 537 c 128,-1,27
 566 548 566 548 557 557 c 128,-1,28
 548 566 548 566 537 571 c 128,-1,29
 526 576 526 576 512 576 c 256,30,31
 498 576 498 576 487 571 c 128,-1,32
 476 566 476 566 467 557 c 128,-1,33
 458 548 458 548 453 537 c 128,-1,34
 448 526 448 526 448 512 c 256,35,36
 448 498 448 498 453 487 c 128,-1,37
 458 476 458 476 467 467 c 128,-1,38
 476 458 476 458 487 453 c 128,-1,39
 498 448 498 448 512 448 c 256,20,21
1024 512 m 0,40,41
 1024 442 1024 442 1005.5 376 c 128,-1,42
 987 310 987 310 952.5 252 c 128,-1,43
 918 194 918 194 869 146 c 128,-1,44
 820 98 820 98 759 64 c 1,45,-1
 896 64 l 1,46,-1
 896 0 l 1,47,-1
 640 0 l 1,48,-1
 640 256 l 1,49,-1
 704 256 l 1,50,-1
 704 108 l 1,51,52
 762 136 762 136 809.5 178 c 128,-1,53
 857 220 857 220 890.5 273 c 128,-1,54
 924 326 924 326 942 387 c 128,-1,55
 960 448 960 448 960 512 c 0,56,57
 960 574 960 574 944 631 c 128,-1,58
 928 688 928 688 899 738 c 128,-1,59
 870 788 870 788 829 829 c 128,-1,60
 788 870 788 870 738 899 c 128,-1,61
 688 928 688 928 631 944 c 128,-1,62
 574 960 574 960 512 960 c 256,63,64
 450 960 450 960 393 944 c 128,-1,65
 336 928 336 928 286 899 c 128,-1,66
 236 870 236 870 195 829 c 128,-1,67
 154 788 154 788 125 738 c 128,-1,68
 96 688 96 688 80 631 c 128,-1,69
 64 574 64 574 64 512 c 0,70,71
 64 437 64 437 88 367.5 c 128,-1,72
 112 298 112 298 156 241 c 128,-1,73
 200 184 200 184 260 142 c 128,-1,74
 320 100 320 100 392 80 c 1,75,-1
 376 19 l 1,76,77
 293 41 293 41 223.5 89 c 128,-1,78
 154 137 154 137 104.5 202.5 c 128,-1,79
 55 268 55 268 27.5 347 c 128,-1,80
 0 426 0 426 0 512 c 0,81,82
 0 582 0 582 18 648 c 128,-1,83
 36 714 36 714 69.5 771 c 128,-1,84
 103 828 103 828 149.5 874.5 c 128,-1,85
 196 921 196 921 253 954.5 c 128,-1,86
 310 988 310 988 375.5 1006 c 128,-1,87
 441 1024 441 1024 512 1024 c 0,88,89
 582 1024 582 1024 648 1006 c 128,-1,90
 714 988 714 988 771 954.5 c 128,-1,91
 828 921 828 921 874.5 874.5 c 128,-1,92
 921 828 921 828 954.5 771 c 128,-1,93
 988 714 988 714 1006 648 c 128,-1,94
 1024 582 1024 582 1024 512 c 0,40,41
EndSplineSet
EndChar

StartChar: uniF082
Encoding: 61570 61570 132
Width: 1024
Flags: W
LayerCount: 2
Fore
SplineSet
512 64 m 0,0,1
 589 64 589 64 659.5 88 c 128,-1,2
 730 112 730 112 788.5 155 c 128,-1,3
 847 198 847 198 890.5 259 c 128,-1,4
 934 320 934 320 956 394 c 1,5,-1
 1017 374 l 1,6,7
 992 290 992 290 942.5 222 c 128,-1,8
 893 154 893 154 826.5 104 c 128,-1,9
 760 54 760 54 679.5 27 c 128,-1,10
 599 0 599 0 512 0 c 0,11,12
 444 0 444 0 379 17 c 128,-1,13
 314 34 314 34 256 66 c 128,-1,14
 198 98 198 98 149 144.5 c 0,15,16
 100 192 100 192 64 250 c 1,17,-1
 64 128 l 1,18,-1
 0 128 l 1,19,-1
 0 384 l 1,20,-1
 256 384 l 1,21,-1
 256 320 l 1,22,-1
 98 320 l 1,23,24
 128 262 128 262 171.5 214.5 c 128,-1,25
 215 167 215 167 269 133.5 c 128,-1,26
 323 100 323 100 384.5 82 c 128,-1,27
 446 64 446 64 512 64 c 0,0,1
1024 896 m 1,28,-1
 1024 640 l 1,29,-1
 768 640 l 1,30,-1
 768 704 l 1,31,-1
 926 704 l 1,32,33
 896 762 896 762 852.5 809.5 c 128,-1,34
 809 857 809 857 755 890.5 c 128,-1,35
 701 924 701 924 639.5 942 c 128,-1,36
 578 960 578 960 512 960 c 0,37,38
 435 960 435 960 364.5 936 c 128,-1,39
 294 912 294 912 235.5 869 c 128,-1,40
 177 826 177 826 133.5 765 c 128,-1,41
 90 704 90 704 68 630 c 1,42,-1
 7 650 l 1,43,44
 32 733 32 733 81.5 801.5 c 128,-1,45
 131 870 131 870 197.5 920 c 128,-1,46
 264 970 264 970 344.5 997 c 128,-1,47
 425 1024 425 1024 512 1024 c 0,48,49
 580 1024 580 1024 645 1007 c 128,-1,50
 710 990 710 990 768 958 c 128,-1,51
 826 926 826 926 875 879.5 c 0,52,53
 924 832 924 832 960 774 c 1,54,-1
 960 896 l 1,55,-1
 1024 896 l 1,28,-1
EndSplineSet
EndChar

StartChar: uniF083
Encoding: 61571 61571 133
Width: 1024
Flags: W
LayerCount: 2
Fore
SplineSet
736 576 m 256,0,1
 796 576 796 576 848 553 c 128,-1,2
 900 530 900 530 939 491 c 128,-1,3
 978 452 978 452 1001 400 c 128,-1,4
 1024 348 1024 348 1024 288 c 256,5,6
 1024 228 1024 228 1001 176 c 128,-1,7
 978 124 978 124 939 85 c 128,-1,8
 900 46 900 46 848 23 c 128,-1,9
 796 0 796 0 736 0 c 256,10,11
 676 0 676 0 624 23 c 128,-1,12
 572 46 572 46 533 85 c 128,-1,13
 494 124 494 124 471 176 c 128,-1,14
 448 228 448 228 448 288 c 256,15,16
 448 348 448 348 471 400 c 128,-1,17
 494 452 494 452 533 491 c 128,-1,18
 572 530 572 530 624 553 c 128,-1,19
 676 576 676 576 736 576 c 256,0,1
736 64 m 256,20,21
 782 64 782 64 823 82 c 128,-1,22
 864 100 864 100 894 130 c 128,-1,23
 924 160 924 160 942 201 c 128,-1,24
 960 242 960 242 960 288 c 256,25,26
 960 334 960 334 942 375 c 128,-1,27
 924 416 924 416 894 446 c 128,-1,28
 864 476 864 476 823 494 c 128,-1,29
 782 512 782 512 736 512 c 256,30,31
 690 512 690 512 649 494 c 128,-1,32
 608 476 608 476 578 446 c 128,-1,33
 548 416 548 416 530 375 c 128,-1,34
 512 334 512 334 512 288 c 256,35,36
 512 242 512 242 530 201 c 128,-1,37
 548 160 548 160 578 130 c 128,-1,38
 608 100 608 100 649 82 c 128,-1,39
 690 64 690 64 736 64 c 256,20,21
1024 896 m 1,40,-1
 1024 640 l 1,41,-1
 768 640 l 1,42,-1
 768 704 l 1,43,-1
 926 704 l 1,44,45
 896 762 896 762 852.5 809.5 c 128,-1,46
 809 857 809 857 755 890.5 c 128,-1,47
 701 924 701 924 639.5 942 c 128,-1,48
 578 960 578 960 512 960 c 0,49,50
 435 960 435 960 364.5 936 c 128,-1,51
 294 912 294 912 235.5 869 c 128,-1,52
 177 826 177 826 133.5 765 c 128,-1,53
 90 704 90 704 68 630 c 1,54,-1
 7 650 l 1,55,56
 32 733 32 733 81.5 801.5 c 128,-1,57
 131 870 131 870 197.5 920 c 128,-1,58
 264 970 264 970 344.5 997 c 128,-1,59
 425 1024 425 1024 512 1024 c 0,60,61
 580 1024 580 1024 645 1007 c 128,-1,62
 710 990 710 990 768 958 c 128,-1,63
 826 926 826 926 875 879.5 c 0,64,65
 924 832 924 832 960 774 c 1,66,-1
 960 896 l 1,67,-1
 1024 896 l 1,40,-1
440 70 m 1,68,69
 454 50 454 50 471 33 c 128,-1,70
 488 16 488 16 507 0 c 1,71,72
 439 0 439 0 374.5 18 c 128,-1,73
 310 36 310 36 253 69 c 128,-1,74
 196 102 196 102 148 148 c 128,-1,75
 100 194 100 194 64 252 c 1,76,-1
 64 128 l 1,77,-1
 0 128 l 1,78,-1
 0 384 l 1,79,-1
 256 384 l 1,80,-1
 256 320 l 1,81,-1
 99 320 l 1,82,83
 124 270 124 270 160 228 c 128,-1,84
 196 186 196 186 240 154 c 128,-1,85
 284 122 284 122 334.5 100.5 c 128,-1,86
 385 79 385 79 440 70 c 1,68,69
704 448 m 1,87,-1
 768 448 l 1,88,-1
 768 256 l 1,89,-1
 704 256 l 1,90,-1
 704 448 l 1,87,-1
704 192 m 1,91,-1
 768 192 l 1,92,-1
 768 128 l 1,93,-1
 704 128 l 1,94,-1
 704 192 l 1,91,-1
EndSplineSet
EndChar

StartChar: uniF084
Encoding: 61572 61572 134
Width: 1024
Flags: W
LayerCount: 2
Fore
SplineSet
512 1024 m 128,-1,1
 582 1024 582 1024 648 1006 c 128,-1,2
 714 988 714 988 771 954.5 c 128,-1,3
 828 921 828 921 874.5 874.5 c 128,-1,4
 921 828 921 828 954.5 771 c 128,-1,5
 988 714 988 714 1006 648 c 128,-1,6
 1024 582 1024 582 1024 512 c 256,7,8
 1024 442 1024 442 1006 376 c 128,-1,9
 988 310 988 310 954.5 253 c 128,-1,10
 921 196 921 196 874.5 149.5 c 128,-1,11
 828 103 828 103 771 69.5 c 128,-1,12
 714 36 714 36 648 18 c 128,-1,13
 582 0 582 0 512 0 c 0,14,15
 426 0 426 0 347 27.5 c 128,-1,16
 268 55 268 55 202.5 104.5 c 128,-1,17
 137 154 137 154 89.5 223 c 128,-1,18
 42 292 42 292 19 376 c 1,19,20
 18 376 18 376 80 392 c 1,21,22
 100 320 100 320 142 260 c 128,-1,23
 184 200 184 200 241 156 c 128,-1,24
 298 112 298 112 367.5 88 c 128,-1,25
 437 64 437 64 512 64 c 0,26,27
 574 64 574 64 631 80 c 128,-1,28
 688 96 688 96 738 125 c 128,-1,29
 788 154 788 154 829 195 c 128,-1,30
 870 236 870 236 899 286 c 128,-1,31
 928 336 928 336 944 393 c 128,-1,32
 960 450 960 450 960 512 c 128,-1,33
 960 574 960 574 944 631 c 128,-1,34
 928 688 928 688 899 738 c 128,-1,35
 870 788 870 788 829 829 c 128,-1,36
 788 870 788 870 738 899 c 128,-1,37
 688 928 688 928 631 944 c 128,-1,38
 574 960 574 960 512 960 c 0,39,40
 448 960 448 960 387 942 c 128,-1,41
 326 924 326 924 273 890.5 c 128,-1,42
 220 857 220 857 177.5 809.5 c 0,43,44
 136 762 136 762 108 704 c 1,45,-1
 256 704 l 1,46,-1
 256 640 l 1,47,-1
 0 640 l 1,48,-1
 0 896 l 1,49,-1
 64 896 l 1,50,-1
 64 759 l 1,51,52
 98 821 98 821 146 869.5 c 128,-1,53
 194 918 194 918 252 952.5 c 128,-1,54
 310 987 310 987 376 1005.5 c 128,-1,0
 442 1024 442 1024 512 1024 c 128,-1,1
EndSplineSet
EndChar

StartChar: uniF085
Encoding: 61573 61573 135
Width: 1024
Flags: W
LayerCount: 2
Fore
SplineSet
800 448 m 256,0,1
 846 448 846 448 887 430.5 c 128,-1,2
 928 413 928 413 958.5 382.5 c 128,-1,3
 989 352 989 352 1006.5 311 c 128,-1,4
 1024 270 1024 270 1024 224 c 256,5,6
 1024 178 1024 178 1006.5 137 c 128,-1,7
 989 96 989 96 958.5 65.5 c 128,-1,8
 928 35 928 35 887 17.5 c 128,-1,9
 846 0 846 0 800 0 c 256,10,11
 754 0 754 0 713 17.5 c 128,-1,12
 672 35 672 35 641.5 65.5 c 128,-1,13
 611 96 611 96 593.5 137 c 128,-1,14
 576 178 576 178 576 224 c 256,15,16
 576 270 576 270 593.5 311 c 128,-1,17
 611 352 611 352 641.5 382.5 c 128,-1,18
 672 413 672 413 713 430.5 c 128,-1,19
 754 448 754 448 800 448 c 256,0,1
640 224 m 0,20,21
 640 191 640 191 652.5 161.5 c 128,-1,22
 665 132 665 132 686.5 110.5 c 128,-1,23
 708 89 708 89 737.5 76.5 c 128,-1,24
 767 64 767 64 800 64 c 0,25,26
 824 64 824 64 846 71 c 128,-1,27
 868 78 868 78 888 90 c 1,28,-1
 666 312 l 1,29,30
 653 292 653 292 646.5 270 c 128,-1,31
 640 248 640 248 640 224 c 0,20,21
934 136 m 1,32,33
 947 156 947 156 953.5 178 c 128,-1,34
 960 200 960 200 960 224 c 0,35,36
 960 257 960 257 947 286 c 128,-1,37
 934 315 934 315 912.5 336.5 c 128,-1,38
 891 358 891 358 862 371 c 128,-1,39
 833 384 833 384 800 384 c 0,40,41
 776 384 776 384 754 377 c 128,-1,42
 732 370 732 370 712 358 c 1,43,-1
 934 136 l 1,32,33
256 640 m 1,44,-1
 0 640 l 1,45,-1
 0 896 l 1,46,-1
 64 896 l 1,47,-1
 64 758 l 1,48,49
 98 819 98 819 146 868.5 c 128,-1,50
 194 918 194 918 252 952.5 c 128,-1,51
 310 987 310 987 376 1005.5 c 128,-1,52
 442 1024 442 1024 512 1024 c 128,-1,53
 582 1024 582 1024 648 1006 c 128,-1,54
 714 988 714 988 770.5 954 c 128,-1,55
 827 920 827 920 873.5 873.5 c 128,-1,56
 920 827 920 827 954 770.5 c 128,-1,57
 988 714 988 714 1006 648 c 128,-1,58
 1024 582 1024 582 1024 512 c 0,59,60
 1024 492 1024 492 1022 473 c 128,-1,61
 1020 454 1020 454 1018 434 c 1,62,63
 1005 448 1005 448 989.5 460 c 128,-1,64
 974 472 974 472 958 482 c 1,65,66
 958 490 958 490 959 497 c 128,-1,67
 960 504 960 504 960 512 c 0,68,69
 960 574 960 574 944 631 c 128,-1,70
 928 688 928 688 899 738 c 128,-1,71
 870 788 870 788 829 829 c 128,-1,72
 788 870 788 870 738 899 c 128,-1,73
 688 928 688 928 631 944 c 128,-1,74
 574 960 574 960 512 960 c 0,75,76
 448 960 448 960 387 942 c 128,-1,77
 326 924 326 924 273.5 890.5 c 128,-1,78
 221 857 221 857 178.5 809.5 c 128,-1,79
 136 762 136 762 109 704 c 1,80,-1
 256 704 l 1,81,-1
 256 640 l 1,44,-1
542 66 m 1,82,83
 552 50 552 50 564 35 c 128,-1,84
 576 20 576 20 590 6 c 1,85,86
 571 3 571 3 551.5 1.5 c 128,-1,87
 532 0 532 0 512 0 c 0,88,89
 455 0 455 0 400.5 12.5 c 128,-1,90
 346 25 346 25 296 48.5 c 128,-1,91
 246 72 246 72 202 105 c 128,-1,92
 158 138 158 138 123 180 c 128,-1,93
 88 222 88 222 61 271 c 128,-1,94
 34 320 34 320 19 376 c 1,95,96
 18 376 18 376 80 392 c 1,97,98
 100 320 100 320 142 260 c 128,-1,99
 184 200 184 200 241 156 c 128,-1,100
 298 112 298 112 367.5 88 c 128,-1,101
 437 64 437 64 512 64 c 0,102,103
 520 64 520 64 527 65 c 128,-1,104
 534 66 534 66 542 66 c 1,82,83
EndSplineSet
EndChar

StartChar: uniF086
Encoding: 61574 61574 136
Width: 1024
Flags: W
LayerCount: 2
Fore
SplineSet
376 1005 m 1,0,1
 293 983 293 983 224 935 c 128,-1,2
 155 887 155 887 105 821.5 c 128,-1,3
 55 756 55 756 27.5 677 c 128,-1,4
 0 598 0 598 0 512 c 0,5,6
 0 442 0 442 18.5 376 c 128,-1,7
 37 310 37 310 70 253 c 128,-1,8
 103 196 103 196 150 149.5 c 128,-1,9
 197 103 197 103 254 69.5 c 128,-1,10
 311 36 311 36 376.5 18 c 128,-1,11
 442 0 442 0 512 0 c 256,12,13
 582 0 582 0 648 18 c 128,-1,14
 714 36 714 36 771 69.5 c 128,-1,15
 828 103 828 103 874.5 149.5 c 128,-1,16
 921 196 921 196 954.5 253 c 128,-1,17
 988 310 988 310 1006 375.5 c 128,-1,18
 1024 441 1024 441 1024 512 c 0,19,20
 1024 582 1024 582 1005.5 648 c 128,-1,21
 987 714 987 714 953 772 c 128,-1,22
 919 830 919 830 870 878 c 128,-1,23
 821 926 821 926 759 960 c 1,24,-1
 896 960 l 1,25,-1
 896 1024 l 1,26,-1
 640 1024 l 1,27,-1
 640 768 l 1,28,-1
 704 768 l 1,29,-1
 704 916 l 1,30,31
 762 888 762 888 809.5 846 c 128,-1,32
 857 804 857 804 890.5 751 c 128,-1,33
 924 698 924 698 942 637 c 128,-1,34
 960 576 960 576 960 512 c 0,35,36
 960 450 960 450 944 393 c 128,-1,37
 928 336 928 336 899 286 c 128,-1,38
 870 236 870 236 829 195 c 128,-1,39
 788 154 788 154 738 125 c 128,-1,40
 688 96 688 96 631 80 c 128,-1,41
 574 64 574 64 512 64 c 0,42,43
 451 64 451 64 393.5 80 c 128,-1,44
 336 96 336 96 286.5 125 c 128,-1,45
 237 154 237 154 196 195 c 128,-1,46
 155 236 155 236 125.5 286 c 128,-1,47
 96 336 96 336 80 393 c 128,-1,48
 64 450 64 450 64 512 c 0,49,50
 64 587 64 587 88.5 656.5 c 128,-1,51
 113 726 113 726 156.5 783 c 128,-1,52
 200 840 200 840 260 882 c 128,-1,53
 320 924 320 924 393 944 c 1,54,-1
 376 1005 l 1,55,-1
 376 1005 l 1,0,1
EndSplineSet
EndChar

StartChar: uniF087
Encoding: 61575 61575 137
Width: 1024
Flags: W
LayerCount: 2
Fore
SplineSet
648 1005 m 1,0,1
 731 983 731 983 800.5 935 c 128,-1,2
 870 887 870 887 919.5 821.5 c 128,-1,3
 969 756 969 756 996.5 677 c 128,-1,4
 1024 598 1024 598 1024 512 c 0,5,6
 1024 442 1024 442 1006 376 c 128,-1,7
 988 310 988 310 954.5 253 c 128,-1,8
 921 196 921 196 874.5 149.5 c 128,-1,9
 828 103 828 103 771 69.5 c 128,-1,10
 714 36 714 36 648 18 c 128,-1,11
 582 0 582 0 512 0 c 256,12,13
 442 0 442 0 376 18 c 128,-1,14
 310 36 310 36 253 69.5 c 128,-1,15
 196 103 196 103 149.5 149.5 c 128,-1,16
 103 196 103 196 69.5 253 c 128,-1,17
 36 310 36 310 18 375.5 c 128,-1,18
 0 441 0 441 0 512 c 0,19,20
 0 582 0 582 18.5 648 c 128,-1,21
 37 714 37 714 71.5 772 c 128,-1,22
 106 830 106 830 155 878 c 128,-1,23
 204 926 204 926 265 960 c 1,24,-1
 128 960 l 1,25,-1
 128 1024 l 1,26,-1
 384 1024 l 1,27,-1
 384 768 l 1,28,-1
 320 768 l 1,29,-1
 320 916 l 1,30,31
 262 888 262 888 214.5 846 c 128,-1,32
 167 804 167 804 133.5 751 c 128,-1,33
 100 698 100 698 82 637 c 128,-1,34
 64 576 64 576 64 512 c 0,35,36
 64 450 64 450 80 393 c 128,-1,37
 96 336 96 336 125 286 c 128,-1,38
 154 236 154 236 195 195 c 128,-1,39
 236 154 236 154 286 125 c 128,-1,40
 336 96 336 96 393 80 c 128,-1,41
 450 64 450 64 512 64 c 0,42,43
 574 64 574 64 631 80 c 128,-1,44
 688 96 688 96 738 125 c 128,-1,45
 788 154 788 154 829 195 c 128,-1,46
 870 236 870 236 899 286 c 128,-1,47
 928 336 928 336 944 393 c 128,-1,48
 960 450 960 450 960 512 c 0,49,50
 960 587 960 587 936 656.5 c 128,-1,51
 912 726 912 726 868 783 c 128,-1,52
 824 840 824 840 764 882 c 128,-1,53
 704 924 704 924 632 944 c 1,54,-1
 648 1005 l 1,55,-1
 648 1005 l 1,0,1
EndSplineSet
EndChar

StartChar: uniF088
Encoding: 61576 61576 138
Width: 1024
Flags: W
LayerCount: 2
Fore
SplineSet
704 870 m 1,0,1
 690 860 690 860 674 853 c 128,-1,2
 658 846 658 846 640 842 c 1,3,-1
 640 907 l 1,4,5
 668 917 668 917 693 930 c 128,-1,6
 718 943 718 943 742 960 c 1,7,-1
 768 960 l 1,8,-1
 768 576 l 1,9,-1
 704 576 l 1,10,-1
 704 870 l 1,0,1
1024 512 m 1,11,12
 1024 442 1024 442 1006 376 c 128,-1,13
 988 310 988 310 954.5 253 c 128,-1,14
 921 196 921 196 874.5 149.5 c 128,-1,15
 828 103 828 103 771 69.5 c 128,-1,16
 714 36 714 36 648 18 c 128,-1,17
 582 0 582 0 512 0 c 256,18,19
 442 0 442 0 376 18 c 128,-1,20
 310 36 310 36 253 69.5 c 128,-1,21
 196 103 196 103 149.5 149.5 c 128,-1,22
 103 196 103 196 69.5 253 c 128,-1,23
 36 310 36 310 18 375.5 c 128,-1,24
 0 441 0 441 0 512 c 0,25,26
 0 582 0 582 18 648 c 128,-1,27
 36 714 36 714 70.5 772 c 128,-1,28
 105 830 105 830 154 878 c 128,-1,29
 203 926 203 926 264 960 c 1,30,-1
 128 960 l 1,31,-1
 128 1024 l 1,32,-1
 384 1024 l 1,33,-1
 384 768 l 1,34,-1
 320 768 l 1,35,-1
 320 917 l 1,36,37
 262 889 262 889 214.5 846.5 c 128,-1,38
 167 804 167 804 133.5 751 c 128,-1,39
 100 698 100 698 82 637 c 128,-1,40
 64 576 64 576 64 512 c 0,41,42
 64 450 64 450 80 393 c 128,-1,43
 96 336 96 336 125 286 c 128,-1,44
 154 236 154 236 195 195 c 128,-1,45
 236 154 236 154 286 125 c 128,-1,46
 336 96 336 96 393 80 c 128,-1,47
 450 64 450 64 512 64 c 0,48,49
 574 64 574 64 631 80 c 128,-1,50
 688 96 688 96 738 125 c 128,-1,51
 788 154 788 154 829 195 c 128,-1,52
 870 236 870 236 899 286 c 128,-1,53
 928 336 928 336 944 393 c 128,-1,54
 960 450 960 450 960 512 c 1,55,-1
 1024 512 l 1,11,12
EndSplineSet
EndChar

StartChar: uniF089
Encoding: 61577 61577 139
Width: 1024
Flags: W
LayerCount: 2
Fore
SplineSet
1024 960 m 1,0,-1
 1024 128 l 1,1,-1
 0 128 l 1,2,-1
 0 960 l 1,3,-1
 1024 960 l 1,0,-1
64 896 m 1,4,-1
 64 832 l 1,5,-1
 960 832 l 1,6,-1
 960 896 l 1,7,-1
 64 896 l 1,4,-1
960 192 m 1,8,-1
 960 768 l 1,9,-1
 64 768 l 1,10,-1
 64 192 l 1,11,-1
 960 192 l 1,8,-1
696 640 m 1,12,-1
 824 320 l 1,13,-1
 779 320 l 1,14,15
 778 320 778 320 650 640 c 1,16,-1
 696 640 l 1,12,-1
368 602 m 0,17,18
 342 602 342 602 320 594 c 128,-1,19
 298 586 298 586 283 570 c 128,-1,20
 268 554 268 554 259 531 c 128,-1,21
 250 508 250 508 250 478 c 0,22,23
 250 450 250 450 258 428 c 128,-1,24
 266 406 266 406 281 390 c 128,-1,25
 296 374 296 374 317 365.5 c 128,-1,26
 338 357 338 357 366 357 c 0,27,28
 384 357 384 357 401 360.5 c 128,-1,29
 418 364 418 364 430 370 c 1,30,-1
 438 338 l 1,31,32
 427 332 427 332 406.5 328 c 128,-1,33
 386 324 386 324 358 324 c 0,34,35
 326 324 326 324 299 334 c 128,-1,36
 272 344 272 344 252 363.5 c 128,-1,37
 232 383 232 383 221 411.5 c 128,-1,38
 210 440 210 440 210 476 c 0,39,40
 210 511 210 511 221 540.5 c 128,-1,41
 232 570 232 570 253 591 c 128,-1,42
 274 612 274 612 303 623 c 128,-1,43
 332 634 332 634 366 634 c 0,44,45
 394 634 394 634 412 629.5 c 128,-1,46
 430 625 430 625 438 621 c 1,47,48
 438 622 438 622 428 590 c 1,49,50
 417 596 417 596 402 599 c 128,-1,51
 387 602 387 602 368 602 c 0,17,18
512 576 m 1,52,-1
 576 576 l 1,53,-1
 576 512 l 1,54,-1
 512 512 l 1,55,-1
 512 576 l 1,52,-1
512 448 m 1,56,-1
 576 448 l 1,57,-1
 576 384 l 1,58,-1
 512 384 l 1,59,-1
 512 448 l 1,56,-1
EndSplineSet
EndChar

StartChar: uniF08A
Encoding: 61578 61578 140
Width: 1024
Flags: W
LayerCount: 2
Fore
SplineSet
320 512 m 1,0,-1
 122 512 l 1,1,-1
 226 410 l 1,2,-1
 180 364 l 1,3,-1
 0 544 l 1,4,-1
 180 724 l 1,5,-1
 226 678 l 1,6,-1
 122 576 l 1,7,-1
 320 576 l 1,8,-1
 320 512 l 1,0,-1
780 724 m 1,9,-1
 960 544 l 1,10,-1
 782 366 l 1,11,-1
 737 412 l 1,12,13
 738 412 738 412 838 512 c 1,14,-1
 640 512 l 1,15,-1
 640 576 l 1,16,-1
 838 576 l 1,17,-1
 734 678 l 1,18,-1
 780 724 l 1,9,-1
448 902 m 1,19,-1
 348 801 l 1,20,-1
 302 846 l 1,21,-1
 480 1024 l 1,22,-1
 660 844 l 1,23,-1
 614 798 l 1,24,-1
 512 902 l 1,25,-1
 512 704 l 1,26,-1
 448 704 l 1,27,-1
 448 902 l 1,19,-1
512 186 m 1,28,-1
 614 290 l 1,29,-1
 660 244 l 1,30,-1
 480 64 l 1,31,-1
 300 244 l 1,32,-1
 346 290 l 1,33,-1
 448 186 l 1,34,-1
 448 384 l 1,35,-1
 512 384 l 1,36,-1
 512 186 l 1,28,-1
EndSplineSet
EndChar

StartChar: uniF08B
Encoding: 61579 61579 141
Width: 1024
Flags: W
LayerCount: 2
Fore
SplineSet
6 206 m 1,0,-1
 118 544 l 1,1,-1
 6 882 l 1,2,-1
 1021 544 l 1,3,-1
 6 206 l 1,0,-1
175 576 m 1,4,-1
 723 576 l 1,5,6
 722 576 722 576 106 782 c 1,7,-1
 175 576 l 1,4,-1
106 306 m 1,8,-1
 723 512 l 1,9,-1
 175 512 l 1,10,-1
 106 306 l 1,8,-1
EndSplineSet
EndChar

StartChar: uniF08C
Encoding: 61580 61580 142
Width: 1024
Flags: W
LayerCount: 2
Fore
SplineSet
1021 544 m 1,0,1
 1022 544 1022 544 6 206 c 1,2,-1
 108 512 l 1,3,-1
 576 512 l 1,4,-1
 704 544 l 1,5,-1
 576 576 l 1,6,-1
 108 576 l 1,7,-1
 6 882 l 1,8,-1
 1021 544 l 1,9,-1
 1021 544 l 1,0,1
EndSplineSet
EndChar

StartChar: uniF08D
Encoding: 61581 61581 143
Width: 1024
Flags: W
LayerCount: 2
Fore
SplineSet
0 1024 m 1,0,-1
 1024 1024 l 1,1,-1
 1024 192 l 1,2,-1
 704 192 l 1,3,-1
 512 0 l 1,4,-1
 320 192 l 1,5,-1
 0 192 l 1,6,-1
 0 1024 l 1,0,-1
960 256 m 1,7,-1
 960 960 l 1,8,-1
 64 960 l 1,9,-1
 64 256 l 1,10,-1
 346 256 l 1,11,-1
 512 90 l 1,12,-1
 678 256 l 1,13,-1
 960 256 l 1,7,-1
EndSplineSet
EndChar

StartChar: uniF08E
Encoding: 61582 61582 144
Width: 1024
Flags: W
LayerCount: 2
Fore
SplineSet
0 1024 m 1,0,-1
 1024 1024 l 1,1,-1
 1024 192 l 1,2,-1
 704 192 l 1,3,-1
 512 0 l 1,4,-1
 320 192 l 1,5,-1
 0 192 l 1,6,-1
 0 1024 l 1,0,-1
960 256 m 1,7,-1
 960 960 l 1,8,-1
 64 960 l 1,9,-1
 64 256 l 1,10,-1
 346 256 l 1,11,-1
 512 90 l 1,12,-1
 678 256 l 1,13,-1
 960 256 l 1,7,-1
832 640 m 1,14,-1
 832 576 l 1,15,-1
 192 576 l 1,16,-1
 192 640 l 1,17,-1
 832 640 l 1,14,-1
832 832 m 1,18,-1
 832 768 l 1,19,-1
 192 768 l 1,20,-1
 192 832 l 1,21,-1
 832 832 l 1,18,-1
576 448 m 1,22,-1
 576 384 l 1,23,-1
 192 384 l 1,24,-1
 192 448 l 1,25,-1
 576 448 l 1,22,-1
EndSplineSet
EndChar

StartChar: uniF08F
Encoding: 61583 61583 145
Width: 1024
Flags: W
LayerCount: 2
Fore
SplineSet
0 1024 m 1,0,-1
 1024 1024 l 1,1,-1
 1024 192 l 1,2,-1
 704 192 l 1,3,-1
 512 0 l 1,4,-1
 320 192 l 1,5,-1
 0 192 l 1,6,-1
 0 1024 l 1,7,-1
 0 1024 l 1,0,-1
832 640 m 1,8,-1
 192 640 l 1,9,-1
 192 576 l 1,10,-1
 832 576 l 1,11,-1
 832 640 l 1,12,-1
 832 640 l 1,8,-1
832 832 m 1,13,-1
 192 832 l 1,14,-1
 192 768 l 1,15,-1
 832 768 l 1,16,-1
 832 832 l 1,17,-1
 832 832 l 1,13,-1
576 448 m 1,18,-1
 192 448 l 1,19,-1
 192 384 l 1,20,-1
 576 384 l 1,21,-1
 576 448 l 1,22,-1
 576 448 l 1,18,-1
EndSplineSet
EndChar

StartChar: uniF090
Encoding: 61584 61584 146
Width: 1024
Flags: W
LayerCount: 2
Fore
SplineSet
1024 35 m 0,0,1
 1024 21 1024 21 1015.5 10.5 c 128,-1,2
 1007 0 1007 0 992 0 c 0,3,4
 980 0 980 0 970 10 c 2,5,-1
 577 402 l 1,6,7
 529 362 529 362 471.5 341 c 128,-1,8
 414 320 414 320 352 320 c 0,9,10
 304 320 304 320 259 332.5 c 128,-1,11
 214 345 214 345 175 368 c 128,-1,12
 136 391 136 391 103.5 423.5 c 128,-1,13
 71 456 71 456 48 495 c 128,-1,14
 25 534 25 534 12.5 579 c 128,-1,15
 0 624 0 624 0 672 c 256,16,17
 0 720 0 720 12.5 765 c 128,-1,18
 25 810 25 810 48 849 c 128,-1,19
 71 888 71 888 103.5 920.5 c 128,-1,20
 136 953 136 953 175 976 c 128,-1,21
 214 999 214 999 259 1011.5 c 128,-1,22
 304 1024 304 1024 352 1024 c 256,23,24
 400 1024 400 1024 445 1011.5 c 128,-1,25
 490 999 490 999 529 976 c 128,-1,26
 568 953 568 953 600.5 920.5 c 128,-1,27
 633 888 633 888 656 849 c 128,-1,28
 679 810 679 810 691.5 765 c 128,-1,29
 704 720 704 720 704 672 c 0,30,31
 704 610 704 610 683 552.5 c 128,-1,32
 662 495 662 495 622 447 c 1,33,34
 630 439 630 439 651 418.5 c 128,-1,35
 672 398 672 398 702 369 c 128,-1,36
 732 340 732 340 767 305 c 128,-1,37
 802 270 802 270 838 234 c 128,-1,38
 874 198 874 198 907.5 164 c 128,-1,39
 941 130 941 130 967 103 c 128,-1,40
 993 76 993 76 1008.5 57.5 c 128,-1,41
 1024 39 1024 39 1024 35 c 0,0,1
352 384 m 256,42,43
 412 384 412 384 464 407 c 128,-1,44
 516 430 516 430 555 469 c 128,-1,45
 594 508 594 508 617 560 c 128,-1,46
 640 612 640 612 640 672 c 256,47,48
 640 732 640 732 617 784 c 128,-1,49
 594 836 594 836 555 875 c 128,-1,50
 516 914 516 914 464 937 c 128,-1,51
 412 960 412 960 352 960 c 256,52,53
 292 960 292 960 240 937 c 128,-1,54
 188 914 188 914 149 875 c 128,-1,55
 110 836 110 836 87 784 c 128,-1,56
 64 732 64 732 64 672 c 256,57,58
 64 612 64 612 87 560 c 128,-1,59
 110 508 110 508 149 469 c 128,-1,60
 188 430 188 430 240 407 c 128,-1,61
 292 384 292 384 352 384 c 256,42,43
EndSplineSet
EndChar

StartChar: uniF091
Encoding: 61585 61585 147
Width: 1024
Flags: W
LayerCount: 2
Fore
SplineSet
1024 35 m 0,0,1
 1024 21 1024 21 1015.5 10.5 c 128,-1,2
 1007 0 1007 0 992 0 c 0,3,4
 980 0 980 0 970 10 c 2,5,-1
 577 402 l 1,6,7
 529 362 529 362 471.5 341 c 128,-1,8
 414 320 414 320 352 320 c 0,9,10
 304 320 304 320 259 332.5 c 128,-1,11
 214 345 214 345 175 368 c 128,-1,12
 136 391 136 391 103.5 423.5 c 128,-1,13
 71 456 71 456 48 495 c 128,-1,14
 25 534 25 534 12.5 579 c 128,-1,15
 0 624 0 624 0 672 c 256,16,17
 0 720 0 720 12.5 765 c 128,-1,18
 25 810 25 810 48 849 c 128,-1,19
 71 888 71 888 103.5 920.5 c 128,-1,20
 136 953 136 953 175 976 c 128,-1,21
 214 999 214 999 259 1011.5 c 128,-1,22
 304 1024 304 1024 352 1024 c 256,23,24
 400 1024 400 1024 445 1011.5 c 128,-1,25
 490 999 490 999 529 976 c 128,-1,26
 568 953 568 953 600.5 920.5 c 128,-1,27
 633 888 633 888 656 849 c 128,-1,28
 679 810 679 810 691.5 765 c 128,-1,29
 704 720 704 720 704 672 c 0,30,31
 704 610 704 610 683 552.5 c 128,-1,32
 662 495 662 495 622 447 c 1,33,34
 630 439 630 439 651 418.5 c 128,-1,35
 672 398 672 398 702 369 c 128,-1,36
 732 340 732 340 767 305 c 128,-1,37
 802 270 802 270 838 234 c 128,-1,38
 874 198 874 198 907.5 164 c 128,-1,39
 941 130 941 130 967 103 c 128,-1,40
 993 76 993 76 1008.5 57.5 c 128,-1,41
 1024 39 1024 39 1024 35 c 0,0,1
352 384 m 256,42,43
 412 384 412 384 464 407 c 128,-1,44
 516 430 516 430 555 469 c 128,-1,45
 594 508 594 508 617 560 c 128,-1,46
 640 612 640 612 640 672 c 256,47,48
 640 732 640 732 617 784 c 128,-1,49
 594 836 594 836 555 875 c 128,-1,50
 516 914 516 914 464 937 c 128,-1,51
 412 960 412 960 352 960 c 256,52,53
 292 960 292 960 240 937 c 128,-1,54
 188 914 188 914 149 875 c 128,-1,55
 110 836 110 836 87 784 c 128,-1,56
 64 732 64 732 64 672 c 256,57,58
 64 612 64 612 87 560 c 128,-1,59
 110 508 110 508 149 469 c 128,-1,60
 188 430 188 430 240 407 c 128,-1,61
 292 384 292 384 352 384 c 256,42,43
192 704 m 1,62,-1
 512 704 l 1,63,-1
 512 640 l 1,64,-1
 192 640 l 1,65,-1
 192 704 l 1,62,-1
EndSplineSet
EndChar

StartChar: uniF092
Encoding: 61586 61586 148
Width: 1024
Flags: W
LayerCount: 2
Fore
SplineSet
1014 54 m 2,0,1
 1024 44 1024 44 1024 32 c 256,2,3
 1024 19 1024 19 1014.5 9.5 c 128,-1,4
 1005 0 1005 0 992 0 c 256,5,6
 980 0 980 0 970 10 c 2,7,-1
 577 402 l 1,8,9
 529 362 529 362 471.5 341 c 128,-1,10
 414 320 414 320 352 320 c 0,11,12
 304 320 304 320 259 332.5 c 128,-1,13
 214 345 214 345 175 368 c 128,-1,14
 136 391 136 391 103.5 423.5 c 128,-1,15
 71 456 71 456 48 495 c 128,-1,16
 25 534 25 534 12.5 579 c 128,-1,17
 0 624 0 624 0 672 c 256,18,19
 0 720 0 720 12.5 765 c 128,-1,20
 25 810 25 810 48 849 c 128,-1,21
 71 888 71 888 103.5 920.5 c 128,-1,22
 136 953 136 953 175 976 c 128,-1,23
 214 999 214 999 259 1011.5 c 128,-1,24
 304 1024 304 1024 352 1024 c 256,25,26
 400 1024 400 1024 445 1011.5 c 128,-1,27
 490 999 490 999 529 976 c 128,-1,28
 568 953 568 953 600.5 920.5 c 128,-1,29
 633 888 633 888 656 849 c 128,-1,30
 679 810 679 810 691.5 765 c 128,-1,31
 704 720 704 720 704 672 c 0,32,33
 704 610 704 610 683 552.5 c 128,-1,34
 662 495 662 495 622 447 c 1,35,-1
 1014 54 l 2,0,1
352 384 m 256,36,37
 412 384 412 384 464 407 c 128,-1,38
 516 430 516 430 555 469 c 128,-1,39
 594 508 594 508 617 560 c 128,-1,40
 640 612 640 612 640 672 c 256,41,42
 640 732 640 732 617 784 c 128,-1,43
 594 836 594 836 555 875 c 128,-1,44
 516 914 516 914 464 937 c 128,-1,45
 412 960 412 960 352 960 c 256,46,47
 292 960 292 960 240 937 c 128,-1,48
 188 914 188 914 149 875 c 128,-1,49
 110 836 110 836 87 784 c 128,-1,50
 64 732 64 732 64 672 c 256,51,52
 64 612 64 612 87 560 c 128,-1,53
 110 508 110 508 149 469 c 128,-1,54
 188 430 188 430 240 407 c 128,-1,55
 292 384 292 384 352 384 c 256,36,37
384 704 m 1,56,-1
 512 704 l 1,57,-1
 512 640 l 1,58,-1
 384 640 l 1,59,-1
 384 512 l 1,60,-1
 320 512 l 1,61,-1
 320 640 l 1,62,-1
 192 640 l 1,63,-1
 192 704 l 1,64,-1
 320 704 l 1,65,-1
 320 832 l 1,66,-1
 384 832 l 1,67,-1
 384 704 l 1,56,-1
EndSplineSet
EndChar

StartChar: uniF093
Encoding: 61587 61587 149
Width: 1024
Flags: W
LayerCount: 2
Fore
SplineSet
960 0 m 1,0,-1
 0 0 l 1,1,-1
 128 384 l 1,2,-1
 448 384 l 1,3,-1
 448 578 l 1,4,5
 406 584 406 584 371 604 c 128,-1,6
 336 624 336 624 310.5 653.5 c 128,-1,7
 285 683 285 683 270.5 720.5 c 128,-1,8
 256 758 256 758 256 800 c 0,9,10
 256 846 256 846 274 887 c 128,-1,11
 292 928 292 928 322 958 c 128,-1,12
 352 988 352 988 393 1006 c 128,-1,13
 434 1024 434 1024 480 1024 c 256,14,15
 526 1024 526 1024 567 1006 c 128,-1,16
 608 988 608 988 638 958 c 128,-1,17
 668 928 668 928 686 887 c 128,-1,18
 704 846 704 846 704 800 c 0,19,20
 704 758 704 758 689.5 720.5 c 128,-1,21
 675 683 675 683 649.5 653.5 c 128,-1,22
 624 624 624 624 588.5 604 c 128,-1,23
 553 584 553 584 512 578 c 1,24,-1
 512 384 l 1,25,-1
 832 384 l 1,26,-1
 960 0 l 1,0,-1
320 800 m 256,27,28
 320 767 320 767 333 738 c 128,-1,29
 346 709 346 709 367.5 687.5 c 128,-1,30
 389 666 389 666 418 653 c 128,-1,31
 447 640 447 640 480 640 c 256,32,33
 513 640 513 640 542 653 c 128,-1,34
 571 666 571 666 592.5 687.5 c 128,-1,35
 614 709 614 709 627 738 c 128,-1,36
 640 767 640 767 640 800 c 256,37,38
 640 833 640 833 627 862 c 128,-1,39
 614 891 614 891 592.5 912.5 c 128,-1,40
 571 934 571 934 542 947 c 128,-1,41
 513 960 513 960 480 960 c 256,42,43
 447 960 447 960 418 947 c 128,-1,44
 389 934 389 934 367.5 912.5 c 128,-1,45
 346 891 346 891 333 862 c 128,-1,46
 320 833 320 833 320 800 c 256,27,28
89 64 m 1,47,-1
 871 64 l 1,48,-1
 786 320 l 1,49,-1
 512 320 l 1,50,-1
 512 192 l 2,51,52
 512 188 512 188 508 184.5 c 128,-1,53
 504 181 504 181 499 179.5 c 128,-1,54
 494 178 494 178 489 177 c 128,-1,55
 484 176 484 176 480 176 c 256,56,57
 476 176 476 176 471 177 c 128,-1,58
 466 178 466 178 461 179.5 c 128,-1,59
 456 181 456 181 452 184.5 c 128,-1,60
 448 188 448 188 448 192 c 2,61,-1
 448 320 l 1,62,-1
 174 320 l 1,63,-1
 89 64 l 1,47,-1
512 800 m 256,64,65
 512 787 512 787 502.5 777.5 c 128,-1,66
 493 768 493 768 480 768 c 256,67,68
 467 768 467 768 457.5 777.5 c 128,-1,69
 448 787 448 787 448 800 c 256,70,71
 448 813 448 813 457.5 822.5 c 128,-1,72
 467 832 467 832 480 832 c 256,73,74
 493 832 493 832 502.5 822.5 c 128,-1,75
 512 813 512 813 512 800 c 256,64,65
EndSplineSet
EndChar

StartChar: uniF094
Encoding: 61588 61588 150
Width: 1024
Flags: W
LayerCount: 2
Fore
SplineSet
576 896 m 1,0,-1
 960 896 l 1,1,-1
 960 384 l 1,2,-1
 512 384 l 1,3,-1
 512 512 l 1,4,-1
 192 512 l 1,5,-1
 192 0 l 1,6,-1
 128 0 l 1,7,-1
 128 1024 l 1,8,-1
 576 1024 l 1,9,-1
 576 896 l 1,0,-1
192 576 m 1,10,-1
 512 576 l 1,11,-1
 512 960 l 1,12,-1
 192 960 l 1,13,-1
 192 576 l 1,10,-1
896 448 m 1,14,-1
 896 832 l 1,15,-1
 576 832 l 1,16,-1
 576 448 l 1,17,-1
 896 448 l 1,14,-1
EndSplineSet
EndChar

StartChar: uniF095
Encoding: 61589 61589 151
Width: 1024
Flags: W
LayerCount: 2
Fore
SplineSet
128 0 m 1,0,-1
 128 1024 l 1,1,-1
 512 1024 l 1,2,-1
 512 512 l 1,3,-1
 192 512 l 1,4,-1
 192 0 l 1,5,-1
 128 0 l 1,0,-1
576 896 m 1,6,-1
 960 896 l 1,7,-1
 960 384 l 1,8,-1
 576 384 l 1,9,-1
 576 896 l 1,6,-1
EndSplineSet
EndChar

StartChar: uniF096
Encoding: 61590 61590 152
Width: 1024
Flags: W
LayerCount: 2
Fore
SplineSet
512 18 m 1,0,-1
 512 402 l 1,1,-1
 342 234 l 1,2,-1
 298 278 l 1,3,-1
 498 480 l 1,4,-1
 298 682 l 1,5,-1
 342 726 l 1,6,-1
 512 558 l 1,7,-1
 512 942 l 1,8,-1
 781 672 l 1,9,-1
 589 480 l 1,10,-1
 781 288 l 1,11,-1
 512 18 l 1,12,-1
 512 18 l 1,0,-1
576 402 m 1,13,-1
 576 174 l 1,14,-1
 690 288 l 1,15,-1
 576 402 l 1,16,-1
 576 402 l 1,13,-1
576 786 m 1,17,-1
 576 558 l 1,18,-1
 690 672 l 1,19,-1
 576 786 l 1,20,-1
 576 786 l 1,17,-1
EndSplineSet
EndChar

StartChar: uniF097
Encoding: 61591 61591 153
Width: 1024
Flags: W
LayerCount: 2
Fore
SplineSet
448 704 m 1,0,-1
 512 704 l 1,1,-1
 512 0 l 1,2,-1
 448 0 l 1,3,-1
 448 704 l 1,0,-1
186 902 m 1,4,5
 157 873 157 873 134.5 838.5 c 128,-1,6
 112 804 112 804 96 767 c 128,-1,7
 80 730 80 730 72 689.5 c 128,-1,8
 64 649 64 649 64 608 c 256,9,10
 64 567 64 567 72 526.5 c 128,-1,11
 80 486 80 486 96 449 c 128,-1,12
 112 412 112 412 134.5 377.5 c 128,-1,13
 157 343 157 343 186 314 c 1,14,-1
 140 268 l 1,15,16
 72 336 72 336 36 424 c 128,-1,17
 0 512 0 512 0 608 c 256,18,19
 0 704 0 704 36 791.5 c 0,20,21
 72 880 72 880 140 948 c 1,22,-1
 186 902 l 1,4,5
820 948 m 1,23,24
 888 880 888 880 924 792 c 128,-1,25
 960 704 960 704 960 608 c 256,26,27
 960 512 960 512 924 424.5 c 0,28,29
 888 336 888 336 820 268 c 1,30,-1
 774 314 l 1,31,32
 803 343 803 343 825.5 377.5 c 128,-1,33
 848 412 848 412 864 449 c 128,-1,34
 880 486 880 486 888 526.5 c 128,-1,35
 896 567 896 567 896 608 c 256,36,37
 896 649 896 649 888 689.5 c 128,-1,38
 880 730 880 730 864 767 c 128,-1,39
 848 804 848 804 825.5 838.5 c 128,-1,40
 803 873 803 873 774 902 c 1,41,-1
 820 948 l 1,23,24
684 812 m 1,42,43
 724 772 724 772 746 719 c 128,-1,44
 768 666 768 666 768 608 c 256,45,46
 768 550 768 550 746 497.5 c 0,47,48
 724 444 724 444 684 404 c 1,49,-1
 638 450 l 1,50,51
 670 482 670 482 687 523 c 128,-1,52
 704 564 704 564 704 608 c 256,53,54
 704 652 704 652 687 693.5 c 0,55,56
 670 734 670 734 638 766 c 1,57,-1
 684 812 l 1,42,43
322 766 m 1,58,59
 290 734 290 734 273 693 c 128,-1,60
 256 652 256 652 256 608 c 256,61,62
 256 564 256 564 273 522.5 c 0,63,64
 290 482 290 482 322 450 c 1,65,-1
 276 404 l 1,66,67
 236 444 236 444 214 497 c 128,-1,68
 192 550 192 550 192 608 c 256,69,70
 192 666 192 666 214 718.5 c 0,71,72
 236 772 236 772 276 812 c 1,73,-1
 322 766 l 1,58,59
EndSplineSet
EndChar

StartChar: uniF098
Encoding: 61592 61592 154
Width: 1024
Flags: W
LayerCount: 2
Fore
SplineSet
512 576 m 128,-1,1
 538 576 538 576 561.5 566 c 128,-1,2
 585 556 585 556 602.5 538.5 c 128,-1,3
 620 521 620 521 630 497.5 c 128,-1,4
 640 474 640 474 640 448 c 128,-1,5
 640 422 640 422 630 398.5 c 128,-1,6
 620 375 620 375 602.5 357.5 c 128,-1,7
 585 340 585 340 561.5 330 c 128,-1,8
 538 320 538 320 512 320 c 128,-1,9
 486 320 486 320 462.5 330 c 128,-1,10
 439 340 439 340 421.5 357.5 c 128,-1,11
 404 375 404 375 394 398.5 c 128,-1,12
 384 422 384 422 384 448 c 128,-1,13
 384 474 384 474 394 497.5 c 128,-1,14
 404 521 404 521 421.5 538.5 c 128,-1,15
 439 556 439 556 462.5 566 c 128,-1,0
 486 576 486 576 512 576 c 128,-1,1
512 384 m 256,16,17
 526 384 526 384 537 389 c 128,-1,18
 548 394 548 394 557 403 c 128,-1,19
 566 412 566 412 571 423 c 128,-1,20
 576 434 576 434 576 448 c 256,21,22
 576 462 576 462 571 473 c 128,-1,23
 566 484 566 484 557 493 c 128,-1,24
 548 502 548 502 537 507 c 128,-1,25
 526 512 526 512 512 512 c 256,26,27
 498 512 498 512 487 507 c 128,-1,28
 476 502 476 502 467 493 c 128,-1,29
 458 484 458 484 453 473 c 128,-1,30
 448 462 448 462 448 448 c 256,31,32
 448 434 448 434 453 423 c 128,-1,33
 458 412 458 412 467 403 c 128,-1,34
 476 394 476 394 487 389 c 128,-1,35
 498 384 498 384 512 384 c 256,16,17
512 960 m 256,36,37
 582 960 582 960 647.5 942 c 128,-1,38
 713 924 713 924 770 890 c 128,-1,39
 827 856 827 856 873.5 809.5 c 128,-1,40
 920 763 920 763 954 706 c 128,-1,41
 988 649 988 649 1006 583.5 c 128,-1,42
 1024 518 1024 518 1024 448 c 0,43,44
 1024 397 1024 397 1014 347.5 c 128,-1,45
 1004 298 1004 298 985 252 c 128,-1,46
 966 206 966 206 938 164 c 128,-1,47
 910 122 910 122 874 86 c 1,48,-1
 829 131 l 1,49,50
 861 163 861 163 885 199.5 c 128,-1,51
 909 236 909 236 925.5 276.5 c 128,-1,52
 942 317 942 317 951 360.5 c 128,-1,53
 960 404 960 404 960 448 c 0,54,55
 960 510 960 510 944 567 c 128,-1,56
 928 624 928 624 899 674 c 128,-1,57
 870 724 870 724 829 765 c 128,-1,58
 788 806 788 806 738 835 c 128,-1,59
 688 864 688 864 631 880 c 128,-1,60
 574 896 574 896 512 896 c 256,61,62
 450 896 450 896 393 880 c 128,-1,63
 336 864 336 864 286 835 c 128,-1,64
 236 806 236 806 195 765 c 128,-1,65
 154 724 154 724 125 674 c 128,-1,66
 96 624 96 624 80 567 c 128,-1,67
 64 510 64 510 64 448 c 0,68,69
 64 404 64 404 73 360.5 c 128,-1,70
 82 317 82 317 98.5 276.5 c 128,-1,71
 115 236 115 236 139.5 199 c 128,-1,72
 164 162 164 162 195 131 c 1,73,-1
 150 86 l 1,74,75
 114 122 114 122 86 164 c 128,-1,76
 58 206 58 206 39 252 c 128,-1,77
 20 298 20 298 10 347.5 c 128,-1,78
 0 397 0 397 0 448 c 0,79,80
 0 518 0 518 18 583.5 c 128,-1,81
 36 649 36 649 70 706 c 128,-1,82
 104 763 104 763 150.5 809.5 c 128,-1,83
 197 856 197 856 254 890 c 128,-1,84
 311 924 311 924 376.5 942 c 128,-1,85
 442 960 442 960 512 960 c 256,36,37
512 768 m 256,86,87
 578 768 578 768 636.5 743 c 128,-1,88
 695 718 695 718 738.5 674.5 c 128,-1,89
 782 631 782 631 807 572.5 c 128,-1,90
 832 514 832 514 832 448 c 0,91,92
 832 384 832 384 808 325.5 c 0,93,94
 784 268 784 268 738 222 c 1,95,-1
 693 267 l 1,96,97
 729 303 729 303 748.5 350 c 128,-1,98
 768 397 768 397 768 448 c 0,99,100
 768 501 768 501 748 547.5 c 128,-1,101
 728 594 728 594 693 629 c 128,-1,102
 658 664 658 664 611.5 684 c 128,-1,103
 565 704 565 704 512 704 c 256,104,105
 459 704 459 704 412.5 684 c 128,-1,106
 366 664 366 664 331 629 c 128,-1,107
 296 594 296 594 276 547.5 c 128,-1,108
 256 501 256 501 256 448 c 0,109,110
 256 397 256 397 275.5 350 c 128,-1,111
 295 303 295 303 331 267 c 1,112,113
 332 268 332 268 286 222 c 1,114,115
 241 268 241 268 216.5 326 c 128,-1,116
 192 384 192 384 192 448 c 0,117,118
 192 514 192 514 217 572.5 c 128,-1,119
 242 631 242 631 285.5 674.5 c 128,-1,120
 329 718 329 718 387.5 743 c 128,-1,121
 446 768 446 768 512 768 c 256,86,87
EndSplineSet
EndChar

StartChar: uniF099
Encoding: 61593 61593 155
Width: 1024
Flags: W
LayerCount: 2
Fore
SplineSet
954 320 m 1,0,-1
 662 320 l 1,1,-1
 763 102 l 1,2,3
 762 102 762 102 550 4 c 1,4,-1
 448 228 l 1,5,-1
 256 40 l 1,6,-1
 256 1018 l 1,7,-1
 954 320 l 1,0,-1
678 133 m 1,8,-1
 563 384 l 1,9,-1
 800 384 l 1,10,-1
 320 864 l 1,11,-1
 320 192 l 1,12,-1
 468 338 l 1,13,-1
 582 89 l 1,14,-1
 678 133 l 1,8,-1
EndSplineSet
EndChar

StartChar: uniF09A
Encoding: 61594 61594 156
Width: 1024
Flags: W
LayerCount: 2
Fore
SplineSet
612 640 m 1,0,-1
 942 640 l 1,1,-1
 302 0 l 1,2,-1
 156 0 l 1,3,-1
 348 384 l 1,4,-1
 124 384 l 1,5,-1
 444 1024 l 1,6,-1
 804 1024 l 1,7,-1
 612 640 l 1,0,-1
274 64 m 1,8,-1
 786 576 l 1,9,-1
 508 576 l 1,10,-1
 700 960 l 1,11,-1
 484 960 l 1,12,-1
 228 448 l 1,13,-1
 452 448 l 1,14,-1
 260 64 l 1,15,-1
 274 64 l 1,8,-1
EndSplineSet
EndChar

StartChar: uniF09B
Encoding: 61595 61595 157
Width: 1024
Flags: W
LayerCount: 2
Fore
SplineSet
896 256 m 1,0,-1
 896 192 l 1,1,-1
 640 192 l 1,2,3
 640 166 640 166 630 142.5 c 128,-1,4
 620 119 620 119 602.5 101.5 c 128,-1,5
 585 84 585 84 561.5 74 c 128,-1,6
 538 64 538 64 512 64 c 256,7,8
 486 64 486 64 462.5 74 c 128,-1,9
 439 84 439 84 421.5 101.5 c 128,-1,10
 404 119 404 119 394 142.5 c 128,-1,11
 384 166 384 166 384 192 c 1,12,-1
 128 192 l 1,13,-1
 128 256 l 1,14,-1
 192 256 l 1,15,-1
 192 640 l 2,16,17
 192 684 192 684 203.5 725 c 128,-1,18
 215 766 215 766 235.5 801.5 c 128,-1,19
 256 837 256 837 285.5 866.5 c 128,-1,20
 315 896 315 896 350.5 916.5 c 128,-1,21
 386 937 386 937 427 948.5 c 128,-1,22
 468 960 468 960 512 960 c 256,23,24
 556 960 556 960 597 948.5 c 128,-1,25
 638 937 638 937 673.5 916.5 c 128,-1,26
 709 896 709 896 738.5 866.5 c 128,-1,27
 768 837 768 837 788.5 801.5 c 128,-1,28
 809 766 809 766 820.5 725 c 128,-1,29
 832 684 832 684 832 640 c 2,30,-1
 832 256 l 1,31,-1
 896 256 l 1,0,-1
768 256 m 1,32,-1
 768 640 l 2,33,34
 768 693 768 693 748 739.5 c 128,-1,35
 728 786 728 786 693 821 c 128,-1,36
 658 856 658 856 611.5 876 c 128,-1,37
 565 896 565 896 512 896 c 256,38,39
 459 896 459 896 412.5 876 c 128,-1,40
 366 856 366 856 331 821 c 128,-1,41
 296 786 296 786 276 739.5 c 128,-1,42
 256 693 256 693 256 640 c 2,43,-1
 256 256 l 1,44,-1
 768 256 l 1,32,-1
512 128 m 256,45,46
 526 128 526 128 537 133 c 128,-1,47
 548 138 548 138 557 147 c 128,-1,48
 566 156 566 156 571 167 c 128,-1,49
 576 178 576 178 576 192 c 1,50,-1
 448 192 l 1,51,52
 448 178 448 178 453 167 c 128,-1,53
 458 156 458 156 467 147 c 128,-1,54
 476 138 476 138 487 133 c 128,-1,55
 498 128 498 128 512 128 c 256,45,46
EndSplineSet
EndChar

StartChar: uniF09C
Encoding: 61596 61596 158
Width: 1024
Flags: W
LayerCount: 2
Fore
SplineSet
874 104 m 5,0,-1
 786 191 l 5,1,-1
 640 191 l 5,2,3
 640 165 640 165 630 141.5 c 132,-1,4
 620 118 620 118 602.5 101 c 132,-1,5
 585 84 585 84 561.5 73.5 c 132,-1,6
 538 63 538 63 512 63 c 132,-1,7
 486 63 486 63 462.5 73.5 c 132,-1,8
 439 84 439 84 421.5 101 c 132,-1,9
 404 118 404 118 394 141 c 132,-1,10
 384 164 384 164 384 191 c 5,11,-1
 128 191 l 5,12,-1
 128 255 l 5,13,-1
 192 255 l 5,14,-1
 192 639 l 6,15,16
 192 671 192 671 198 701.5 c 132,-1,17
 204 732 204 732 216 762 c 5,18,-1
 106 872 l 5,19,-1
 150 918 l 5,20,-1
 248 820 l 5,21,22
 270 852 270 852 299 878 c 132,-1,23
 328 904 328 904 362.5 922 c 132,-1,24
 397 940 397 940 434.5 949.5 c 132,-1,25
 472 959 472 959 512 959 c 4,26,27
 576 959 576 959 635 934.5 c 132,-1,28
 694 910 694 910 738 866 c 260,29,30
 783 821 783 821 807.5 762 c 132,-1,31
 832 703 832 703 832 639 c 6,32,33
 832 638 832 638 832 236 c 5,34,-1
 918 150 l 5,35,-1
 874 104 l 5,0,-1
512 895 m 4,36,37
 479 895 479 895 447.5 886.5 c 132,-1,38
 416 878 416 878 388 862.5 c 132,-1,39
 360 847 360 847 336 824.5 c 132,-1,40
 312 802 312 802 294 774 c 5,41,-1
 768 300 l 5,42,-1
 768 639 l 6,43,44
 768 692 768 692 748 738.5 c 132,-1,45
 728 785 728 785 693 819.5 c 132,-1,46
 658 854 658 854 611.5 874.5 c 132,-1,47
 565 895 565 895 512 895 c 4,36,37
512 127 m 260,48,49
 526 127 526 127 537 132 c 132,-1,50
 548 137 548 137 557 145.5 c 132,-1,51
 566 154 566 154 571 166 c 132,-1,52
 576 178 576 178 576 191 c 5,53,-1
 448 191 l 5,54,55
 448 177 448 177 453 165.5 c 132,-1,56
 458 154 458 154 467 145.5 c 132,-1,57
 476 137 476 137 487 132 c 132,-1,58
 498 127 498 127 512 127 c 260,48,49
722 255 m 5,59,60
 722 256 722 256 266 712 c 5,61,62
 256 676 256 676 256 639 c 6,63,-1
 256 255 l 5,64,-1
 722 255 l 5,59,60
EndSplineSet
EndChar

StartChar: uniF09D
Encoding: 61597 61597 159
Width: 1024
Flags: W
LayerCount: 2
Fore
SplineSet
1024 768 m 1,0,-1
 1024 320 l 1,1,-1
 992 320 l 2,2,3
 953 320 953 320 920.5 337 c 128,-1,4
 888 354 888 354 864 384 c 1,5,-1
 618 384 l 1,6,7
 604 354 604 354 583 330.5 c 128,-1,8
 562 307 562 307 535.5 290.5 c 128,-1,9
 509 274 509 274 478.5 265 c 128,-1,10
 448 256 448 256 416 256 c 2,11,-1
 384 256 l 1,12,-1
 384 512 l 1,13,-1
 64 512 l 1,14,-1
 0 544 l 1,15,-1
 64 576 l 1,16,-1
 384 576 l 1,17,-1
 384 832 l 1,18,-1
 416 832 l 2,19,20
 448 832 448 832 478.5 823 c 128,-1,21
 509 814 509 814 535.5 797.5 c 128,-1,22
 562 781 562 781 583 757.5 c 128,-1,23
 604 734 604 734 618 704 c 1,24,-1
 864 704 l 1,25,26
 888 734 888 734 920.5 751 c 128,-1,27
 953 768 953 768 992 768 c 2,28,-1
 1024 768 l 1,0,-1
960 698 m 1,29,30
 948 694 948 694 939.5 688 c 128,-1,31
 931 682 931 682 924.5 675 c 128,-1,32
 918 668 918 668 912 659 c 128,-1,33
 906 650 906 650 900 640 c 1,34,-1
 574 640 l 1,35,-1
 566 662 l 2,36,37
 552 702 552 702 520.5 729 c 128,-1,38
 489 756 489 756 448 764 c 1,39,-1
 448 324 l 1,40,41
 489 332 489 332 520.5 359.5 c 0,42,43
 552 386 552 386 566 426 c 2,44,-1
 574 448 l 1,45,-1
 900 448 l 1,46,47
 906 438 906 438 912 429 c 128,-1,48
 918 420 918 420 924.5 413 c 128,-1,49
 931 406 931 406 939.5 400 c 128,-1,50
 948 394 948 394 960 390 c 1,51,-1
 960 698 l 1,29,30
EndSplineSet
EndChar

StartChar: uniF09E
Encoding: 61598 61598 160
Width: 1024
Flags: W
LayerCount: 2
Fore
SplineSet
882 672 m 1,0,1
 900 702 900 702 929 719 c 128,-1,2
 958 736 958 736 992 736 c 1,3,-1
 992 352 l 1,4,5
 958 352 958 352 929 369 c 128,-1,6
 900 386 900 386 882 416 c 1,7,-1
 596 416 l 1,8,9
 586 388 586 388 568 364 c 128,-1,10
 550 340 550 340 526.5 323 c 128,-1,11
 503 306 503 306 474.5 297 c 128,-1,12
 446 288 446 288 416 288 c 1,13,-1
 416 800 l 1,14,15
 446 800 446 800 474.5 791 c 128,-1,16
 503 782 503 782 526.5 765 c 128,-1,17
 550 748 550 748 568 724 c 128,-1,18
 586 700 586 700 596 672 c 1,19,-1
 882 672 l 1,20,-1
 882 672 l 1,0,1
EndSplineSet
EndChar

StartChar: uniF09F
Encoding: 61599 61599 161
Width: 1024
Flags: W
LayerCount: 2
Fore
SplineSet
995 650 m 1,0,1
 979 634 979 634 963 620 c 128,-1,2
 947 606 947 606 930.5 596.5 c 128,-1,3
 914 587 914 587 894 581.5 c 128,-1,4
 874 576 874 576 849 576 c 0,5,6
 832 576 832 576 816 580 c 1,7,-1
 627 390 l 1,8,9
 633 371 633 371 636.5 351 c 128,-1,10
 640 331 640 331 640 311 c 0,11,12
 640 279 640 279 633 252.5 c 128,-1,13
 626 226 626 226 614 202 c 128,-1,14
 602 178 602 178 584.5 157 c 128,-1,15
 567 136 567 136 545 114 c 1,16,-1
 352 307 l 1,17,18
 352 306 352 306 68 22 c 1,19,-1
 0 0 l 1,20,-1
 22 68 l 1,21,-1
 307 352 l 1,22,-1
 114 545 l 1,23,24
 114 546 114 546 136 568 c 2,25,26
 171 603 171 603 216.5 621.5 c 128,-1,27
 262 640 262 640 312 640 c 0,28,29
 353 640 353 640 390 627 c 1,30,31
 390 626 390 626 580 816 c 1,32,33
 576 832 576 832 576 849 c 0,34,35
 576 873 576 873 581.5 893 c 128,-1,36
 587 913 587 913 596.5 930 c 128,-1,37
 606 947 606 947 620 962.5 c 128,-1,38
 634 978 634 978 650 995 c 1,39,-1
 995 650 l 1,0,1
849 640 m 0,40,41
 877 640 877 640 901 654 c 1,42,43
 902 654 902 654 654 901 c 1,44,45
 640 877 640 877 640 849 c 0,46,47
 640 835 640 835 643.5 822.5 c 128,-1,48
 647 810 647 810 651 798 c 1,49,-1
 405 552 l 1,50,51
 393 557 393 557 381.5 561.5 c 128,-1,52
 370 566 370 566 359 569 c 128,-1,53
 348 572 348 572 336.5 574 c 0,54,55
 326 576 326 576 312 576 c 0,56,57
 284 576 284 576 257 567.5 c 128,-1,58
 230 559 230 559 206 543 c 1,59,60
 206 542 206 542 543 206 c 1,61,62
 559 229 559 229 567.5 256 c 128,-1,63
 576 283 576 283 576 311 c 0,64,65
 576 325 576 325 574 336.5 c 128,-1,66
 572 348 572 348 569 359 c 128,-1,67
 566 370 566 370 561.5 381 c 128,-1,68
 557 392 557 392 552 405 c 1,69,-1
 798 651 l 1,70,71
 811 647 811 647 823 643.5 c 128,-1,72
 835 640 835 640 849 640 c 0,40,41
EndSplineSet
EndChar

StartChar: uniF0A0
Encoding: 61600 61600 162
Width: 1024
Flags: W
LayerCount: 2
Fore
SplineSet
950 650 m 1,0,1
 930 630 930 630 903.5 619 c 0,2,3
 876 608 876 608 848 608 c 0,4,5
 826 608 826 608 806 614 c 1,6,-1
 590 398 l 1,7,8
 598 378 598 378 603 356 c 128,-1,9
 608 334 608 334 608 312 c 0,10,11
 608 269 608 269 591.5 229.5 c 128,-1,12
 575 190 575 190 545 159 c 1,13,-1
 159 545 l 1,14,15
 189 575 189 575 228.5 591.5 c 128,-1,16
 268 608 268 608 312 608 c 0,17,18
 334 608 334 608 356 603 c 128,-1,19
 378 598 378 598 398 590 c 1,20,-1
 614 806 l 1,21,22
 608 826 608 826 608 848 c 0,23,24
 608 876 608 876 619 903 c 128,-1,25
 630 930 630 930 650 950 c 1,26,-1
 950 650 l 1,0,1
EndSplineSet
EndChar

StartChar: uniF0A1
Encoding: 61601 61601 163
Width: 1024
Flags: W
LayerCount: 2
Fore
SplineSet
736 448 m 256,0,1
 782 448 782 448 823 430.5 c 128,-1,2
 864 413 864 413 894.5 382.5 c 128,-1,3
 925 352 925 352 942.5 311 c 128,-1,4
 960 270 960 270 960 224 c 256,5,6
 960 178 960 178 942.5 137 c 128,-1,7
 925 96 925 96 894.5 65.5 c 128,-1,8
 864 35 864 35 823 17.5 c 128,-1,9
 782 0 782 0 736 0 c 256,10,11
 690 0 690 0 649 17.5 c 128,-1,12
 608 35 608 35 577.5 65.5 c 128,-1,13
 547 96 547 96 529.5 137 c 128,-1,14
 512 178 512 178 512 224 c 256,15,16
 512 270 512 270 529.5 311 c 128,-1,17
 547 352 547 352 577.5 382.5 c 128,-1,18
 608 413 608 413 649 430.5 c 128,-1,19
 690 448 690 448 736 448 c 256,0,1
576 224 m 0,20,21
 576 191 576 191 588.5 161.5 c 128,-1,22
 601 132 601 132 622.5 110.5 c 128,-1,23
 644 89 644 89 673.5 76.5 c 128,-1,24
 703 64 703 64 736 64 c 0,25,26
 760 64 760 64 782 71 c 128,-1,27
 804 78 804 78 824 90 c 1,28,-1
 602 312 l 1,29,30
 589 292 589 292 582.5 270 c 128,-1,31
 576 248 576 248 576 224 c 0,20,21
870 136 m 1,32,33
 883 156 883 156 889.5 178 c 128,-1,34
 896 200 896 200 896 224 c 0,35,36
 896 257 896 257 883 286 c 128,-1,37
 870 315 870 315 848.5 336.5 c 128,-1,38
 827 358 827 358 798 371 c 128,-1,39
 769 384 769 384 736 384 c 0,40,41
 712 384 712 384 690 377 c 128,-1,42
 668 370 668 370 648 358 c 1,43,-1
 870 136 l 1,32,33
995 650 m 1,44,45
 979 634 979 634 963 620 c 128,-1,46
 947 606 947 606 930.5 596.5 c 128,-1,47
 914 587 914 587 894 581.5 c 128,-1,48
 874 576 874 576 849 576 c 0,49,50
 832 576 832 576 816 580 c 1,51,-1
 750 512 l 1,52,-1
 658 512 l 1,53,-1
 798 651 l 1,54,55
 811 647 811 647 823.5 643.5 c 128,-1,56
 836 640 836 640 849 640 c 0,57,58
 877 640 877 640 901 654 c 1,59,60
 902 654 902 654 654 901 c 1,61,62
 640 877 640 877 640 849 c 0,63,64
 640 835 640 835 643.5 822.5 c 128,-1,65
 647 810 647 810 651 798 c 1,66,-1
 405 552 l 1,67,68
 393 557 393 557 382 561.5 c 128,-1,69
 371 566 371 566 360 569 c 128,-1,70
 349 572 349 572 337.5 574 c 128,-1,71
 326 576 326 576 312 576 c 0,72,73
 284 576 284 576 257 567.5 c 128,-1,74
 230 559 230 559 206 543 c 1,75,76
 206 544 206 544 448 302 c 1,77,-1
 448 210 l 1,78,-1
 352 307 l 1,79,80
 352 306 352 306 68 22 c 1,81,-1
 0 0 l 1,82,-1
 22 68 l 1,83,-1
 307 352 l 1,84,-1
 114 545 l 1,85,86
 114 546 114 546 136 568 c 2,87,88
 171 603 171 603 217.5 621.5 c 128,-1,89
 264 640 264 640 313 640 c 0,90,91
 333 640 333 640 352 636.5 c 128,-1,92
 371 633 371 633 390 627 c 1,93,94
 390 626 390 626 580 816 c 1,95,96
 576 832 576 832 576 849 c 0,97,98
 576 873 576 873 581.5 893 c 128,-1,99
 587 913 587 913 596.5 930 c 128,-1,100
 606 947 606 947 620 962.5 c 128,-1,101
 634 978 634 978 650 995 c 1,102,-1
 995 650 l 1,44,45
EndSplineSet
EndChar

StartChar: uniF0A2
Encoding: 61602 61602 164
Width: 1024
Flags: W
LayerCount: 2
Fore
SplineSet
896 576 m 1,0,-1
 896 0 l 1,1,-1
 128 0 l 1,2,-1
 128 576 l 1,3,-1
 256 576 l 1,4,-1
 256 763 l 2,5,6
 256 817 256 817 275.5 864.5 c 128,-1,7
 295 912 295 912 329.5 947.5 c 128,-1,8
 364 983 364 983 411 1003.5 c 128,-1,9
 458 1024 458 1024 512 1024 c 256,10,11
 566 1024 566 1024 613 1003.5 c 128,-1,12
 660 983 660 983 694.5 947.5 c 128,-1,13
 729 912 729 912 748.5 864.5 c 128,-1,14
 768 817 768 817 768 763 c 2,15,-1
 768 576 l 1,16,-1
 896 576 l 1,0,-1
320 576 m 1,17,-1
 704 576 l 1,18,-1
 704 763 l 2,19,20
 704 803 704 803 689.5 839 c 128,-1,21
 675 875 675 875 649.5 902 c 128,-1,22
 624 929 624 929 588.5 944.5 c 128,-1,23
 553 960 553 960 512 960 c 256,24,25
 471 960 471 960 435.5 944.5 c 128,-1,26
 400 929 400 929 374.5 902 c 128,-1,27
 349 875 349 875 334.5 839.5 c 128,-1,28
 320 804 320 804 320 763 c 2,29,-1
 320 576 l 1,17,-1
832 512 m 1,30,-1
 192 512 l 1,31,-1
 192 64 l 1,32,-1
 832 64 l 1,33,-1
 832 512 l 1,30,-1
EndSplineSet
EndChar

StartChar: uniF0A3
Encoding: 61603 61603 165
Width: 1024
Flags: W
LayerCount: 2
Fore
SplineSet
896 576 m 1,0,-1
 896 0 l 1,1,-1
 128 0 l 1,2,-1
 128 576 l 1,3,-1
 704 576 l 1,4,-1
 704 768 l 2,5,6
 704 809 704 809 689 844 c 128,-1,7
 674 879 674 879 648.5 904.5 c 128,-1,8
 623 930 623 930 588 945 c 128,-1,9
 553 960 553 960 512 960 c 256,10,11
 471 960 471 960 436 945 c 128,-1,12
 401 930 401 930 375.5 904.5 c 128,-1,13
 350 879 350 879 335 844 c 128,-1,14
 320 809 320 809 320 768 c 1,15,-1
 256 768 l 1,16,17
 256 822 256 822 275.5 869 c 128,-1,18
 295 916 295 916 329.5 950.5 c 128,-1,19
 364 985 364 985 411 1004.5 c 128,-1,20
 458 1024 458 1024 512 1024 c 256,21,22
 566 1024 566 1024 613 1004.5 c 128,-1,23
 660 985 660 985 694.5 950.5 c 128,-1,24
 729 916 729 916 748.5 869 c 128,-1,25
 768 822 768 822 768 768 c 2,26,-1
 768 576 l 1,27,-1
 896 576 l 1,0,-1
832 512 m 1,28,-1
 192 512 l 1,29,-1
 192 64 l 1,30,-1
 832 64 l 1,31,-1
 832 512 l 1,28,-1
EndSplineSet
EndChar

StartChar: uniF0A4
Encoding: 61604 61604 166
Width: 1024
Flags: W
LayerCount: 2
Fore
SplineSet
1024 238 m 1,0,-1
 1024 0 l 1,1,-1
 768 0 l 1,2,-1
 768 128 l 1,3,-1
 640 128 l 1,4,-1
 640 256 l 1,5,-1
 512 256 l 1,6,-1
 512 360 l 1,7,8
 475 340 475 340 434.5 330 c 128,-1,9
 394 320 394 320 352 320 c 0,10,11
 304 320 304 320 259 332.5 c 128,-1,12
 214 345 214 345 175 368 c 128,-1,13
 136 391 136 391 103.5 423.5 c 128,-1,14
 71 456 71 456 48 495 c 128,-1,15
 25 534 25 534 12.5 579 c 128,-1,16
 0 624 0 624 0 672 c 256,17,18
 0 720 0 720 12.5 765 c 128,-1,19
 25 810 25 810 48 849 c 128,-1,20
 71 888 71 888 103.5 920.5 c 128,-1,21
 136 953 136 953 175 976 c 128,-1,22
 214 999 214 999 259 1011.5 c 128,-1,23
 304 1024 304 1024 352 1024 c 256,24,25
 400 1024 400 1024 445 1011.5 c 128,-1,26
 490 999 490 999 529 976 c 128,-1,27
 568 953 568 953 600.5 920.5 c 128,-1,28
 633 888 633 888 656 849 c 128,-1,29
 679 810 679 810 691.5 765 c 128,-1,30
 704 720 704 720 704 672 c 0,31,32
 704 646 704 646 700 621 c 128,-1,33
 696 596 696 596 688 572 c 1,34,-1
 1024 238 l 1,0,-1
960 210 m 1,35,-1
 615 556 l 1,36,37
 626 584 626 584 633 613 c 128,-1,38
 640 642 640 642 640 672 c 0,39,40
 640 732 640 732 617 784 c 128,-1,41
 594 836 594 836 555 875 c 128,-1,42
 516 914 516 914 464 937 c 128,-1,43
 412 960 412 960 352 960 c 256,44,45
 292 960 292 960 240 937 c 128,-1,46
 188 914 188 914 149 875 c 128,-1,47
 110 836 110 836 87 784 c 128,-1,48
 64 732 64 732 64 672 c 256,49,50
 64 612 64 612 87 560 c 128,-1,51
 110 508 110 508 149 469 c 128,-1,52
 188 430 188 430 240 407 c 128,-1,53
 292 384 292 384 352 384 c 0,54,55
 400 384 400 384 447 400.5 c 128,-1,56
 494 417 494 417 532 448 c 1,57,-1
 576 448 l 1,58,-1
 576 320 l 1,59,-1
 704 320 l 1,60,-1
 704 192 l 1,61,-1
 832 192 l 1,62,-1
 832 64 l 1,63,-1
 960 64 l 1,64,-1
 960 210 l 1,35,-1
256 832 m 256,65,66
 270 832 270 832 281 827 c 128,-1,67
 292 822 292 822 301 813 c 128,-1,68
 310 804 310 804 315 793 c 128,-1,69
 320 782 320 782 320 768 c 256,70,71
 320 754 320 754 315 743 c 128,-1,72
 310 732 310 732 301 723 c 128,-1,73
 292 714 292 714 281 709 c 128,-1,74
 270 704 270 704 256 704 c 256,75,76
 242 704 242 704 231 709 c 128,-1,77
 220 714 220 714 211 723 c 128,-1,78
 202 732 202 732 197 743 c 128,-1,79
 192 754 192 754 192 768 c 256,80,81
 192 782 192 782 197 793 c 128,-1,82
 202 804 202 804 211 813 c 128,-1,83
 220 822 220 822 231 827 c 128,-1,84
 242 832 242 832 256 832 c 256,65,66
EndSplineSet
EndChar

StartChar: uniF0A5
Encoding: 61605 61605 167
Width: 1024
Flags: W
LayerCount: 2
Fore
SplineSet
928 256 m 0,0,1
 938 256 938 256 948.5 256.5 c 0,2,3
 960 257 960 257 970 258 c 1,4,5
 938 198 938 198 893 151 c 128,-1,6
 848 104 848 104 793 70 c 128,-1,7
 738 36 738 36 674.5 18 c 128,-1,8
 611 0 611 0 544 0 c 0,9,10
 478 0 478 0 416.5 17 c 128,-1,11
 355 34 355 34 301.5 65.5 c 128,-1,12
 248 97 248 97 204.5 140.5 c 128,-1,13
 161 184 161 184 129.5 237.5 c 128,-1,14
 98 291 98 291 81 352.5 c 128,-1,15
 64 414 64 414 64 480 c 0,16,17
 64 542 64 542 79 600 c 128,-1,18
 94 658 94 658 122 709.5 c 128,-1,19
 150 761 150 761 190 804.5 c 128,-1,20
 230 848 230 848 279 880 c 128,-1,21
 328 912 328 912 384 932 c 128,-1,22
 440 952 440 952 502 958 c 1,23,24
 475 906 475 906 461.5 850 c 128,-1,25
 448 794 448 794 448 736 c 0,26,27
 448 670 448 670 465 608.5 c 128,-1,28
 482 547 482 547 513.5 493.5 c 128,-1,29
 545 440 545 440 588.5 396.5 c 128,-1,30
 632 353 632 353 685.5 321.5 c 128,-1,31
 739 290 739 290 800.5 273 c 128,-1,32
 862 256 862 256 928 256 c 0,0,1
544 64 m 0,33,34
 632 64 632 64 711 98.5 c 0,35,36
 790 134 790 134 849 198 c 1,37,38
 783 208 783 208 722.5 232.5 c 128,-1,39
 662 257 662 257 610 294.5 c 128,-1,40
 558 332 558 332 516.5 380 c 128,-1,41
 475 428 475 428 445.5 485 c 128,-1,42
 416 542 416 542 400 605 c 128,-1,43
 384 668 384 668 384 736 c 0,44,45
 384 806 384 806 401 870 c 1,46,47
 339 848 339 848 288.5 809 c 128,-1,48
 238 770 238 770 202.5 718.5 c 128,-1,49
 167 667 167 667 147.5 606.5 c 128,-1,50
 128 546 128 546 128 480 c 0,51,52
 128 422 128 422 143 369 c 128,-1,53
 158 316 158 316 185 270 c 128,-1,54
 212 224 212 224 250 186 c 128,-1,55
 288 148 288 148 334 121 c 128,-1,56
 380 94 380 94 433 79 c 128,-1,57
 486 64 486 64 544 64 c 0,33,34
EndSplineSet
EndChar

StartChar: uniF0A6
Encoding: 61606 61606 168
Width: 1024
Flags: W
LayerCount: 2
Fore
SplineSet
96 256 m 0,0,1
 86 256 86 256 75.5 256.5 c 128,-1,2
 65 257 65 257 55 258 c 1,3,4
 86 198 86 198 131.5 151 c 128,-1,5
 177 104 177 104 232 70 c 128,-1,6
 287 36 287 36 350 18 c 128,-1,7
 413 0 413 0 480 0 c 0,8,9
 546 0 546 0 607.5 17 c 128,-1,10
 669 34 669 34 722.5 65.5 c 128,-1,11
 776 97 776 97 819.5 140.5 c 128,-1,12
 863 184 863 184 894.5 237.5 c 128,-1,13
 926 291 926 291 943 352.5 c 128,-1,14
 960 414 960 414 960 480 c 0,15,16
 960 542 960 542 945 600 c 128,-1,17
 930 658 930 658 902 709.5 c 128,-1,18
 874 761 874 761 834 804.5 c 128,-1,19
 794 848 794 848 745.5 880 c 128,-1,20
 697 912 697 912 640.5 932 c 128,-1,21
 584 952 584 952 522 958 c 1,22,23
 549 906 549 906 562.5 850 c 128,-1,24
 576 794 576 794 576 736 c 0,25,26
 576 670 576 670 559 608.5 c 128,-1,27
 542 547 542 547 510.5 493.5 c 128,-1,28
 479 440 479 440 435.5 396.5 c 128,-1,29
 392 353 392 353 338.5 321.5 c 128,-1,30
 285 290 285 290 223.5 273 c 128,-1,31
 162 256 162 256 96 256 c 0,0,1
480 64 m 0,32,33
 392 64 392 64 313.5 98.5 c 0,34,35
 235 134 235 134 175 198 c 1,36,37
 241 208 241 208 302 232.5 c 128,-1,38
 363 257 363 257 414.5 294.5 c 128,-1,39
 466 332 466 332 507.5 380 c 128,-1,40
 549 428 549 428 578.5 485 c 128,-1,41
 608 542 608 542 624 605 c 128,-1,42
 640 668 640 668 640 736 c 0,43,44
 640 806 640 806 623 870 c 1,45,46
 684 848 684 848 735 809 c 128,-1,47
 786 770 786 770 821.5 718.5 c 128,-1,48
 857 667 857 667 876.5 606.5 c 128,-1,49
 896 546 896 546 896 480 c 0,50,51
 896 422 896 422 881.5 369 c 128,-1,52
 867 316 867 316 839.5 270 c 128,-1,53
 812 224 812 224 774.5 186 c 128,-1,54
 737 148 737 148 690.5 121 c 128,-1,55
 644 94 644 94 590.5 79 c 128,-1,56
 537 64 537 64 480 64 c 0,32,33
EndSplineSet
EndChar

StartChar: uniF0A7
Encoding: 61607 61607 169
Width: 1024
Flags: W
LayerCount: 2
Fore
SplineSet
480 704 m 256,0,1
 526 704 526 704 567 686 c 128,-1,2
 608 668 608 668 638 638 c 128,-1,3
 668 608 668 608 686 567 c 128,-1,4
 704 526 704 526 704 480 c 256,5,6
 704 434 704 434 686 393 c 128,-1,7
 668 352 668 352 638 322 c 128,-1,8
 608 292 608 292 567 274 c 128,-1,9
 526 256 526 256 480 256 c 256,10,11
 434 256 434 256 393 274 c 128,-1,12
 352 292 352 292 322 322 c 128,-1,13
 292 352 292 352 274 393 c 128,-1,14
 256 434 256 434 256 480 c 256,15,16
 256 526 256 526 274 567 c 128,-1,17
 292 608 292 608 322 638 c 128,-1,18
 352 668 352 668 393 686 c 128,-1,19
 434 704 434 704 480 704 c 256,0,1
480 320 m 256,20,21
 513 320 513 320 542 333 c 128,-1,22
 571 346 571 346 592.5 367.5 c 128,-1,23
 614 389 614 389 627 418 c 128,-1,24
 640 447 640 447 640 480 c 256,25,26
 640 513 640 513 627 542 c 128,-1,27
 614 571 614 571 592.5 592.5 c 128,-1,28
 571 614 571 614 542 627 c 128,-1,29
 513 640 513 640 480 640 c 256,30,31
 447 640 447 640 418 627 c 128,-1,32
 389 614 389 614 367.5 592.5 c 128,-1,33
 346 571 346 571 333 542 c 128,-1,34
 320 513 320 513 320 480 c 256,35,36
 320 447 320 447 333 418 c 128,-1,37
 346 389 346 389 367.5 367.5 c 128,-1,38
 389 346 389 346 418 333 c 128,-1,39
 447 320 447 320 480 320 c 256,20,21
512 768 m 1,40,-1
 448 768 l 1,41,-1
 448 960 l 1,42,-1
 512 960 l 1,43,-1
 512 768 l 1,40,-1
448 192 m 1,44,-1
 512 192 l 1,45,-1
 512 0 l 1,46,-1
 448 0 l 1,47,-1
 448 192 l 1,44,-1
960 512 m 1,48,-1
 960 448 l 1,49,-1
 768 448 l 1,50,-1
 768 512 l 1,51,-1
 960 512 l 1,48,-1
192 448 m 1,52,-1
 0 448 l 1,53,-1
 0 512 l 1,54,-1
 192 512 l 1,55,-1
 192 448 l 1,52,-1
254 661 m 1,56,-1
 118 797 l 1,57,-1
 163 842 l 1,58,-1
 299 706 l 1,59,-1
 254 661 l 1,56,-1
706 299 m 1,60,-1
 842 163 l 1,61,-1
 797 118 l 1,62,-1
 661 254 l 1,63,-1
 706 299 l 1,60,-1
706 661 m 1,64,65
 706 660 706 660 661 706 c 1,66,-1
 797 842 l 1,67,-1
 842 797 l 1,68,-1
 706 661 l 1,64,65
254 299 m 1,69,70
 254 300 254 300 299 254 c 1,71,-1
 163 118 l 1,72,-1
 118 163 l 1,73,-1
 254 299 l 1,69,70
EndSplineSet
EndChar

StartChar: uniF0A8
Encoding: 61608 61608 170
Width: 1024
Flags: W
LayerCount: 2
Fore
SplineSet
480 1024 m 256,0,1
 528 1024 528 1024 573 1011.5 c 128,-1,2
 618 999 618 999 657.5 976 c 128,-1,3
 697 953 697 953 729 921 c 128,-1,4
 761 889 761 889 784 849.5 c 128,-1,5
 807 810 807 810 819.5 765 c 128,-1,6
 832 720 832 720 832 672 c 0,7,8
 832 600 832 600 804.5 538 c 128,-1,9
 777 476 777 476 726 425 c 0,10,11
 684 384 684 384 662 333.5 c 128,-1,12
 640 283 640 283 640 224 c 2,13,-1
 640 96 l 2,14,15
 640 76 640 76 632.5 58.5 c 128,-1,16
 625 41 625 41 612 28 c 128,-1,17
 599 15 599 15 581.5 7.5 c 128,-1,18
 564 0 564 0 544 0 c 2,19,-1
 416 0 l 2,20,21
 396 0 396 0 378.5 7.5 c 128,-1,22
 361 15 361 15 348 28 c 128,-1,23
 335 41 335 41 327.5 58.5 c 128,-1,24
 320 76 320 76 320 96 c 2,25,-1
 320 224 l 2,26,27
 320 283 320 283 298 333.5 c 128,-1,28
 276 384 276 384 234 425 c 0,29,30
 183 475 183 475 155.5 537.5 c 128,-1,31
 128 600 128 600 128 672 c 0,32,33
 128 720 128 720 140.5 765 c 128,-1,34
 153 810 153 810 176 849.5 c 128,-1,35
 199 889 199 889 231 921 c 128,-1,36
 263 953 263 953 302.5 976 c 128,-1,37
 342 999 342 999 387 1011.5 c 128,-1,38
 432 1024 432 1024 480 1024 c 256,0,1
544 64 m 2,39,40
 557 64 557 64 566.5 73.5 c 128,-1,41
 576 83 576 83 576 96 c 2,42,-1
 576 192 l 1,43,-1
 384 192 l 1,44,-1
 384 96 l 2,45,46
 384 83 384 83 393.5 73.5 c 128,-1,47
 403 64 403 64 416 64 c 2,48,-1
 544 64 l 2,39,40
578 256 m 1,49,50
 584 320 584 320 610.5 373 c 128,-1,51
 637 426 637 426 682 471 c 0,52,53
 724 513 724 513 746 562.5 c 128,-1,54
 768 612 768 612 768 672 c 256,55,56
 768 732 768 732 745 784 c 128,-1,57
 722 836 722 836 683 875 c 128,-1,58
 644 914 644 914 592 937 c 128,-1,59
 540 960 540 960 480 960 c 256,60,61
 420 960 420 960 368 937 c 128,-1,62
 316 914 316 914 277 875 c 128,-1,63
 238 836 238 836 215 784 c 128,-1,64
 192 732 192 732 192 672 c 256,65,66
 192 612 192 612 214 562.5 c 128,-1,67
 236 513 236 513 278 471 c 0,68,69
 323 425 323 425 349.5 372.5 c 128,-1,70
 376 320 376 320 382 256 c 1,71,-1
 578 256 l 1,49,50
EndSplineSet
EndChar

StartChar: uniF0A9
Encoding: 61609 61609 171
Width: 1024
Flags: W
LayerCount: 2
Fore
SplineSet
960 384 m 2,0,1
 973 384 973 384 984.5 379 c 128,-1,2
 996 374 996 374 1005 365 c 128,-1,3
 1014 356 1014 356 1019 345 c 128,-1,4
 1024 334 1024 334 1024 320 c 0,5,6
 1024 310 1024 310 1018.5 289.5 c 128,-1,7
 1013 269 1013 269 1004.5 242.5 c 128,-1,8
 996 216 996 216 986 186 c 128,-1,9
 976 156 976 156 966 128 c 128,-1,10
 956 100 956 100 948 78 c 128,-1,11
 940 56 940 56 936 44 c 0,12,13
 930 24 930 24 912.5 12 c 0,14,15
 894 0 894 0 874 0 c 2,16,-1
 384 0 l 1,17,-1
 384 384 l 1,18,-1
 530 384 l 1,19,-1
 704 558 l 2,20,21
 713 567 713 567 726 571.5 c 128,-1,22
 739 576 739 576 752 576 c 0,23,24
 768 576 768 576 783 570 c 128,-1,25
 798 564 798 564 809 553 c 128,-1,26
 820 542 820 542 826 527 c 128,-1,27
 832 512 832 512 832 496 c 0,28,29
 832 493 832 493 830 484.5 c 128,-1,30
 828 476 828 476 825.5 465 c 128,-1,31
 823 454 823 454 820 442 c 128,-1,32
 817 430 817 430 814 418 c 128,-1,33
 811 406 811 406 808.5 397 c 128,-1,34
 806 388 806 388 805 384 c 1,35,-1
 960 384 l 2,0,1
448 64 m 1,36,-1
 512 64 l 1,37,-1
 512 320 l 1,38,-1
 448 320 l 1,39,-1
 448 64 l 1,36,-1
960 320 m 1,40,-1
 723 320 l 1,41,42
 724 320 724 320 768 499 c 1,43,44
 767 505 767 505 762.5 508.5 c 128,-1,45
 758 512 758 512 752 512 c 2,46,-1
 748 511 l 1,47,48
 748 510 748 510 576 338 c 1,49,-1
 576 64 l 1,50,-1
 874 64 l 1,51,-1
 960 320 l 1,40,-1
494 640 m 1,52,-1
 320 466 l 2,53,54
 311 457 311 457 298 452.5 c 128,-1,55
 285 448 285 448 272 448 c 0,56,57
 256 448 256 448 241 454 c 128,-1,58
 226 460 226 460 215 471 c 128,-1,59
 204 482 204 482 198 497 c 128,-1,60
 192 512 192 512 192 528 c 0,61,62
 192 532 192 532 196 548 c 128,-1,63
 200 564 200 564 204 582 c 128,-1,64
 208 600 208 600 213 617 c 128,-1,65
 218 634 218 634 219 640 c 1,66,-1
 64 640 l 2,67,68
 51 640 51 640 39.5 645 c 128,-1,69
 28 650 28 650 19 658.5 c 128,-1,70
 10 667 10 667 5 678.5 c 128,-1,71
 0 690 0 690 0 704 c 0,72,73
 0 714 0 714 5.5 734.5 c 128,-1,74
 11 755 11 755 19.5 781.5 c 128,-1,75
 28 808 28 808 38 838 c 128,-1,76
 48 868 48 868 58 896 c 128,-1,77
 68 924 68 924 76 946 c 128,-1,78
 84 968 84 968 88 980 c 0,79,80
 94 1000 94 1000 111.5 1012 c 0,81,82
 130 1024 130 1024 150 1024 c 2,83,-1
 640 1024 l 1,84,-1
 640 640 l 1,85,-1
 494 640 l 1,52,-1
576 960 m 1,86,-1
 512 960 l 1,87,-1
 512 704 l 1,88,-1
 576 704 l 1,89,-1
 576 960 l 1,86,-1
448 686 m 1,90,-1
 448 960 l 1,91,-1
 150 960 l 1,92,-1
 64 704 l 1,93,-1
 301 704 l 1,94,95
 300 704 300 704 256 525 c 1,96,97
 257 519 257 519 261.5 515.5 c 128,-1,98
 266 512 266 512 272 512 c 2,99,-1
 276 513 l 1,100,-1
 448 686 l 1,90,-1
EndSplineSet
EndChar

StartChar: uniF0AA
Encoding: 61610 61610 172
Width: 1024
Flags: W
LayerCount: 2
Fore
SplineSet
800 896 m 2,0,1
 816 896 816 896 830 891 c 128,-1,2
 844 886 844 886 856 877.5 c 128,-1,3
 868 869 868 869 877 857 c 0,4,5
 886 844 886 844 891 830 c 0,6,7
 895 818 895 818 902.5 796 c 128,-1,8
 910 774 910 774 920 745 c 128,-1,9
 930 716 930 716 942 683 c 128,-1,10
 954 650 954 650 965.5 616.5 c 128,-1,11
 977 583 977 583 987.5 550.5 c 128,-1,12
 998 518 998 518 1006 491 c 128,-1,13
 1014 464 1014 464 1019 444 c 128,-1,14
 1024 424 1024 424 1024 416 c 0,15,16
 1024 396 1024 396 1016.5 378.5 c 128,-1,17
 1009 361 1009 361 995.5 348 c 128,-1,18
 982 335 982 335 965 327.5 c 128,-1,19
 948 320 948 320 928 320 c 2,20,-1
 706 320 l 1,21,22
 708 298 708 298 714 281 c 128,-1,23
 720 264 720 264 727 248 c 128,-1,24
 734 232 734 232 741 216 c 128,-1,25
 748 200 748 200 754 182 c 128,-1,26
 760 164 760 164 764 143 c 128,-1,27
 768 122 768 122 768 96 c 0,28,29
 768 77 768 77 763.5 59.5 c 128,-1,30
 759 42 759 42 749.5 29 c 128,-1,31
 740 16 740 16 725 8 c 128,-1,32
 710 0 710 0 688 0 c 0,33,34
 670 0 670 0 657.5 7 c 0,35,36
 644 14 644 14 632 26 c 2,37,-1
 348 310 l 2,38,39
 344 314 344 314 329 317 c 128,-1,40
 314 320 314 320 291.5 321 c 128,-1,41
 269 322 269 322 241 322.5 c 128,-1,42
 213 323 213 323 183.5 323 c 128,-1,43
 154 323 154 323 125 322.5 c 128,-1,44
 96 322 96 322 71 321.5 c 128,-1,45
 46 321 46 321 27 320.5 c 128,-1,46
 8 320 8 320 0 320 c 1,47,-1
 0 896 l 1,48,-1
 800 896 l 2,0,1
64 384 m 1,49,-1
 256 384 l 1,50,-1
 256 832 l 1,51,-1
 64 832 l 1,52,-1
 64 384 l 1,49,-1
928 384 m 2,53,54
 941 384 941 384 950.5 393.5 c 128,-1,55
 960 403 960 403 960 416 c 0,56,57
 960 418 960 418 955 435 c 128,-1,58
 950 452 950 452 941.5 478 c 128,-1,59
 933 504 933 504 922.5 537 c 128,-1,60
 912 570 912 570 900 604.5 c 128,-1,61
 888 639 888 639 877 672.5 c 128,-1,62
 866 706 866 706 856 734.5 c 128,-1,63
 846 763 846 763 839.5 783 c 0,64,65
 832 803 832 803 830 810 c 0,66,67
 826 820 826 820 818 826 c 128,-1,68
 810 832 810 832 800 832 c 2,69,-1
 320 832 l 1,70,-1
 320 384 l 1,71,72
 342 384 342 384 360 378 c 128,-1,73
 378 372 378 372 394 356 c 0,74,75
 402 348 402 348 417.5 332 c 128,-1,76
 433 316 433 316 453 295 c 128,-1,77
 473 274 473 274 496.5 250 c 128,-1,78
 520 226 520 226 544 202 c 128,-1,79
 568 178 568 178 590.5 155 c 128,-1,80
 613 132 613 132 632.5 113 c 128,-1,81
 652 94 652 94 666.5 81 c 128,-1,82
 681 68 681 68 688 64 c 1,83,84
 695 64 695 64 699.5 68.5 c 128,-1,85
 704 73 704 73 704 80 c 0,86,87
 704 109 704 109 699 132.5 c 128,-1,88
 694 156 694 156 687 177 c 128,-1,89
 680 198 680 198 672 217 c 128,-1,90
 664 236 664 236 657 257 c 128,-1,91
 650 278 650 278 645 301 c 128,-1,92
 640 324 640 324 640 352 c 2,93,-1
 640 384 l 1,94,-1
 928 384 l 2,53,54
EndSplineSet
EndChar

StartChar: uniF0AB
Encoding: 61611 61611 173
Width: 1024
Flags: W
LayerCount: 2
Fore
SplineSet
928 704 m 2,0,1
 948 704 948 704 965 696.5 c 128,-1,2
 982 689 982 689 995.5 676 c 128,-1,3
 1009 663 1009 663 1016.5 645.5 c 128,-1,4
 1024 628 1024 628 1024 608 c 0,5,6
 1024 600 1024 600 1019 580 c 128,-1,7
 1014 560 1014 560 1006 533 c 128,-1,8
 998 506 998 506 987.5 473.5 c 128,-1,9
 977 441 977 441 965.5 407.5 c 128,-1,10
 954 374 954 374 942 341 c 128,-1,11
 930 308 930 308 920 279 c 128,-1,12
 910 250 910 250 902.5 228 c 128,-1,13
 895 206 895 206 891 194 c 0,14,15
 886 180 886 180 877 167 c 128,-1,16
 868 154 868 154 856 146 c 128,-1,17
 844 138 844 138 830 133 c 128,-1,18
 816 128 816 128 800 128 c 2,19,-1
 0 128 l 1,20,-1
 0 704 l 1,21,22
 12 704 12 704 41 703 c 128,-1,23
 70 702 70 702 106.5 701.5 c 128,-1,24
 143 701 143 701 183.5 700.5 c 128,-1,25
 224 700 224 700 259 701.5 c 128,-1,26
 294 703 294 703 318 705.5 c 128,-1,27
 342 708 342 708 348 714 c 2,28,-1
 632 998 l 2,29,30
 644 1010 644 1010 657 1017 c 128,-1,31
 670 1024 670 1024 688 1024 c 0,32,33
 704 1024 704 1024 719 1018 c 128,-1,34
 734 1012 734 1012 745 1001 c 128,-1,35
 756 990 756 990 762 975 c 128,-1,36
 768 960 768 960 768 944 c 0,37,38
 768 910 768 910 764 886 c 128,-1,39
 760 862 760 862 754 843 c 128,-1,40
 748 824 748 824 741 809 c 128,-1,41
 734 794 734 794 727 778 c 128,-1,42
 720 762 720 762 714 745 c 128,-1,43
 708 728 708 728 706 704 c 1,44,-1
 928 704 l 2,0,1
64 192 m 1,45,-1
 256 192 l 1,46,-1
 256 640 l 1,47,-1
 64 640 l 1,48,-1
 64 192 l 1,45,-1
800 192 m 2,49,50
 810 192 810 192 818.5 198 c 0,51,52
 826 204 826 204 830 214 c 0,53,54
 832 221 832 221 839 241 c 128,-1,55
 846 261 846 261 856 289.5 c 128,-1,56
 866 318 866 318 877 351.5 c 128,-1,57
 888 385 888 385 900 419.5 c 128,-1,58
 912 454 912 454 922.5 487 c 128,-1,59
 933 520 933 520 941.5 546 c 128,-1,60
 950 572 950 572 955 589 c 128,-1,61
 960 606 960 606 960 608 c 0,62,63
 960 621 960 621 950.5 630.5 c 128,-1,64
 941 640 941 640 928 640 c 2,65,-1
 640 640 l 1,66,67
 640 664 640 664 641 687 c 128,-1,68
 642 710 642 710 645.5 731 c 128,-1,69
 649 752 649 752 656.5 773.5 c 0,70,71
 664 794 664 794 676 816 c 0,72,73
 690 842 690 842 697 870.5 c 128,-1,74
 704 899 704 899 704 928 c 0,75,76
 704 932 704 932 704 938 c 128,-1,77
 704 944 704 944 703 949 c 128,-1,78
 702 954 702 954 698.5 957 c 128,-1,79
 695 960 695 960 688 960 c 0,80,81
 686 958 686 958 683.5 957 c 0,82,83
 680 956 680 956 678 954 c 2,84,-1
 394 668 l 2,85,86
 378 652 378 652 360 646 c 128,-1,87
 342 640 342 640 320 640 c 1,88,-1
 320 192 l 1,89,-1
 800 192 l 2,49,50
EndSplineSet
EndChar

